<svg id="Layer_1" data-name="Layer 1" xmlns="http://www.w3.org/2000/svg" xmlns:xlink="http://www.w3.org/1999/xlink" viewBox="0 0 1920 1080"><defs><style>.cls-1{fill:none;}.cls-2{clip-path:url(#clip-path);}.cls-3,.cls-8{fill:#fcce2f;}.cls-4{fill:#f9bb0b;}.cls-5{fill:#983ac9;}.cls-6{clip-path:url(#clip-path-2);}.cls-7{clip-path:url(#clip-path-3);}.cls-8{stroke:#f9bb0b;stroke-miterlimit:10;stroke-width:2px;}.cls-9{clip-path:url(#clip-path-4);}.cls-10{clip-path:url(#clip-path-5);}.cls-11{clip-path:url(#clip-path-6);}.cls-12{clip-path:url(#clip-path-7);}.cls-13{clip-path:url(#clip-path-8);}.cls-14{clip-path:url(#clip-path-9);}.cls-15{clip-path:url(#clip-path-10);}.cls-16{clip-path:url(#clip-path-11);}.cls-17{clip-path:url(#clip-path-12);}.cls-18{clip-path:url(#clip-path-13);}.cls-19{clip-path:url(#clip-path-14);}.cls-20{clip-path:url(#clip-path-15);}.cls-21{clip-path:url(#clip-path-16);}.cls-22{clip-path:url(#clip-path-17);}.cls-23{clip-path:url(#clip-path-18);}.cls-24{clip-path:url(#clip-path-19);}.cls-25{clip-path:url(#clip-path-20);}.cls-26{clip-path:url(#clip-path-21);}.cls-27{clip-path:url(#clip-path-22);}.cls-28{clip-path:url(#clip-path-23);}.cls-29{clip-path:url(#clip-path-24);}.cls-30{clip-path:url(#clip-path-25);}.cls-31{clip-path:url(#clip-path-26);}.cls-32{clip-path:url(#clip-path-27);}.cls-33{clip-path:url(#clip-path-28);}.cls-34{clip-path:url(#clip-path-29);}.cls-35{clip-path:url(#clip-path-30);}.cls-36{clip-path:url(#clip-path-31);}</style><clipPath id="clip-path"><rect class="cls-1" width="1920" height="1080"/></clipPath><clipPath id="clip-path-2"><polygon class="cls-1" points="205.97 620.26 186.76 607.28 167.13 619.72 167.79 527.89 206.63 528.44 205.97 620.26"/></clipPath><clipPath id="clip-path-3"><circle class="cls-1" cx="509.6" cy="541.35" r="108.46"/></clipPath><clipPath id="clip-path-4"><polygon class="cls-1" points="1160.68 620.26 1141.48 607.28 1121.85 619.72 1122.52 527.89 1161.35 528.44 1160.68 620.26"/></clipPath><clipPath id="clip-path-5"><circle class="cls-1" cx="824.73" cy="541.35" r="108.46"/></clipPath><clipPath id="clip-path-6"><circle class="cls-1" cx="1464.32" cy="541.35" r="108.46"/></clipPath><clipPath id="clip-path-7"><circle class="cls-1" cx="1775.46" cy="541.35" r="108.46"/></clipPath><clipPath id="clip-path-8"><polygon class="cls-1" points="685.27 866.56 666.06 853.58 646.43 866.02 647.1 774.19 685.93 774.73 685.27 866.56"/></clipPath><clipPath id="clip-path-9"><circle class="cls-1" cx="349.31" cy="787.64" r="108.46"/></clipPath><clipPath id="clip-path-10"><circle class="cls-1" cx="988.9" cy="787.64" r="108.46"/></clipPath><clipPath id="clip-path-11"><polygon class="cls-1" points="1639.99 866.56 1620.78 853.58 1601.15 866.02 1601.82 774.19 1640.65 774.73 1639.99 866.56"/></clipPath><clipPath id="clip-path-12"><circle class="cls-1" cx="1304.03" cy="787.64" r="108.46"/></clipPath><clipPath id="clip-path-13"><circle class="cls-1" cx="28.82" cy="787.64" r="108.46"/></clipPath><clipPath id="clip-path-14"><polygon class="cls-1" points="205.97 1111.23 186.76 1098.25 167.13 1110.68 167.79 1018.86 206.63 1019.4 205.97 1111.23"/></clipPath><clipPath id="clip-path-15"><circle class="cls-1" cx="509.6" cy="1032.31" r="108.46"/></clipPath><clipPath id="clip-path-16"><polygon class="cls-1" points="1160.68 1111.23 1141.48 1098.25 1121.85 1110.68 1122.52 1018.86 1161.35 1019.4 1160.68 1111.23"/></clipPath><clipPath id="clip-path-17"><circle class="cls-1" cx="824.73" cy="1032.31" r="108.46"/></clipPath><clipPath id="clip-path-18"><circle class="cls-1" cx="1464.32" cy="1032.31" r="108.46"/></clipPath><clipPath id="clip-path-19"><circle class="cls-1" cx="1775.46" cy="1032.31" r="108.46"/></clipPath><clipPath id="clip-path-20"><polygon class="cls-1" points="205.97 124.29 186.76 111.31 167.13 123.75 167.79 31.92 206.63 32.47 205.97 124.29"/></clipPath><clipPath id="clip-path-21"><circle class="cls-1" cx="509.6" cy="45.38" r="108.46"/></clipPath><clipPath id="clip-path-22"><polygon class="cls-1" points="1160.68 124.29 1141.48 111.31 1121.85 123.75 1122.52 31.92 1161.35 32.47 1160.68 124.29"/></clipPath><clipPath id="clip-path-23"><circle class="cls-1" cx="824.73" cy="45.38" r="108.46"/></clipPath><clipPath id="clip-path-24"><circle class="cls-1" cx="1464.32" cy="45.38" r="108.46"/></clipPath><clipPath id="clip-path-25"><circle class="cls-1" cx="1775.46" cy="45.38" r="108.46"/></clipPath><clipPath id="clip-path-26"><polygon class="cls-1" points="685.27 370.59 666.06 357.61 646.43 370.05 647.1 278.22 685.93 278.76 685.27 370.59"/></clipPath><clipPath id="clip-path-27"><circle class="cls-1" cx="349.31" cy="291.68" r="108.46"/></clipPath><clipPath id="clip-path-28"><circle class="cls-1" cx="988.9" cy="291.68" r="108.46"/></clipPath><clipPath id="clip-path-29"><polygon class="cls-1" points="1639.99 370.59 1620.78 357.61 1601.15 370.05 1601.82 278.22 1640.65 278.76 1639.99 370.59"/></clipPath><clipPath id="clip-path-30"><circle class="cls-1" cx="1304.03" cy="291.68" r="108.46"/></clipPath><clipPath id="clip-path-31"><circle class="cls-1" cx="28.82" cy="291.68" r="108.46"/></clipPath></defs><title>northstar v2</title><g class="cls-2"><rect class="cls-3" x="-17.67" y="-15.86" width="1955.34" height="1116.73"/><circle class="cls-3" cx="186.88" cy="541.41" r="108.46"/><polygon class="cls-4" points="205.97 620.26 186.76 607.28 167.13 619.72 167.79 527.89 206.63 528.44 205.97 620.26"/><path class="cls-5" d="M186.88,492.92a.32.32,0,0,0,0-.64.32.32,0,0,0,0,.64Z"/><g class="cls-6"><rect class="cls-3" x="169.54" y="540.12" width="1.17" height="82.69"/><rect class="cls-3" x="202.48" y="540.12" width="1.17" height="82.69"/></g><path class="cls-4" d="M233.73,508c0,2.18-3.57,4.08-3.87,6.18s2.58,5,2,7-4.57,2.9-5.46,4.84,1.07,5.49-.09,7.29-5.2,1.48-6.6,3.1-.51,5.57-2.14,7-5.39,0-7.2,1.13-2.05,5.2-4,6.09-5.15-1.56-7.23-1-3.42,4.4-5.57,4.71-4.49-3-6.67-3-4.57,3.26-6.67,3-3.53-4.11-5.57-4.71-5.29,1.84-7.23,1-2.21-4.93-4-6.09-5.58.28-7.2-1.13-.73-5.35-2.14-7-5.43-1.29-6.6-3.1.81-5.33-.09-7.29-4.85-2.76-5.46-4.84,2.29-4.87,2-7-3.86-4-3.86-6.18,3.57-4.09,3.86-6.19-2.57-5-2-7,4.57-2.9,5.46-4.84-1.07-5.49.09-7.29,5.2-1.48,6.6-3.1.51-5.57,2.14-7,5.39,0,7.2-1.13,2-5.2,4-6.09,5.15,1.56,7.23.95,3.42-4.4,5.57-4.71,4.49,3,6.67,3,4.57-3.26,6.67-3,3.53,4.11,5.57,4.71,5.29-1.84,7.23-.95,2.21,4.93,4,6.09,5.58-.28,7.2,1.13.73,5.35,2.14,7,5.43,1.29,6.6,3.1-.81,5.33.09,7.29,4.85,2.76,5.46,4.84-2.29,4.87-2,7S233.73,505.79,233.73,508Z"/><circle class="cls-4" cx="186.88" cy="507.98" r="39.03"/><path class="cls-3" d="M186.88,470.15a37.71,37.71,0,1,1-14.72,3,37.59,37.59,0,0,1,14.72-3m0-1.2a39,39,0,1,0,39,39,39,39,0,0,0-39-39Z"/><path class="cls-3" d="M186.44,507.24a12.72,12.72,0,0,0-1.66-5.39,10.55,10.55,0,0,0-3.48-3.68,10.15,10.15,0,0,0-4.26-1.54,29.51,29.51,0,0,0-5.67.07l-11.1,1,.35,4,3.55-.32,1.36,15.51-3.55.31.34,4,11.82-1a29.05,29.05,0,0,0,4.38-.62,12.23,12.23,0,0,0,3-1.31,9.16,9.16,0,0,0,2.73-2.41A11.06,11.06,0,0,0,186,512,13.31,13.31,0,0,0,186.44,507.24Zm-6.92,5.21a5.33,5.33,0,0,1-2.29,2.65,10.61,10.61,0,0,1-4.16,1.06l-1.47.13-1.35-15.51,1.46-.13a10.54,10.54,0,0,1,4.2.35,5.3,5.3,0,0,1,2.8,2.35,10.07,10.07,0,0,1,1.35,4.46A9.74,9.74,0,0,1,179.52,512.45Z"/><path class="cls-3" d="M213.4,505.41a11.74,11.74,0,0,0-4.43-8.07c-2.48-1.95-5.78-2.83-9.87-2.35s-7.11,2.11-9.06,4.6a11.71,11.71,0,0,0-2.42,8.84,11.91,11.91,0,0,0,4.31,8c2.44,2,5.77,2.93,10,2.43s7.08-2.1,9-4.56A11.69,11.69,0,0,0,213.4,505.41Zm-7.71,6.68a6,6,0,0,1-4.29,2.53,5.93,5.93,0,0,1-4.8-1.52,8.22,8.22,0,0,1-2.47-5.28,8.4,8.4,0,0,1,1.19-6.07,6,6,0,0,1,4.28-2.53,5.88,5.88,0,0,1,4.88,1.58,8.44,8.44,0,0,1,2.42,5.3A8.28,8.28,0,0,1,205.69,512.09Z"/><path class="cls-4" d="M186.88,444.28a96.59,96.59,0,1,1-37.76,7.61,96.49,96.49,0,0,1,37.76-7.61m0-11.45A108.46,108.46,0,1,0,295.34,541.29,108.46,108.46,0,0,0,186.88,432.83Z"/><circle class="cls-3" cx="509.6" cy="541.35" r="108.46"/><path class="cls-4" d="M565.44,600.07l4,5.68v-6.68l-3.9.84A.1.1,0,0,0,565.44,600.07Z"/><path class="cls-4" d="M562.74,601.83l-7.34,11.65a.1.1,0,0,1-.19,0l-11.77-42a.11.11,0,0,1,.16-.12l25.8,18.57V474.24a1,1,0,0,0-1-1H453.16a1,1,0,0,0-1,1V612.81a1,1,0,0,0,1,1H568.4a1,1,0,0,0,1-1V611.1l-6.48-9.27A.11.11,0,0,0,562.74,601.83Z"/><path class="cls-3" d="M576.22,620.85a.1.1,0,0,0,.14,0l2.34-1.63a.11.11,0,0,0,0-.15l-9.33-13.34v5.35Z"/><path class="cls-3" d="M579,596.82l-9.6-6.91v9.16L579,597A.11.11,0,0,0,579,596.82Z"/><path class="cls-4" d="M543.6,571.34a.11.11,0,0,0-.16.12l11.77,42a.1.1,0,0,0,.19,0l7.34-11.65a.11.11,0,0,1,.18,0l6.48,9.27v-5.35l-4-5.68a.1.1,0,0,1,.06-.16l3.9-.84v-9.16Z"/><circle class="cls-3" cx="510.78" cy="536.13" r="36.54"/><ellipse class="cls-4" cx="501.07" cy="524.3" rx="1.49" ry="4.16"/><ellipse class="cls-4" cx="521.06" cy="524.3" rx="1.49" ry="4.16"/><path class="cls-4" d="M510.78,553.32a22.51,22.51,0,0,1-16.35-7.26,22.08,22.08,0,0,1-4.6-6.69l1.1-.44-.55.22.55-.22a21.44,21.44,0,0,0,4.39,6.32,22.23,22.23,0,0,0,31,0,22,22,0,0,0,4.44-6.32l1.1.44a22.18,22.18,0,0,1-4.66,6.69A22.68,22.68,0,0,1,510.78,553.32Z"/><path class="cls-4" d="M528.24,539.09a.71.71,0,0,1,.5-1,5.38,5.38,0,0,1,4.85,2.42.7.7,0,0,1-.38,1h0a.71.71,0,0,1-.91-.44,2.85,2.85,0,0,0-1.22-1.66,2.15,2.15,0,0,0-1.83.17.72.72,0,0,1-.94-.32Z"/><path class="cls-4" d="M493.32,539.09a.71.71,0,0,0-.5-1,4.57,4.57,0,0,0-2.66.51,4.62,4.62,0,0,0-2.2,1.91.71.71,0,0,0,.39,1h0a.7.7,0,0,0,.9-.44,2.91,2.91,0,0,1,1.23-1.66,2.15,2.15,0,0,1,1.83.17.71.71,0,0,0,.93-.32Z"/><g class="cls-7"><path class="cls-8" d="M582.35,590.55,548.17,566a.4.4,0,0,0-.62.43l11.36,40.54a.4.4,0,0,0,.73.11l6.75-10.71a.4.4,0,0,1,.67,0l13,18.65a.11.11,0,0,0,.15,0l2.34-1.64a.1.1,0,0,0,0-.15l-13-18.65a.39.39,0,0,1,.24-.62l12.38-2.67A.4.4,0,0,0,582.35,590.55Z"/></g><path class="cls-4" d="M509.6,444.33A96.66,96.66,0,1,1,471.84,452a96.5,96.5,0,0,1,37.76-7.62m0-11.45A108.47,108.47,0,1,0,618.06,541.35,108.47,108.47,0,0,0,509.6,432.88Z"/><circle class="cls-3" cx="1141.6" cy="541.41" r="108.46"/><polygon class="cls-4" points="1160.68 620.26 1141.48 607.28 1121.85 619.72 1122.52 527.89 1161.35 528.44 1160.68 620.26"/><path class="cls-5" d="M1141.6,492.92a.32.32,0,0,0,0-.64.32.32,0,0,0,0,.64Z"/><g class="cls-9"><rect class="cls-3" x="1124.26" y="540.12" width="1.17" height="82.69"/><rect class="cls-3" x="1157.2" y="540.12" width="1.17" height="82.69"/></g><path class="cls-4" d="M1188.45,508c0,2.18-3.57,4.08-3.86,6.18s2.57,5,2,7-4.57,2.9-5.46,4.84,1.07,5.49-.09,7.29-5.2,1.48-6.6,3.1-.51,5.57-2.14,7-5.39,0-7.2,1.13-2,5.2-4,6.09-5.15-1.56-7.23-1-3.42,4.4-5.57,4.71-4.49-3-6.67-3-4.57,3.26-6.67,3-3.53-4.11-5.57-4.71-5.29,1.84-7.23,1-2.21-4.93-4-6.09-5.58.28-7.2-1.13-.73-5.35-2.14-7-5.43-1.29-6.6-3.1.81-5.33-.09-7.29-4.85-2.76-5.46-4.84,2.29-4.87,2-7-3.87-4-3.87-6.18,3.57-4.09,3.87-6.19-2.58-5-2-7,4.57-2.9,5.46-4.84-1.07-5.49.09-7.29,5.2-1.48,6.6-3.1.51-5.57,2.14-7,5.39,0,7.2-1.13,2.05-5.2,4-6.09,5.16,1.56,7.23.95,3.42-4.4,5.57-4.71,4.49,3,6.67,3,4.57-3.26,6.67-3,3.53,4.11,5.57,4.71,5.29-1.84,7.23-.95,2.21,4.93,4,6.09,5.58-.28,7.2,1.13.73,5.35,2.14,7,5.43,1.29,6.6,3.1-.81,5.33.09,7.29,4.85,2.76,5.46,4.84-2.29,4.87-2,7S1188.45,505.79,1188.45,508Z"/><circle class="cls-4" cx="1141.6" cy="507.98" r="39.03"/><path class="cls-3" d="M1141.6,470.15a37.66,37.66,0,1,1-14.72,3,37.59,37.59,0,0,1,14.72-3m0-1.2a39,39,0,1,0,39,39,39,39,0,0,0-39-39Z"/><path class="cls-3" d="M1141.16,507.24a12.72,12.72,0,0,0-1.66-5.39,10.55,10.55,0,0,0-3.48-3.68,10.16,10.16,0,0,0-4.25-1.54,29.61,29.61,0,0,0-5.68.07l-11.1,1,.35,4,3.55-.32,1.36,15.51-3.55.31.34,4,11.82-1a29.05,29.05,0,0,0,4.38-.62,12.23,12.23,0,0,0,3-1.31,9.16,9.16,0,0,0,2.73-2.41,11.06,11.06,0,0,0,1.73-3.75A13.31,13.31,0,0,0,1141.16,507.24Zm-6.92,5.21a5.33,5.33,0,0,1-2.29,2.65,10.61,10.61,0,0,1-4.16,1.06l-1.46.13L1125,500.78l1.46-.13a10.5,10.5,0,0,1,4.2.35,5.3,5.3,0,0,1,2.8,2.35,10.07,10.07,0,0,1,1.35,4.46A9.74,9.74,0,0,1,1134.24,512.45Z"/><path class="cls-3" d="M1168.12,505.41a11.74,11.74,0,0,0-4.43-8.07c-2.48-1.95-5.78-2.83-9.87-2.35s-7.1,2.11-9.06,4.6a11.71,11.71,0,0,0-2.42,8.84,11.91,11.91,0,0,0,4.31,8c2.44,2,5.77,2.93,10,2.43s7.08-2.1,9-4.56A11.69,11.69,0,0,0,1168.12,505.41Zm-7.71,6.68a6,6,0,0,1-4.29,2.53,5.94,5.94,0,0,1-4.8-1.52,8.22,8.22,0,0,1-2.47-5.28,8.4,8.4,0,0,1,1.19-6.07,6,6,0,0,1,4.28-2.53,5.88,5.88,0,0,1,4.88,1.58,8.39,8.39,0,0,1,2.42,5.3A8.28,8.28,0,0,1,1160.41,512.09Z"/><path class="cls-4" d="M1141.6,444.28a96.59,96.59,0,1,1-37.76,7.61,96.49,96.49,0,0,1,37.76-7.61m0-11.45a108.46,108.46,0,1,0,108.46,108.46A108.46,108.46,0,0,0,1141.6,432.83Z"/><circle class="cls-3" cx="824.73" cy="541.35" r="108.46"/><g class="cls-10"><path class="cls-4" d="M751.39,585.95H898.08a5,5,0,0,1,5,5v58.4a0,0,0,0,1,0,0H746.39a0,0,0,0,1,0,0v-58.4A5,5,0,0,1,751.39,585.95Z" transform="translate(5.2 -6.89) rotate(0.48)"/><path class="cls-3" d="M875.44,595.72h0L774,594.87a2.41,2.41,0,0,1,0-4.82h0l101.43.85a2.41,2.41,0,0,1,0,4.82Z"/><path class="cls-8" d="M775.71,592.23l12.93-85.59a1,1,0,0,1,1.08-.85l95.55,8.44a1,1,0,0,1,.9,1.16L874,593.05Z"/></g><path class="cls-4" d="M841.2,576.59a1.23,1.23,0,0,1-.27,0l-28.11-4.18a1.79,1.79,0,0,1-1.19-.71,1.82,1.82,0,0,1-.33-1.34l4.18-28.11a1.81,1.81,0,0,1,2-1.53l28.11,4.19a1.81,1.81,0,0,1,1.53,2.05L843,575.05A1.81,1.81,0,0,1,841.2,576.59Zm0-1.61a.2.2,0,0,0,.23-.17l4.18-28.11a.21.21,0,0,0,0-.15.18.18,0,0,0-.13-.08l-28.11-4.18a.2.2,0,0,0-.23.17l-4.18,28.11a.21.21,0,0,0,0,.15.24.24,0,0,0,.14.08Z"/><path class="cls-4" d="M828.08,571.49h-.18a2.42,2.42,0,0,1-2-1.44l-6.62-15.15a2.41,2.41,0,1,1,4.41-1.94l4.81,11,21.95-34.84a2.41,2.41,0,1,1,4.08,2.57l-24.38,38.69A2.4,2.4,0,0,1,828.08,571.49Z"/><path class="cls-4" d="M824.73,444.33A96.66,96.66,0,1,1,787,452a96.54,96.54,0,0,1,37.76-7.62m0-11.45A108.47,108.47,0,1,0,933.19,541.35,108.47,108.47,0,0,0,824.73,432.88Z"/><circle class="cls-3" cx="1464.32" cy="541.35" r="108.46"/><path class="cls-4" d="M1520.16,600.07l4,5.68v-6.68l-3.9.84A.1.1,0,0,0,1520.16,600.07Z"/><path class="cls-4" d="M1517.47,601.83l-7.35,11.65a.1.1,0,0,1-.19,0l-11.77-42a.11.11,0,0,1,.16-.12l25.8,18.57V474.24a1,1,0,0,0-1-1H1407.88a1,1,0,0,0-1,1V612.81a1,1,0,0,0,1,1h115.24a1,1,0,0,0,1-1V611.1l-6.48-9.27A.1.1,0,0,0,1517.47,601.83Z"/><path class="cls-3" d="M1530.94,620.85a.1.1,0,0,0,.14,0l2.34-1.63a.11.11,0,0,0,0-.15l-9.33-13.34v5.35Z"/><path class="cls-3" d="M1533.72,596.82l-9.6-6.91v9.16l9.56-2.06A.11.11,0,0,0,1533.72,596.82Z"/><path class="cls-4" d="M1498.32,571.34a.11.11,0,0,0-.16.12l11.77,42a.1.1,0,0,0,.19,0l7.35-11.65a.1.1,0,0,1,.17,0l6.48,9.27v-5.35l-4-5.68a.1.1,0,0,1,.06-.16l3.9-.84v-9.16Z"/><circle class="cls-3" cx="1465.5" cy="536.13" r="36.54"/><ellipse class="cls-4" cx="1455.79" cy="524.3" rx="1.49" ry="4.16"/><ellipse class="cls-4" cx="1475.78" cy="524.3" rx="1.49" ry="4.16"/><path class="cls-4" d="M1465.5,553.32a22.51,22.51,0,0,1-16.35-7.26,22.08,22.08,0,0,1-4.6-6.69l1.1-.44-.55.22.55-.22a21.67,21.67,0,0,0,4.39,6.32,22.23,22.23,0,0,0,31,0,21.77,21.77,0,0,0,4.44-6.32l1.1.44a22.18,22.18,0,0,1-4.66,6.69A22.66,22.66,0,0,1,1465.5,553.32Z"/><path class="cls-4" d="M1483,539.09a.71.71,0,0,1,.5-1,5.38,5.38,0,0,1,4.85,2.42.7.7,0,0,1-.38,1h0a.71.71,0,0,1-.91-.44,2.85,2.85,0,0,0-1.22-1.66,2.15,2.15,0,0,0-1.83.17.72.72,0,0,1-.94-.32Z"/><path class="cls-4" d="M1448,539.09a.71.71,0,0,0-.5-1,4.57,4.57,0,0,0-2.66.51,4.62,4.62,0,0,0-2.2,1.91.71.71,0,0,0,.39,1h0a.7.7,0,0,0,.9-.44,2.91,2.91,0,0,1,1.23-1.66,2.15,2.15,0,0,1,1.83.17.71.71,0,0,0,.93-.32Z"/><g class="cls-11"><path class="cls-8" d="M1537.07,590.55,1502.89,566a.4.4,0,0,0-.62.43l11.36,40.54a.4.4,0,0,0,.73.11l6.75-10.71a.4.4,0,0,1,.67,0l13,18.65a.11.11,0,0,0,.15,0l2.34-1.64a.1.1,0,0,0,0-.15l-13-18.65a.39.39,0,0,1,.24-.62l12.38-2.67A.4.4,0,0,0,1537.07,590.55Z"/></g><path class="cls-4" d="M1464.32,444.33a96.66,96.66,0,1,1-37.76,7.62,96.5,96.5,0,0,1,37.76-7.62m0-11.45a108.47,108.47,0,1,0,108.46,108.47,108.47,108.47,0,0,0-108.46-108.47Z"/><circle class="cls-3" cx="1775.46" cy="541.35" r="108.46"/><g class="cls-12"><path class="cls-4" d="M1702.12,585.95h146.69a5,5,0,0,1,5,5v58.4a0,0,0,0,1,0,0H1697.12a0,0,0,0,1,0,0v-58.4A5,5,0,0,1,1702.12,585.95Z" transform="translate(5.24 -14.85) rotate(0.48)"/><path class="cls-3" d="M1826.18,595.72h0l-101.43-.85a2.41,2.41,0,0,1,0-4.82h0l101.43.85a2.41,2.41,0,0,1,0,4.82Z"/><path class="cls-8" d="M1726.44,592.23l12.93-85.59a1,1,0,0,1,1.09-.85l95.54,8.44a1,1,0,0,1,.91,1.16l-12.2,77.66Z"/></g><path class="cls-4" d="M1791.93,576.59a1.18,1.18,0,0,1-.26,0l-28.12-4.18a1.81,1.81,0,0,1-1.52-2l4.18-28.11a1.82,1.82,0,0,1,2.06-1.53l28.11,4.19a1.79,1.79,0,0,1,1.52,2.05l-4.18,28.11A1.81,1.81,0,0,1,1791.93,576.59Zm0-1.61a.2.2,0,0,0,.23-.17l4.18-28.11a.17.17,0,0,0,0-.15.18.18,0,0,0-.13-.08L1768,542.29a.21.21,0,0,0-.23.17l-4.18,28.11a.21.21,0,0,0,0,.15.18.18,0,0,0,.13.08Z"/><path class="cls-4" d="M1778.82,571.49h-.18a2.42,2.42,0,0,1-2-1.44L1770,554.9a2.41,2.41,0,0,1,4.42-1.94l4.8,11,22-34.84a2.41,2.41,0,1,1,4.08,2.57l-24.38,38.69A2.43,2.43,0,0,1,1778.82,571.49Z"/><path class="cls-4" d="M1775.46,444.33A96.66,96.66,0,1,1,1737.7,452a96.5,96.5,0,0,1,37.76-7.62m0-11.45a108.47,108.47,0,1,0,108.47,108.47,108.47,108.47,0,0,0-108.47-108.47Z"/><circle class="cls-3" cx="666.18" cy="787.7" r="108.46"/><polygon class="cls-4" points="685.27 866.56 666.06 853.58 646.43 866.02 647.1 774.19 685.93 774.73 685.27 866.56"/><path class="cls-5" d="M666.18,739.21a.32.32,0,0,0,0-.63.32.32,0,0,0,0,.63Z"/><g class="cls-13"><rect class="cls-3" x="648.84" y="786.41" width="1.17" height="82.69"/><rect class="cls-3" x="681.78" y="786.41" width="1.17" height="82.69"/></g><path class="cls-4" d="M713,754.27c0,2.18-3.56,4.09-3.86,6.19s2.58,5,2,7-4.57,2.89-5.46,4.83,1.07,5.5-.09,7.3-5.2,1.48-6.6,3.1-.51,5.56-2.14,7-5.39,0-7.2,1.13-2,5.19-4,6.09-5.15-1.56-7.23-.95-3.42,4.4-5.57,4.7-4.49-3-6.67-3-4.57,3.26-6.67,3-3.53-4.11-5.57-4.7-5.29,1.84-7.23.95-2.21-4.93-4-6.09-5.58.28-7.2-1.13-.73-5.35-2.14-7-5.43-1.29-6.6-3.1.81-5.33-.09-7.3-4.85-2.76-5.45-4.83,2.28-4.87,2-7-3.87-4-3.87-6.19,3.57-4.08,3.87-6.18-2.58-5-2-7,4.56-2.9,5.45-4.84-1.07-5.49.09-7.29,5.2-1.48,6.6-3.1.52-5.57,2.14-7,5.39,0,7.2-1.12,2-5.2,4-6.1,5.16,1.57,7.23,1,3.42-4.4,5.57-4.71,4.49,3,6.67,3,4.57-3.26,6.67-3,3.53,4.11,5.57,4.71,5.29-1.84,7.23-1,2.21,4.94,4,6.1,5.58-.28,7.2,1.12.73,5.35,2.14,7,5.43,1.29,6.6,3.1-.81,5.33.09,7.29,4.85,2.76,5.46,4.84-2.29,4.87-2,7S713,752.09,713,754.27Z"/><circle class="cls-4" cx="666.18" cy="754.27" r="39.03"/><path class="cls-3" d="M666.18,716.45a37.66,37.66,0,1,1-14.72,3,37.59,37.59,0,0,1,14.72-3m0-1.21a39,39,0,1,0,39,39,39,39,0,0,0-39-39Z"/><path class="cls-3" d="M665.74,753.54a12.68,12.68,0,0,0-1.66-5.39,10.55,10.55,0,0,0-3.48-3.68,10,10,0,0,0-4.25-1.54,30.32,30.32,0,0,0-5.68.06l-11.1,1,.35,3.95,3.55-.31,1.36,15.51-3.55.31.34,4,11.82-1a29.05,29.05,0,0,0,4.38-.62,12.23,12.23,0,0,0,3-1.31,9.3,9.3,0,0,0,2.73-2.41,11.25,11.25,0,0,0,1.73-3.75A13.31,13.31,0,0,0,665.74,753.54Zm-6.92,5.21a5.33,5.33,0,0,1-2.29,2.65,10.73,10.73,0,0,1-4.16,1.06l-1.46.13-1.36-15.51L651,747a10.33,10.33,0,0,1,4.2.35,5.26,5.26,0,0,1,2.8,2.35,10.07,10.07,0,0,1,1.35,4.46A9.75,9.75,0,0,1,658.82,758.75Z"/><path class="cls-3" d="M692.7,751.71a11.74,11.74,0,0,0-4.43-8.07c-2.48-1.95-5.78-2.84-9.87-2.36s-7.1,2.12-9.06,4.6a11.75,11.75,0,0,0-2.42,8.85,11.87,11.87,0,0,0,4.31,8c2.44,2,5.77,2.93,10,2.44s7.08-2.11,9-4.56A11.69,11.69,0,0,0,692.7,751.71ZM685,758.39a6,6,0,0,1-4.29,2.52,5.9,5.9,0,0,1-4.79-1.51,8.21,8.21,0,0,1-2.48-5.29,8.43,8.43,0,0,1,1.19-6.06,6,6,0,0,1,4.28-2.53,5.88,5.88,0,0,1,4.88,1.58A9.67,9.67,0,0,1,685,758.39Z"/><path class="cls-4" d="M666.18,690.57a96.66,96.66,0,1,1-37.76,7.62,96.5,96.5,0,0,1,37.76-7.62m0-11.45A108.47,108.47,0,1,0,774.64,787.59,108.46,108.46,0,0,0,666.18,679.12Z"/><circle class="cls-3" cx="349.31" cy="787.64" r="108.46"/><g class="cls-14"><path class="cls-4" d="M276,832.25H422.66a5,5,0,0,1,5,5v58.4a0,0,0,0,1,0,0H271a0,0,0,0,1,0,0v-58.4a5,5,0,0,1,5-5Z" transform="translate(7.25 -2.9) rotate(0.48)"/><path class="cls-3" d="M400,842h0l-101.43-.85a2.41,2.41,0,0,1,0-4.82h0l101.43.85a2.41,2.41,0,0,1,0,4.82Z"/><path class="cls-8" d="M300.29,838.52l12.93-85.58a1,1,0,0,1,1.08-.85l95.55,8.44a1,1,0,0,1,.9,1.16l-12.19,77.66Z"/></g><path class="cls-4" d="M365.78,822.89l-.27,0-28.11-4.18a1.79,1.79,0,0,1-1.19-.71,1.84,1.84,0,0,1-.33-1.34l4.18-28.12a1.81,1.81,0,0,1,2.05-1.52l28.11,4.18a1.82,1.82,0,0,1,1.53,2.06l-4.18,28.11A1.82,1.82,0,0,1,365.78,822.89Zm0-1.61a.2.2,0,0,0,.23-.17L370.16,793a.21.21,0,0,0,0-.15.18.18,0,0,0-.13-.08l-28.11-4.18a.2.2,0,0,0-.23.17l-4.18,28.11a.21.21,0,0,0,0,.15.24.24,0,0,0,.14.08Z"/><path class="cls-4" d="M352.66,817.79h-.18a2.41,2.41,0,0,1-2-1.43l-6.62-15.16a2.41,2.41,0,0,1,4.42-1.93l4.8,11L375,775.4a2.41,2.41,0,0,1,4.08,2.57l-24.38,38.7A2.4,2.4,0,0,1,352.66,817.79Z"/><path class="cls-4" d="M349.31,690.63a96.66,96.66,0,1,1-37.76,7.62,96.36,96.36,0,0,1,37.76-7.62m0-11.45A108.47,108.47,0,1,0,457.77,787.64,108.46,108.46,0,0,0,349.31,679.18Z"/><circle class="cls-3" cx="988.9" cy="787.64" r="108.46"/><path class="cls-4" d="M1044.74,846.37l4,5.67v-6.68l-3.9.84A.11.11,0,0,0,1044.74,846.37Z"/><path class="cls-4" d="M1042.05,848.13l-7.35,11.65a.11.11,0,0,1-.19,0l-11.77-42a.1.1,0,0,1,.16-.11l25.8,18.57V720.54a1,1,0,0,0-1-1H932.46a1,1,0,0,0-1,1V859.11a1,1,0,0,0,1,1H1047.7a1,1,0,0,0,1-1V857.4l-6.48-9.27A.1.1,0,0,0,1042.05,848.13Z"/><path class="cls-3" d="M1055.52,867.14a.1.1,0,0,0,.14,0l2.34-1.64a.1.1,0,0,0,0-.14L1048.7,852v5.36Z"/><path class="cls-3" d="M1058.3,843.11l-9.6-6.9v9.15l9.56-2.06A.1.1,0,0,0,1058.3,843.11Z"/><path class="cls-4" d="M1022.9,817.64a.1.1,0,0,0-.16.11l11.77,42a.11.11,0,0,0,.19,0l7.35-11.65a.1.1,0,0,1,.17,0l6.48,9.27V852l-4-5.67a.11.11,0,0,1,.06-.17l3.9-.84v-9.15Z"/><circle class="cls-3" cx="990.08" cy="782.43" r="36.54"/><ellipse class="cls-4" cx="980.38" cy="770.59" rx="1.49" ry="4.16"/><ellipse class="cls-4" cx="1000.36" cy="770.59" rx="1.49" ry="4.16"/><path class="cls-4" d="M990.08,799.61a22.47,22.47,0,0,1-16.34-7.26,22,22,0,0,1-4.61-6.68l1.1-.44-.55.22.55-.22a21.67,21.67,0,0,0,4.39,6.32,22.23,22.23,0,0,0,31,0,21.6,21.6,0,0,0,4.44-6.33l1.1.45a22.31,22.31,0,0,1-4.66,6.69A22.69,22.69,0,0,1,990.08,799.61Z"/><path class="cls-4" d="M1007.54,785.38a.7.7,0,0,1,.5-1,4.41,4.41,0,0,1,2.66.51,4.63,4.63,0,0,1,2.19,1.9.71.71,0,0,1-.38,1h0a.72.72,0,0,1-.91-.44,2.87,2.87,0,0,0-1.22-1.67,2.19,2.19,0,0,0-1.83.17.7.7,0,0,1-.93-.31Z"/><path class="cls-4" d="M972.62,785.38a.7.7,0,0,0-.5-1,4.41,4.41,0,0,0-2.66.51,4.72,4.72,0,0,0-2.2,1.9.72.72,0,0,0,.39,1h0a.71.71,0,0,0,.9-.44,2.93,2.93,0,0,1,1.23-1.67,2.19,2.19,0,0,1,1.83.17.7.7,0,0,0,.93-.31Z"/><g class="cls-15"><path class="cls-8" d="M1061.65,836.85l-34.18-24.59a.4.4,0,0,0-.62.43l11.36,40.54a.4.4,0,0,0,.73.11l6.75-10.71a.41.41,0,0,1,.67,0l13,18.66a.1.1,0,0,0,.15,0l2.34-1.63a.11.11,0,0,0,0-.15l-13-18.65a.4.4,0,0,1,.24-.63l12.38-2.66A.4.4,0,0,0,1061.65,836.85Z"/></g><path class="cls-4" d="M988.9,690.63a96.66,96.66,0,1,1-37.76,7.62,96.32,96.32,0,0,1,37.76-7.62m0-11.45a108.47,108.47,0,1,0,108.46,108.46A108.46,108.46,0,0,0,988.9,679.18Z"/><circle class="cls-3" cx="1620.9" cy="787.7" r="108.46"/><polygon class="cls-4" points="1639.99 866.56 1620.78 853.58 1601.15 866.02 1601.82 774.19 1640.65 774.73 1639.99 866.56"/><path class="cls-5" d="M1620.9,739.21a.32.32,0,0,0,0-.63.32.32,0,0,0,0,.63Z"/><g class="cls-16"><rect class="cls-3" x="1603.57" y="786.41" width="1.17" height="82.69"/><rect class="cls-3" x="1636.5" y="786.41" width="1.17" height="82.69"/></g><path class="cls-4" d="M1667.75,754.27c0,2.18-3.56,4.09-3.86,6.19s2.58,5,2,7-4.57,2.89-5.46,4.83,1.07,5.5-.09,7.3-5.2,1.48-6.6,3.1-.51,5.56-2.14,7-5.39,0-7.2,1.13-2.05,5.19-4,6.09-5.15-1.56-7.23-.95-3.42,4.4-5.57,4.7-4.49-3-6.67-3-4.57,3.26-6.67,3-3.52-4.11-5.57-4.7-5.29,1.84-7.23.95-2.21-4.93-4-6.09-5.58.28-7.2-1.13-.73-5.35-2.14-7-5.43-1.29-6.6-3.1.81-5.33-.09-7.3-4.85-2.76-5.45-4.83,2.28-4.87,2-7-3.87-4-3.87-6.19,3.57-4.08,3.87-6.18-2.58-5-2-7,4.57-2.9,5.45-4.84-1.07-5.49.09-7.29,5.2-1.48,6.6-3.1.52-5.57,2.14-7,5.39,0,7.21-1.12,2-5.2,4-6.1,5.16,1.57,7.23,1,3.42-4.4,5.57-4.71,4.49,3,6.67,3,4.57-3.26,6.67-3,3.53,4.11,5.57,4.71,5.29-1.84,7.23-1,2.21,4.94,4,6.1,5.58-.28,7.2,1.12.73,5.35,2.14,7,5.43,1.29,6.6,3.1-.81,5.33.09,7.29,4.85,2.76,5.46,4.84-2.29,4.87-2,7S1667.75,752.09,1667.75,754.27Z"/><circle class="cls-4" cx="1620.9" cy="754.27" r="39.03"/><path class="cls-3" d="M1620.9,716.45a37.66,37.66,0,1,1-14.72,3,37.59,37.59,0,0,1,14.72-3m0-1.21a39,39,0,1,0,39,39,39,39,0,0,0-39-39Z"/><path class="cls-3" d="M1620.46,753.54a12.54,12.54,0,0,0-1.66-5.39,10.55,10.55,0,0,0-3.48-3.68,10,10,0,0,0-4.25-1.54,30.32,30.32,0,0,0-5.68.06l-11.1,1,.35,3.95,3.55-.31,1.36,15.51-3.55.31.34,4,11.82-1a29.05,29.05,0,0,0,4.38-.62,12.23,12.23,0,0,0,3-1.31,9.18,9.18,0,0,0,2.73-2.41,11.25,11.25,0,0,0,1.73-3.75A13.31,13.31,0,0,0,1620.46,753.54Zm-6.92,5.21a5.33,5.33,0,0,1-2.29,2.65,10.73,10.73,0,0,1-4.16,1.06l-1.46.13-1.36-15.51,1.46-.13a10.33,10.33,0,0,1,4.2.35,5.26,5.26,0,0,1,2.8,2.35,9.94,9.94,0,0,1,1.35,4.46A9.63,9.63,0,0,1,1613.54,758.75Z"/><path class="cls-3" d="M1647.42,751.71a11.74,11.74,0,0,0-4.43-8.07c-2.48-1.95-5.78-2.84-9.87-2.36s-7.1,2.12-9.06,4.6a11.75,11.75,0,0,0-2.42,8.85,11.87,11.87,0,0,0,4.31,8c2.44,2,5.77,2.93,10,2.44s7.08-2.11,9-4.56A11.72,11.72,0,0,0,1647.42,751.71Zm-7.71,6.68a6,6,0,0,1-4.29,2.52,5.9,5.9,0,0,1-4.79-1.51,8.21,8.21,0,0,1-2.48-5.29,8.43,8.43,0,0,1,1.19-6.06,6,6,0,0,1,4.28-2.53,5.88,5.88,0,0,1,4.88,1.58,9.67,9.67,0,0,1,1.21,11.29Z"/><path class="cls-4" d="M1620.9,690.57a96.66,96.66,0,1,1-37.76,7.62,96.5,96.5,0,0,1,37.76-7.62m0-11.45a108.47,108.47,0,1,0,108.46,108.47A108.46,108.46,0,0,0,1620.9,679.12Z"/><circle class="cls-3" cx="1304.03" cy="787.64" r="108.46"/><g class="cls-17"><path class="cls-4" d="M1230.69,832.25h146.69a5,5,0,0,1,5,5v58.4a0,0,0,0,1,0,0H1225.69a0,0,0,0,1,0,0v-58.4A5,5,0,0,1,1230.69,832.25Z" transform="translate(7.28 -10.89) rotate(0.48)"/><path class="cls-3" d="M1354.74,842h0l-101.43-.85a2.41,2.41,0,0,1,0-4.82h0l101.43.85a2.41,2.41,0,0,1,0,4.82Z"/><path class="cls-8" d="M1255,838.52l12.93-85.58a1,1,0,0,1,1.08-.85l95.55,8.44a1,1,0,0,1,.9,1.16l-12.19,77.66Z"/></g><path class="cls-4" d="M1320.5,822.89l-.27,0-28.11-4.18a1.79,1.79,0,0,1-1.19-.71,1.84,1.84,0,0,1-.33-1.34l4.18-28.12a1.81,1.81,0,0,1,2-1.52l28.12,4.18a1.82,1.82,0,0,1,1.52,2.06l-4.18,28.11A1.82,1.82,0,0,1,1320.5,822.89Zm0-1.61a.2.2,0,0,0,.23-.17l4.18-28.11a.21.21,0,0,0,0-.15.18.18,0,0,0-.13-.08l-28.11-4.18a.21.21,0,0,0-.23.17l-4.18,28.11a.21.21,0,0,0,0,.15.24.24,0,0,0,.14.08Z"/><path class="cls-4" d="M1307.38,817.79h-.18a2.41,2.41,0,0,1-2-1.43l-6.62-15.16a2.41,2.41,0,0,1,4.42-1.93l4.8,11,22-34.85a2.41,2.41,0,0,1,4.08,2.57l-24.38,38.7A2.4,2.4,0,0,1,1307.38,817.79Z"/><path class="cls-4" d="M1304,690.63a96.66,96.66,0,1,1-37.76,7.62,96.32,96.32,0,0,1,37.76-7.62m0-11.45a108.47,108.47,0,1,0,108.46,108.46A108.46,108.46,0,0,0,1304,679.18Z"/><circle class="cls-3" cx="1943.62" cy="787.64" r="108.46"/><path class="cls-4" d="M1996.77,848.13l-7.35,11.65a.11.11,0,0,1-.19,0l-11.77-42a.11.11,0,0,1,.17-.11l25.79,18.57V720.54a1,1,0,0,0-1-1H1887.18a1,1,0,0,0-1,1V859.11a1,1,0,0,0,1,1h115.24a1,1,0,0,0,1-1V857.4l-6.48-9.27A.1.1,0,0,0,1996.77,848.13Z"/><circle class="cls-3" cx="1944.8" cy="782.43" r="36.54"/><path class="cls-4" d="M1943.62,690.63a96.66,96.66,0,1,1-37.76,7.62,96.32,96.32,0,0,1,37.76-7.62m0-11.45a108.47,108.47,0,1,0,108.46,108.46,108.46,108.46,0,0,0-108.46-108.46Z"/><circle class="cls-3" cx="28.82" cy="787.64" r="108.46"/><path class="cls-4" d="M84.65,846.37l4,5.67v-6.68l-3.9.84A.11.11,0,0,0,84.65,846.37Z"/><path class="cls-4" d="M82,848.13l-7.35,11.65a.11.11,0,0,1-.19,0l-11.77-42a.11.11,0,0,1,.17-.11l25.8,18.57V720.54a1,1,0,0,0-1-1H-27.63a1,1,0,0,0-1,1V859.11a1,1,0,0,0,1,1H87.61a1,1,0,0,0,1-1V857.4l-6.48-9.27A.11.11,0,0,0,82,848.13Z"/><path class="cls-3" d="M95.43,867.14a.11.11,0,0,0,.15,0l2.34-1.64a.09.09,0,0,0,0-.14L88.62,852v5.36Z"/><path class="cls-3" d="M98.22,843.11l-9.6-6.9v9.15l9.56-2.06A.11.11,0,0,0,98.22,843.11Z"/><path class="cls-4" d="M62.82,817.64a.11.11,0,0,0-.17.11l11.77,42a.11.11,0,0,0,.19,0L82,848.13a.11.11,0,0,1,.18,0l6.48,9.27V852l-4-5.67a.11.11,0,0,1,.07-.17l3.9-.84v-9.15Z"/><circle class="cls-3" cx="29.99" cy="782.43" r="36.54"/><ellipse class="cls-4" cx="20.29" cy="770.59" rx="1.49" ry="4.16"/><ellipse class="cls-4" cx="40.28" cy="770.59" rx="1.49" ry="4.16"/><path class="cls-4" d="M30,799.61a22.49,22.49,0,0,1-16.34-7.26A22.26,22.26,0,0,1,9,785.67l1.11-.44-.56.22.56-.22a21.51,21.51,0,0,0,4.38,6.32A20.94,20.94,0,0,0,30,797.83a21.11,21.11,0,0,0,15.52-6.28,21.44,21.44,0,0,0,4.43-6.33l1.11.45a22.77,22.77,0,0,1-4.66,6.69A22.72,22.72,0,0,1,30,799.61Z"/><path class="cls-4" d="M47.45,785.38a.71.71,0,0,1,.51-1,4.43,4.43,0,0,1,2.66.51,4.68,4.68,0,0,1,2.19,1.9.72.72,0,0,1-.39,1h0a.71.71,0,0,1-.9-.44,2.91,2.91,0,0,0-1.22-1.67,2.21,2.21,0,0,0-1.84.17.7.7,0,0,1-.93-.31Z"/><path class="cls-4" d="M12.53,785.38a.7.7,0,0,0-.5-1,4.42,4.42,0,0,0-2.66.51,4.63,4.63,0,0,0-2.19,1.9.71.71,0,0,0,.38,1h0a.71.71,0,0,0,.9-.44,2.87,2.87,0,0,1,1.22-1.67,2.19,2.19,0,0,1,1.83.17.71.71,0,0,0,.94-.31Z"/><g class="cls-18"><path class="cls-8" d="M101.56,836.85,67.39,812.26a.4.4,0,0,0-.62.43l11.36,40.54a.4.4,0,0,0,.72.11l6.76-10.71a.41.41,0,0,1,.67,0l13,18.66a.09.09,0,0,0,.14,0l2.34-1.63a.11.11,0,0,0,0-.15l-13-18.65a.41.41,0,0,1,.25-.63l12.37-2.66A.4.4,0,0,0,101.56,836.85Z"/></g><path class="cls-4" d="M28.82,690.63a97.17,97.17,0,0,1,89.39,59.26,97.34,97.34,0,0,1,0,75.51,96.93,96.93,0,0,1-89.39,59.26,97.17,97.17,0,0,1-89.4-59.26,97.34,97.34,0,0,1,0-75.51,96.93,96.93,0,0,1,89.4-59.26m0-11.45A108.47,108.47,0,1,0,137.28,787.64,108.46,108.46,0,0,0,28.82,679.18Z"/><circle class="cls-3" cx="186.88" cy="1032.37" r="108.46"/><polygon class="cls-4" points="205.97 1111.23 186.76 1098.25 167.13 1110.68 167.79 1018.86 206.63 1019.4 205.97 1111.23"/><path class="cls-5" d="M186.88,983.88a.32.32,0,0,0,0-.63.32.32,0,0,0,0,.63Z"/><g class="cls-19"><rect class="cls-3" x="169.54" y="1031.08" width="1.17" height="82.69"/><rect class="cls-3" x="202.48" y="1031.08" width="1.17" height="82.69"/></g><path class="cls-4" d="M233.73,998.94c0,2.18-3.57,4.09-3.87,6.18s2.58,5,2,7-4.57,2.9-5.46,4.84,1.07,5.5-.09,7.3-5.2,1.48-6.6,3.1-.51,5.56-2.14,7-5.39,0-7.2,1.13-2.05,5.19-4,6.09-5.15-1.56-7.23-1-3.42,4.4-5.57,4.7-4.49-3-6.67-3-4.57,3.26-6.67,3-3.53-4.11-5.57-4.71-5.29,1.85-7.23,1-2.21-4.94-4-6.09-5.58.28-7.2-1.13-.73-5.35-2.14-7-5.43-1.29-6.6-3.11.81-5.32-.09-7.29-4.85-2.76-5.46-4.84,2.29-4.86,2-7-3.86-4-3.86-6.18,3.57-4.08,3.86-6.18-2.57-5-2-7,4.57-2.9,5.46-4.84-1.07-5.49.09-7.29,5.2-1.48,6.6-3.1.51-5.57,2.14-7,5.39,0,7.2-1.12,2-5.2,4-6.1,5.15,1.57,7.23,1,3.42-4.4,5.57-4.71,4.49,3,6.67,3,4.57-3.26,6.67-3,3.53,4.11,5.57,4.71,5.29-1.84,7.23-1,2.21,4.94,4,6.1,5.58-.28,7.2,1.12.73,5.35,2.14,7,5.43,1.29,6.6,3.1-.81,5.33.09,7.29,4.85,2.76,5.46,4.84-2.29,4.87-2,7S233.73,996.76,233.73,998.94Z"/><circle class="cls-4" cx="186.88" cy="998.94" r="39.03"/><path class="cls-3" d="M186.88,961.12a37.71,37.71,0,1,1-14.72,3,37.59,37.59,0,0,1,14.72-3m0-1.21a39,39,0,1,0,39,39,39,39,0,0,0-39-39Z"/><path class="cls-3" d="M186.44,998.2a12.68,12.68,0,0,0-1.66-5.38,10.55,10.55,0,0,0-3.48-3.68A10,10,0,0,0,177,987.6a29.38,29.38,0,0,0-5.67.06l-11.1,1,.35,4,3.55-.31,1.36,15.51-3.55.31.34,4,11.82-1a29.05,29.05,0,0,0,4.38-.62,12.23,12.23,0,0,0,3-1.31,9.3,9.3,0,0,0,2.73-2.41,11.25,11.25,0,0,0,1.73-3.75A13.37,13.37,0,0,0,186.44,998.2Zm-6.92,5.21a5.32,5.32,0,0,1-2.29,2.66,10.78,10.78,0,0,1-4.16,1.06l-1.47.13-1.35-15.51,1.46-.13a10.36,10.36,0,0,1,4.2.35,5.24,5.24,0,0,1,2.8,2.34,10.11,10.11,0,0,1,1.35,4.47A9.69,9.69,0,0,1,179.52,1003.41Z"/><path class="cls-3" d="M213.4,996.38a11.74,11.74,0,0,0-4.43-8.07c-2.48-1.95-5.78-2.84-9.87-2.36s-7.11,2.12-9.06,4.6a11.74,11.74,0,0,0-2.42,8.85,11.89,11.89,0,0,0,4.31,8c2.44,2,5.77,2.93,10,2.44s7.08-2.11,9-4.56A11.69,11.69,0,0,0,213.4,996.38Zm-7.71,6.68a6,6,0,0,1-4.29,2.52,5.93,5.93,0,0,1-4.8-1.51,8.25,8.25,0,0,1-2.47-5.29,8.42,8.42,0,0,1,1.19-6.07,6,6,0,0,1,4.28-2.52,5.88,5.88,0,0,1,4.88,1.58,8.41,8.41,0,0,1,2.42,5.3A8.29,8.29,0,0,1,205.69,1003.06Z"/><path class="cls-4" d="M186.88,935.24a96.66,96.66,0,1,1-37.76,7.62,96.32,96.32,0,0,1,37.76-7.62m0-11.45a108.47,108.47,0,1,0,108.46,108.47A108.46,108.46,0,0,0,186.88,923.79Z"/><circle class="cls-3" cx="509.6" cy="1032.31" r="108.46"/><path class="cls-4" d="M562.74,1092.8l-7.34,11.64a.1.1,0,0,1-.19,0l-11.77-42a.1.1,0,0,1,.16-.11l25.8,18.56V965.2a1,1,0,0,0-1-1H453.16a1,1,0,0,0-1,1v138.58a1,1,0,0,0,1,1H568.4a1,1,0,0,0,1-1v-1.72l-6.48-9.27A.11.11,0,0,0,562.74,1092.8Z"/><path class="cls-4" d="M543.6,1062.31a.1.1,0,0,0-.16.11l11.77,42a.1.1,0,0,0,.19,0l7.34-11.64a.11.11,0,0,1,.18,0l6.48,9.27v-5.35l-4-5.67a.11.11,0,0,1,.06-.17l3.9-.84v-9.16Z"/><circle class="cls-3" cx="510.78" cy="1027.1" r="36.54"/><ellipse class="cls-4" cx="501.07" cy="1015.26" rx="1.49" ry="4.16"/><ellipse class="cls-4" cx="521.06" cy="1015.26" rx="1.49" ry="4.16"/><path class="cls-4" d="M510.78,1044.28a22.51,22.51,0,0,1-16.35-7.26,22.11,22.11,0,0,1-4.6-6.68l1.1-.44-.55.22.55-.22a21.44,21.44,0,0,0,4.39,6.32,22.23,22.23,0,0,0,31,0,22,22,0,0,0,4.44-6.33l1.1.45a22.21,22.21,0,0,1-4.66,6.68A22.68,22.68,0,0,1,510.78,1044.28Z"/><path class="cls-4" d="M528.24,1030.05a.7.7,0,0,1,.5-1,4.41,4.41,0,0,1,2.66.51,4.57,4.57,0,0,1,2.19,1.9.71.71,0,0,1-.38,1h0a.72.72,0,0,1-.91-.44,2.87,2.87,0,0,0-1.22-1.67,2.19,2.19,0,0,0-1.83.17.71.71,0,0,1-.94-.31Z"/><path class="cls-4" d="M493.32,1030.05a.7.7,0,0,0-.5-1,4.41,4.41,0,0,0-2.66.51,4.61,4.61,0,0,0-2.2,1.9.72.72,0,0,0,.39,1h0a.71.71,0,0,0,.9-.44,2.93,2.93,0,0,1,1.23-1.67,2.19,2.19,0,0,1,1.83.17.7.7,0,0,0,.93-.31Z"/><g class="cls-20"><path class="cls-8" d="M582.35,1081.52l-34.18-24.6a.4.4,0,0,0-.62.44l11.36,40.54a.4.4,0,0,0,.73.1l6.75-10.7a.41.41,0,0,1,.67,0l13,18.66a.11.11,0,0,0,.15,0l2.34-1.63a.1.1,0,0,0,0-.15l-13-18.65a.4.4,0,0,1,.24-.63l12.38-2.66A.4.4,0,0,0,582.35,1081.52Z"/></g><path class="cls-4" d="M509.6,935.3a96.7,96.7,0,1,1-37.76,7.62,96.32,96.32,0,0,1,37.76-7.62m0-11.45a108.47,108.47,0,1,0,108.46,108.46A108.46,108.46,0,0,0,509.6,923.85Z"/><circle class="cls-3" cx="1141.6" cy="1032.37" r="108.46"/><polygon class="cls-4" points="1160.68 1111.23 1141.48 1098.25 1121.85 1110.68 1122.52 1018.86 1161.35 1019.4 1160.68 1111.23"/><path class="cls-5" d="M1141.6,983.88a.32.32,0,0,0,0-.63.32.32,0,0,0,0,.63Z"/><g class="cls-21"><rect class="cls-3" x="1124.26" y="1031.08" width="1.17" height="82.69"/><rect class="cls-3" x="1157.2" y="1031.08" width="1.17" height="82.69"/></g><path class="cls-4" d="M1188.45,998.94c0,2.18-3.57,4.09-3.86,6.18s2.57,5,2,7-4.57,2.9-5.46,4.84,1.07,5.5-.09,7.3-5.2,1.48-6.6,3.1-.51,5.56-2.14,7-5.39,0-7.2,1.13-2,5.19-4,6.09-5.15-1.56-7.23-1-3.42,4.4-5.57,4.7-4.49-3-6.67-3-4.57,3.26-6.67,3-3.53-4.11-5.57-4.71-5.29,1.85-7.23,1-2.21-4.94-4-6.09-5.58.28-7.2-1.13-.73-5.35-2.14-7-5.43-1.29-6.6-3.11.81-5.32-.09-7.29-4.85-2.76-5.46-4.84,2.29-4.86,2-7-3.87-4-3.87-6.18,3.57-4.08,3.87-6.18-2.58-5-2-7,4.57-2.9,5.46-4.84-1.07-5.49.09-7.29,5.2-1.48,6.6-3.1.51-5.57,2.14-7,5.39,0,7.2-1.12,2.05-5.2,4-6.1,5.16,1.57,7.23,1,3.42-4.4,5.57-4.71,4.49,3,6.67,3,4.57-3.26,6.67-3,3.53,4.11,5.57,4.71,5.29-1.84,7.23-1,2.21,4.94,4,6.1,5.58-.28,7.2,1.12.73,5.35,2.14,7,5.43,1.29,6.6,3.1-.81,5.33.09,7.29,4.85,2.76,5.46,4.84-2.29,4.87-2,7S1188.45,996.76,1188.45,998.94Z"/><circle class="cls-4" cx="1141.6" cy="998.94" r="39.03"/><path class="cls-3" d="M1141.6,961.12a37.66,37.66,0,1,1-14.72,3,37.59,37.59,0,0,1,14.72-3m0-1.21a39,39,0,1,0,39,39,39,39,0,0,0-39-39Z"/><path class="cls-3" d="M1141.16,998.2a12.68,12.68,0,0,0-1.66-5.38,10.55,10.55,0,0,0-3.48-3.68,10,10,0,0,0-4.25-1.54,29.48,29.48,0,0,0-5.68.06l-11.1,1,.35,4,3.55-.31,1.36,15.51-3.55.31.34,4,11.82-1a29.05,29.05,0,0,0,4.38-.62,12.23,12.23,0,0,0,3-1.31,9.3,9.3,0,0,0,2.73-2.41,11.25,11.25,0,0,0,1.73-3.75A13.37,13.37,0,0,0,1141.16,998.2Zm-6.92,5.21a5.32,5.32,0,0,1-2.29,2.66,10.78,10.78,0,0,1-4.16,1.06l-1.46.13L1125,991.75l1.46-.13a10.33,10.33,0,0,1,4.2.35,5.24,5.24,0,0,1,2.8,2.34,10.11,10.11,0,0,1,1.35,4.47A9.69,9.69,0,0,1,1134.24,1003.41Z"/><path class="cls-3" d="M1168.12,996.38a11.74,11.74,0,0,0-4.43-8.07c-2.48-1.95-5.78-2.84-9.87-2.36s-7.1,2.12-9.06,4.6a11.74,11.74,0,0,0-2.42,8.85,11.89,11.89,0,0,0,4.31,8c2.44,2,5.77,2.93,10,2.44s7.08-2.11,9-4.56A11.69,11.69,0,0,0,1168.12,996.38Zm-7.71,6.68a6,6,0,0,1-4.29,2.52,5.94,5.94,0,0,1-4.8-1.51,8.25,8.25,0,0,1-2.47-5.29,8.42,8.42,0,0,1,1.19-6.07,6,6,0,0,1,4.28-2.52,5.88,5.88,0,0,1,4.88,1.58,9.67,9.67,0,0,1,1.21,11.29Z"/><path class="cls-4" d="M1141.6,935.24a96.66,96.66,0,1,1-37.76,7.62,96.32,96.32,0,0,1,37.76-7.62m0-11.45a108.47,108.47,0,1,0,108.46,108.47A108.46,108.46,0,0,0,1141.6,923.79Z"/><circle class="cls-3" cx="824.73" cy="1032.31" r="108.46"/><g class="cls-22"><path class="cls-4" d="M751.39,1076.91H898.08a5,5,0,0,1,5,5v58.4a0,0,0,0,1,0,0H746.39a0,0,0,0,1,0,0v-58.4A5,5,0,0,1,751.39,1076.91Z" transform="translate(9.32 -6.87) rotate(0.48)"/><path class="cls-8" d="M775.71,1083.19l12.93-85.58a1,1,0,0,1,1.08-.85l95.55,8.44a1,1,0,0,1,.9,1.15L874,1084Z"/></g><path class="cls-4" d="M841.2,1067.56l-.27,0-28.11-4.18a1.83,1.83,0,0,1-1.19-.71,1.85,1.85,0,0,1-.33-1.35l4.18-28.11a1.81,1.81,0,0,1,2-1.52l28.11,4.18a1.82,1.82,0,0,1,1.53,2.06L843,1066A1.82,1.82,0,0,1,841.2,1067.56Zm0-1.61a.2.2,0,0,0,.23-.17l4.18-28.11a.21.21,0,0,0,0-.15.18.18,0,0,0-.13-.08l-28.11-4.18a.2.2,0,0,0-.23.17l-4.18,28.11a.21.21,0,0,0,0,.15.24.24,0,0,0,.14.08Z"/><path class="cls-4" d="M828.08,1062.46h-.18a2.41,2.41,0,0,1-2-1.43l-6.62-15.16a2.41,2.41,0,0,1,4.41-1.93l4.81,11,21.95-34.85a2.41,2.41,0,0,1,4.08,2.57l-24.38,38.7A2.4,2.4,0,0,1,828.08,1062.46Z"/><path class="cls-4" d="M824.73,935.3A96.7,96.7,0,1,1,787,942.92a96.36,96.36,0,0,1,37.76-7.62m0-11.45a108.47,108.47,0,1,0,108.46,108.46A108.46,108.46,0,0,0,824.73,923.85Z"/><circle class="cls-3" cx="1464.32" cy="1032.31" r="108.46"/><path class="cls-4" d="M1517.47,1092.8l-7.35,11.64a.1.1,0,0,1-.19,0l-11.77-42a.1.1,0,0,1,.16-.11l25.8,18.56V965.2a1,1,0,0,0-1-1H1407.88a1,1,0,0,0-1,1v138.58a1,1,0,0,0,1,1h115.24a1,1,0,0,0,1-1v-1.72l-6.48-9.27A.1.1,0,0,0,1517.47,1092.8Z"/><path class="cls-4" d="M1498.32,1062.31a.1.1,0,0,0-.16.11l11.77,42a.1.1,0,0,0,.19,0l7.35-11.64a.1.1,0,0,1,.17,0l6.48,9.27v-5.35l-4-5.67a.11.11,0,0,1,.06-.17l3.9-.84v-9.16Z"/><circle class="cls-3" cx="1465.5" cy="1027.1" r="36.54"/><ellipse class="cls-4" cx="1455.79" cy="1015.26" rx="1.49" ry="4.16"/><ellipse class="cls-4" cx="1475.78" cy="1015.26" rx="1.49" ry="4.16"/><path class="cls-4" d="M1465.5,1044.28a22.51,22.51,0,0,1-16.35-7.26,22.11,22.11,0,0,1-4.6-6.68l1.1-.44-.55.22.55-.22a21.67,21.67,0,0,0,4.39,6.32,22.23,22.23,0,0,0,31,0,21.74,21.74,0,0,0,4.44-6.33l1.1.45a22.21,22.21,0,0,1-4.66,6.68A22.66,22.66,0,0,1,1465.5,1044.28Z"/><path class="cls-4" d="M1483,1030.05a.7.7,0,0,1,.5-1,4.41,4.41,0,0,1,2.66.51,4.57,4.57,0,0,1,2.19,1.9.71.71,0,0,1-.38,1h0a.72.72,0,0,1-.91-.44,2.87,2.87,0,0,0-1.22-1.67,2.19,2.19,0,0,0-1.83.17.71.71,0,0,1-.94-.31Z"/><path class="cls-4" d="M1448,1030.05a.7.7,0,0,0-.5-1,4.41,4.41,0,0,0-2.66.51,4.61,4.61,0,0,0-2.2,1.9.72.72,0,0,0,.39,1h0a.71.71,0,0,0,.9-.44,2.93,2.93,0,0,1,1.23-1.67,2.19,2.19,0,0,1,1.83.17.7.7,0,0,0,.93-.31Z"/><g class="cls-23"><path class="cls-8" d="M1537.07,1081.52l-34.18-24.6a.4.4,0,0,0-.62.44l11.36,40.54a.4.4,0,0,0,.73.1l6.75-10.7a.41.41,0,0,1,.67,0l13,18.66a.11.11,0,0,0,.15,0l2.34-1.63a.1.1,0,0,0,0-.15l-13-18.65a.4.4,0,0,1,.24-.63l12.38-2.66A.4.4,0,0,0,1537.07,1081.52Z"/></g><path class="cls-4" d="M1464.32,935.3a96.7,96.7,0,1,1-37.76,7.62,96.32,96.32,0,0,1,37.76-7.62m0-11.45a108.47,108.47,0,1,0,108.46,108.46,108.46,108.46,0,0,0-108.46-108.46Z"/><circle class="cls-3" cx="1775.46" cy="1032.31" r="108.46"/><g class="cls-24"><path class="cls-4" d="M1702.12,1076.91h146.69a5,5,0,0,1,5,5v58.4a0,0,0,0,1,0,0H1697.12a0,0,0,0,1,0,0v-58.4a5,5,0,0,1,5-5Z" transform="translate(9.35 -14.83) rotate(0.48)"/><path class="cls-8" d="M1726.44,1083.19l12.93-85.58a1,1,0,0,1,1.09-.85l95.54,8.44a1,1,0,0,1,.91,1.15l-12.2,77.67Z"/></g><path class="cls-4" d="M1791.93,1067.56l-.26,0-28.12-4.18a1.83,1.83,0,0,1-1.18-.71,1.81,1.81,0,0,1-.34-1.35l4.18-28.11a1.82,1.82,0,0,1,2.06-1.52l28.11,4.18a1.81,1.81,0,0,1,1.52,2.06l-4.18,28.11A1.82,1.82,0,0,1,1791.93,1067.56Zm0-1.61a.2.2,0,0,0,.23-.17l4.18-28.11a.17.17,0,0,0,0-.15.18.18,0,0,0-.13-.08l-28.11-4.18a.2.2,0,0,0-.23.17l-4.18,28.11a.21.21,0,0,0,0,.15.18.18,0,0,0,.13.08Z"/><path class="cls-4" d="M1778.82,1062.46h-.18a2.41,2.41,0,0,1-2-1.43l-6.63-15.16a2.41,2.41,0,0,1,4.42-1.93l4.8,11,22-34.85a2.41,2.41,0,0,1,4.08,2.57l-24.38,38.7A2.43,2.43,0,0,1,1778.82,1062.46Z"/><path class="cls-4" d="M1775.46,935.3a96.7,96.7,0,1,1-37.76,7.62,96.32,96.32,0,0,1,37.76-7.62m0-11.45a108.47,108.47,0,1,0,108.47,108.46,108.46,108.46,0,0,0-108.47-108.46Z"/><circle class="cls-3" cx="186.88" cy="45.44" r="108.46"/><polygon class="cls-4" points="205.97 124.29 186.76 111.31 167.13 123.75 167.79 31.92 206.63 32.47 205.97 124.29"/><g class="cls-25"><rect class="cls-3" x="169.54" y="44.15" width="1.17" height="82.69"/><rect class="cls-3" x="202.48" y="44.15" width="1.17" height="82.69"/></g><path class="cls-4" d="M233.73,12c0,2.18-3.57,4.08-3.87,6.18s2.58,5,2,7-4.57,2.9-5.46,4.84,1.07,5.49-.09,7.29-5.2,1.48-6.6,3.1-.51,5.57-2.14,7-5.39-.05-7.2,1.12-2.05,5.2-4,6.09-5.15-1.56-7.23-1-3.42,4.4-5.57,4.71-4.49-3-6.67-3-4.57,3.26-6.67,3-3.53-4.11-5.57-4.71-5.29,1.84-7.23,1-2.21-4.93-4-6.09-5.58.28-7.2-1.13-.73-5.35-2.14-7-5.43-1.29-6.6-3.1.81-5.33-.09-7.29-4.85-2.76-5.46-4.84,2.29-4.87,2-7S140,14.19,140,12s3.57-4.09,3.86-6.19-2.57-5-2-7,4.57-2.89,5.46-4.84-1.07-5.49.09-7.29,5.2-1.48,6.6-3.1.51-5.57,2.14-7,5.39,0,7.2-1.13,2-5.19,4-6.09,5.15,1.56,7.23.95,3.42-4.4,5.57-4.71,4.49,3,6.67,3,4.57-3.25,6.67-3,3.53,4.11,5.57,4.71,5.29-1.84,7.23-.95,2.21,4.93,4,6.09,5.58-.28,7.2,1.13.73,5.35,2.14,7,5.43,1.29,6.6,3.1S225.49-8,226.39-6s4.85,2.77,5.46,4.84-2.29,4.87-2,7S233.73,9.82,233.73,12Z"/><circle class="cls-4" cx="186.88" cy="12.01" r="39.03"/><path class="cls-3" d="M186.88-25.82a37.59,37.59,0,0,1,14.72,3A37.78,37.78,0,0,1,224.7,12a37.89,37.89,0,0,1-23.1,34.85,38,38,0,0,1-29.44,0,37.89,37.89,0,0,1-12-8.11A37.71,37.71,0,0,1,149.06,12a37.85,37.85,0,0,1,23.1-34.86,37.59,37.59,0,0,1,14.72-3m0-1.2a39,39,0,1,0,39,39,39,39,0,0,0-39-39Z"/><path class="cls-3" d="M186.44,11.27a12.72,12.72,0,0,0-1.66-5.39A10.55,10.55,0,0,0,181.3,2.2,10.15,10.15,0,0,0,177,.66a29.51,29.51,0,0,0-5.67.07l-11.1,1,.35,4,3.55-.31,1.36,15.5-3.55.31.34,4,11.82-1a30.11,30.11,0,0,0,4.38-.63,12.23,12.23,0,0,0,3-1.31,9.16,9.16,0,0,0,2.73-2.41A11.06,11.06,0,0,0,186,16,13.31,13.31,0,0,0,186.44,11.27Zm-6.92,5.21a5.33,5.33,0,0,1-2.29,2.65,10.61,10.61,0,0,1-4.16,1.06l-1.47.13L170.25,4.81l1.46-.13a10.54,10.54,0,0,1,4.2.35,5.3,5.3,0,0,1,2.8,2.35,10.07,10.07,0,0,1,1.35,4.46A9.74,9.74,0,0,1,179.52,16.48Z"/><path class="cls-3" d="M213.4,9.44A11.74,11.74,0,0,0,209,1.37C206.49-.58,203.19-1.46,199.1-1S192,1.13,190,3.62a11.72,11.72,0,0,0-2.42,8.85,11.89,11.89,0,0,0,4.31,8c2.44,2,5.77,2.93,10,2.43s7.08-2.1,9-4.56A11.69,11.69,0,0,0,213.4,9.44Zm-7.71,6.68a6,6,0,0,1-4.29,2.53,5.93,5.93,0,0,1-4.8-1.52,8.22,8.22,0,0,1-2.47-5.28,8.4,8.4,0,0,1,1.19-6.07,6,6,0,0,1,4.28-2.53,5.88,5.88,0,0,1,4.88,1.58,8.44,8.44,0,0,1,2.42,5.3A8.28,8.28,0,0,1,205.69,16.12Z"/><path class="cls-4" d="M186.88-51.69a96.92,96.92,0,0,1,97,97,97.1,97.1,0,0,1-59.25,89.39,96.94,96.94,0,0,1-106.36-20.79,97.09,97.09,0,0,1,30.84-158,96.49,96.49,0,0,1,37.76-7.61m0-11.45A108.46,108.46,0,1,0,295.34,45.32,108.46,108.46,0,0,0,186.88-63.14Z"/><circle class="cls-3" cx="509.6" cy="45.38" r="108.46"/><path class="cls-4" d="M565.44,104.1l4,5.68V103.1l-3.9.84A.1.1,0,0,0,565.44,104.1Z"/><path class="cls-4" d="M562.74,105.86l-7.34,11.65a.1.1,0,0,1-.19,0l-11.77-42a.11.11,0,0,1,.16-.12l25.8,18.57V-21.73a1,1,0,0,0-1-1H453.16a1,1,0,0,0-1,1V116.84a1,1,0,0,0,1,1H568.4a1,1,0,0,0,1-1v-1.71l-6.48-9.27A.11.11,0,0,0,562.74,105.86Z"/><path class="cls-3" d="M576.22,124.88a.1.1,0,0,0,.14,0l2.34-1.63a.11.11,0,0,0,0-.15l-9.33-13.34v5.35Z"/><path class="cls-3" d="M579,100.85l-9.6-6.91v9.16L579,101A.11.11,0,0,0,579,100.85Z"/><path class="cls-4" d="M543.6,75.37a.11.11,0,0,0-.16.12l11.77,42a.1.1,0,0,0,.19,0l7.34-11.65a.11.11,0,0,1,.18,0l6.48,9.27v-5.35l-4-5.68a.1.1,0,0,1,.06-.16l3.9-.84V93.94Z"/><circle class="cls-3" cx="510.78" cy="40.16" r="36.54"/><ellipse class="cls-4" cx="501.07" cy="28.33" rx="1.49" ry="4.16"/><ellipse class="cls-4" cx="521.06" cy="28.33" rx="1.49" ry="4.16"/><path class="cls-4" d="M510.78,57.35a22.51,22.51,0,0,1-16.35-7.26,22.08,22.08,0,0,1-4.6-6.69l1.1-.44-.55.22.55-.22a21.54,21.54,0,0,0,4.39,6.33,22.24,22.24,0,0,0,31,0A22,22,0,0,0,530.73,43l1.1.44a22.18,22.18,0,0,1-4.66,6.69A22.68,22.68,0,0,1,510.78,57.35Z"/><path class="cls-4" d="M528.24,43.12a.7.7,0,0,1,.5-1,4.46,4.46,0,0,1,2.66.5,4.58,4.58,0,0,1,2.19,1.91.7.7,0,0,1-.38,1h0a.71.71,0,0,1-.91-.43,2.84,2.84,0,0,0-1.22-1.67,2.15,2.15,0,0,0-1.83.17.72.72,0,0,1-.94-.32Z"/><path class="cls-4" d="M493.32,43.12a.7.7,0,0,0-.5-1,4.46,4.46,0,0,0-2.66.5,4.62,4.62,0,0,0-2.2,1.91.71.71,0,0,0,.39,1h0a.7.7,0,0,0,.9-.43,2.89,2.89,0,0,1,1.23-1.67,2.15,2.15,0,0,1,1.83.17.71.71,0,0,0,.93-.32Z"/><g class="cls-26"><path class="cls-8" d="M582.35,94.58,548.17,70a.4.4,0,0,0-.62.43L558.91,111a.4.4,0,0,0,.73.11l6.75-10.71a.4.4,0,0,1,.67,0l13,18.65a.11.11,0,0,0,.15,0l2.34-1.64a.1.1,0,0,0,0-.15l-13-18.65a.39.39,0,0,1,.24-.62L582.2,95.3A.4.4,0,0,0,582.35,94.58Z"/></g><path class="cls-4" d="M509.6-51.64a96.93,96.93,0,0,1,97,97,97.1,97.1,0,0,1-59.25,89.39A96.94,96.94,0,0,1,441,114,97.09,97.09,0,0,1,471.84-44a96.5,96.5,0,0,1,37.76-7.62m0-11.44A108.46,108.46,0,1,0,618.06,45.38,108.46,108.46,0,0,0,509.6-63.08Z"/><circle class="cls-3" cx="1141.6" cy="45.44" r="108.46"/><polygon class="cls-4" points="1160.68 124.29 1141.48 111.31 1121.85 123.75 1122.52 31.92 1161.35 32.47 1160.68 124.29"/><g class="cls-27"><rect class="cls-3" x="1124.26" y="44.15" width="1.17" height="82.69"/><rect class="cls-3" x="1157.2" y="44.15" width="1.17" height="82.69"/></g><path class="cls-4" d="M1188.45,12c0,2.18-3.57,4.08-3.86,6.18s2.57,5,2,7-4.57,2.9-5.46,4.84,1.07,5.49-.09,7.29-5.2,1.48-6.6,3.1-.51,5.57-2.14,7-5.39-.05-7.2,1.12-2,5.2-4,6.09-5.15-1.56-7.23-1-3.42,4.4-5.57,4.71-4.49-3-6.67-3-4.57,3.26-6.67,3-3.53-4.11-5.57-4.71-5.29,1.84-7.23,1-2.21-4.93-4-6.09-5.58.28-7.2-1.13-.73-5.35-2.14-7-5.43-1.29-6.6-3.1.81-5.33-.09-7.29-4.85-2.76-5.46-4.84,2.29-4.87,2-7-3.87-4-3.87-6.18,3.57-4.09,3.87-6.19-2.58-5-2-7,4.57-2.89,5.46-4.84-1.07-5.49.09-7.29,5.2-1.48,6.6-3.1.51-5.57,2.14-7,5.39,0,7.2-1.13,2.05-5.19,4-6.09,5.16,1.56,7.23.95,3.42-4.4,5.57-4.71,4.49,3,6.67,3,4.57-3.25,6.67-3,3.53,4.11,5.57,4.71,5.29-1.84,7.23-.95,2.21,4.93,4,6.09,5.58-.28,7.2,1.13.73,5.35,2.14,7,5.43,1.29,6.6,3.1-.81,5.33.09,7.29,4.85,2.77,5.46,4.84-2.29,4.87-2,7S1188.45,9.82,1188.45,12Z"/><circle class="cls-4" cx="1141.6" cy="12.01" r="39.03"/><path class="cls-3" d="M1141.6-25.82a37.59,37.59,0,0,1,14.72,3,37.89,37.89,0,0,1,12,8.11A37.71,37.71,0,0,1,1179.42,12a37.85,37.85,0,0,1-23.1,34.85,38,38,0,0,1-29.44,0A37.78,37.78,0,0,1,1103.78,12a37.89,37.89,0,0,1,23.1-34.86,37.59,37.59,0,0,1,14.72-3m0-1.2a39,39,0,1,0,39,39,39,39,0,0,0-39-39Z"/><path class="cls-3" d="M1141.16,11.27a12.72,12.72,0,0,0-1.66-5.39A10.55,10.55,0,0,0,1136,2.2a10.16,10.16,0,0,0-4.25-1.54,29.61,29.61,0,0,0-5.68.07l-11.1,1,.35,4,3.55-.31,1.36,15.5-3.55.31.34,4,11.82-1a30.11,30.11,0,0,0,4.38-.63,12.23,12.23,0,0,0,3-1.31,9.16,9.16,0,0,0,2.73-2.41,11.06,11.06,0,0,0,1.73-3.75A13.31,13.31,0,0,0,1141.16,11.27Zm-6.92,5.21a5.33,5.33,0,0,1-2.29,2.65,10.61,10.61,0,0,1-4.16,1.06l-1.46.13L1125,4.81l1.46-.13a10.5,10.5,0,0,1,4.2.35,5.3,5.3,0,0,1,2.8,2.35,10.07,10.07,0,0,1,1.35,4.46A9.74,9.74,0,0,1,1134.24,16.48Z"/><path class="cls-3" d="M1168.12,9.44a11.74,11.74,0,0,0-4.43-8.07c-2.48-1.95-5.78-2.83-9.87-2.35s-7.1,2.11-9.06,4.6a11.72,11.72,0,0,0-2.42,8.85,11.89,11.89,0,0,0,4.31,8c2.44,2,5.77,2.93,10,2.43s7.08-2.1,9-4.56A11.69,11.69,0,0,0,1168.12,9.44Zm-7.71,6.68a6,6,0,0,1-4.29,2.53,5.94,5.94,0,0,1-4.8-1.52,8.22,8.22,0,0,1-2.47-5.28A8.4,8.4,0,0,1,1150,5.78a6,6,0,0,1,4.28-2.53,5.88,5.88,0,0,1,4.88,1.58,8.39,8.39,0,0,1,2.42,5.3A8.28,8.28,0,0,1,1160.41,16.12Z"/><path class="cls-4" d="M1141.6-51.69a96.59,96.59,0,0,1,68.6,28.41,97.07,97.07,0,0,1-30.84,158A96.94,96.94,0,0,1,1073,113.92a97.09,97.09,0,0,1,30.84-158,96.49,96.49,0,0,1,37.76-7.61m0-11.45A108.46,108.46,0,1,0,1250.06,45.32,108.46,108.46,0,0,0,1141.6-63.14Z"/><circle class="cls-3" cx="824.73" cy="45.38" r="108.46"/><g class="cls-28"><path class="cls-4" d="M751.39,90H898.08a5,5,0,0,1,5,5v58.4a0,0,0,0,1,0,0H746.39a0,0,0,0,1,0,0V95A5,5,0,0,1,751.39,90Z" transform="translate(1.05 -6.9) rotate(0.48)"/><path class="cls-3" d="M875.44,99.75h0L774,98.9a2.41,2.41,0,0,1,0-4.82h0l101.43.85a2.41,2.41,0,0,1,0,4.82Z"/><path class="cls-8" d="M775.71,96.26l12.93-85.59a1,1,0,0,1,1.08-.85l95.55,8.44a1,1,0,0,1,.9,1.16L874,97.08Z"/></g><path class="cls-4" d="M841.2,80.62a1.23,1.23,0,0,1-.27,0l-28.11-4.18a1.79,1.79,0,0,1-1.19-.71,1.82,1.82,0,0,1-.33-1.34l4.18-28.11a1.81,1.81,0,0,1,2-1.53l28.11,4.19a1.81,1.81,0,0,1,1.53,2L843,79.08A1.81,1.81,0,0,1,841.2,80.62Zm0-1.61a.2.2,0,0,0,.23-.16l4.18-28.12a.22.22,0,0,0,0-.15.18.18,0,0,0-.13-.07L817.3,46.32a.2.2,0,0,0-.23.17l-4.18,28.12a.2.2,0,0,0,0,.14.24.24,0,0,0,.14.08Z"/><path class="cls-4" d="M828.08,75.52h-.18a2.42,2.42,0,0,1-2-1.44l-6.62-15.15A2.41,2.41,0,1,1,823.66,57l4.81,11,21.95-34.84a2.41,2.41,0,1,1,4.08,2.57L830.12,74.4A2.4,2.4,0,0,1,828.08,75.52Z"/><path class="cls-4" d="M824.73-51.64a96.93,96.93,0,0,1,97,97,96.92,96.92,0,0,1-97,97A96.7,96.7,0,0,1,756.13,114,97.09,97.09,0,0,1,787-44a96.5,96.5,0,0,1,37.76-7.62m0-11.44A108.46,108.46,0,1,0,933.19,45.38,108.46,108.46,0,0,0,824.73-63.08Z"/><circle class="cls-3" cx="1464.32" cy="45.38" r="108.46"/><path class="cls-4" d="M1520.16,104.1l4,5.68V103.1l-3.9.84A.1.1,0,0,0,1520.16,104.1Z"/><path class="cls-4" d="M1517.47,105.86l-7.35,11.65a.1.1,0,0,1-.19,0l-11.77-42a.11.11,0,0,1,.16-.12l25.8,18.57V-21.73a1,1,0,0,0-1-1H1407.88a1,1,0,0,0-1,1V116.84a1,1,0,0,0,1,1h115.24a1,1,0,0,0,1-1v-1.71l-6.48-9.27A.1.1,0,0,0,1517.47,105.86Z"/><path class="cls-3" d="M1530.94,124.88a.1.1,0,0,0,.14,0l2.34-1.63a.11.11,0,0,0,0-.15l-9.33-13.34v5.35Z"/><path class="cls-3" d="M1533.72,100.85l-9.6-6.91v9.16l9.56-2.06A.11.11,0,0,0,1533.72,100.85Z"/><path class="cls-4" d="M1498.32,75.37a.11.11,0,0,0-.16.12l11.77,42a.1.1,0,0,0,.19,0l7.35-11.65a.1.1,0,0,1,.17,0l6.48,9.27v-5.35l-4-5.68a.1.1,0,0,1,.06-.16l3.9-.84V93.94Z"/><circle class="cls-3" cx="1465.5" cy="40.16" r="36.54"/><ellipse class="cls-4" cx="1455.79" cy="28.33" rx="1.49" ry="4.16"/><ellipse class="cls-4" cx="1475.78" cy="28.33" rx="1.49" ry="4.16"/><path class="cls-4" d="M1465.5,57.35a22.51,22.51,0,0,1-16.35-7.26,22.08,22.08,0,0,1-4.6-6.69l1.1-.44-.55.22.55-.22a21.79,21.79,0,0,0,4.39,6.33,22.24,22.24,0,0,0,31,0,21.77,21.77,0,0,0,4.44-6.32l1.1.44a22.18,22.18,0,0,1-4.66,6.69A22.66,22.66,0,0,1,1465.5,57.35Z"/><path class="cls-4" d="M1483,43.12a.7.7,0,0,1,.5-1,4.46,4.46,0,0,1,2.66.5,4.58,4.58,0,0,1,2.19,1.91.7.7,0,0,1-.38,1h0a.71.71,0,0,1-.91-.43,2.84,2.84,0,0,0-1.22-1.67,2.15,2.15,0,0,0-1.83.17.72.72,0,0,1-.94-.32Z"/><path class="cls-4" d="M1448,43.12a.7.7,0,0,0-.5-1,4.46,4.46,0,0,0-2.66.5,4.62,4.62,0,0,0-2.2,1.91.71.71,0,0,0,.39,1h0a.7.7,0,0,0,.9-.43,2.89,2.89,0,0,1,1.23-1.67,2.15,2.15,0,0,1,1.83.17.71.71,0,0,0,.93-.32Z"/><g class="cls-29"><path class="cls-8" d="M1537.07,94.58,1502.89,70a.4.4,0,0,0-.62.43L1513.63,111a.4.4,0,0,0,.73.11l6.75-10.71a.4.4,0,0,1,.67,0l13,18.65a.11.11,0,0,0,.15,0l2.34-1.64a.1.1,0,0,0,0-.15l-13-18.65a.39.39,0,0,1,.24-.62l12.38-2.67A.4.4,0,0,0,1537.07,94.58Z"/></g><path class="cls-4" d="M1464.32-51.64a96.66,96.66,0,0,1,68.6,28.42,97.07,97.07,0,0,1-30.84,158A96.94,96.94,0,0,1,1395.72,114a97.09,97.09,0,0,1,30.84-158,96.5,96.5,0,0,1,37.76-7.62m0-11.44A108.46,108.46,0,1,0,1572.78,45.38,108.46,108.46,0,0,0,1464.32-63.08Z"/><circle class="cls-3" cx="1775.46" cy="45.38" r="108.46"/><g class="cls-30"><path class="cls-4" d="M1702.12,90h146.69a5,5,0,0,1,5,5v58.4a0,0,0,0,1,0,0H1697.12a0,0,0,0,1,0,0V95a5,5,0,0,1,5-5Z" transform="translate(1.08 -14.87) rotate(0.48)"/><path class="cls-3" d="M1826.18,99.75h0l-101.43-.85a2.41,2.41,0,0,1,0-4.82h0l101.43.85a2.41,2.41,0,0,1,0,4.82Z"/><path class="cls-8" d="M1726.44,96.26l12.93-85.59a1,1,0,0,1,1.09-.85L1836,18.26a1,1,0,0,1,.91,1.16l-12.2,77.66Z"/></g><path class="cls-4" d="M1791.93,80.62a1.18,1.18,0,0,1-.26,0l-28.12-4.18a1.81,1.81,0,0,1-1.52-2l4.18-28.11a1.82,1.82,0,0,1,2.06-1.53l28.11,4.19a1.79,1.79,0,0,1,1.52,2l-4.18,28.11A1.81,1.81,0,0,1,1791.93,80.62Zm0-1.61a.2.2,0,0,0,.23-.16l4.18-28.12a.18.18,0,0,0,0-.15.18.18,0,0,0-.13-.07L1768,46.32a.21.21,0,0,0-.23.17l-4.18,28.12a.2.2,0,0,0,0,.14.18.18,0,0,0,.13.08Z"/><path class="cls-4" d="M1778.82,75.52h-.18a2.42,2.42,0,0,1-2-1.44L1770,58.93A2.41,2.41,0,1,1,1774.4,57l4.8,11,22-34.84a2.41,2.41,0,1,1,4.08,2.57L1780.86,74.4A2.43,2.43,0,0,1,1778.82,75.52Z"/><path class="cls-4" d="M1775.46-51.64a96.93,96.93,0,0,1,97,97,97.13,97.13,0,0,1-59.26,89.39A96.94,96.94,0,0,1,1706.86,114,97.09,97.09,0,0,1,1737.7-44a96.54,96.54,0,0,1,37.76-7.62m0-11.44A108.46,108.46,0,1,0,1883.93,45.38,108.46,108.46,0,0,0,1775.46-63.08Z"/><circle class="cls-3" cx="666.18" cy="291.73" r="108.46"/><polygon class="cls-4" points="685.27 370.59 666.06 357.61 646.43 370.05 647.1 278.22 685.93 278.76 685.27 370.59"/><path class="cls-5" d="M666.18,243.24a.32.32,0,0,0,0-.63.32.32,0,0,0,0,.63Z"/><g class="cls-31"><rect class="cls-3" x="648.84" y="290.45" width="1.17" height="82.69"/><rect class="cls-3" x="681.78" y="290.45" width="1.17" height="82.69"/></g><path class="cls-4" d="M713,258.3c0,2.18-3.56,4.09-3.86,6.19s2.58,5,2,7-4.57,2.89-5.46,4.83,1.07,5.5-.09,7.3-5.2,1.48-6.6,3.1-.51,5.56-2.14,7-5.39,0-7.2,1.13-2,5.19-4,6.09-5.15-1.56-7.23-.95-3.42,4.4-5.57,4.7-4.49-3-6.67-3-4.57,3.26-6.67,3-3.53-4.1-5.57-4.7-5.29,1.84-7.23.95-2.21-4.93-4-6.09-5.58.28-7.2-1.13-.73-5.35-2.14-7-5.43-1.29-6.6-3.1.81-5.33-.09-7.3-4.85-2.76-5.45-4.83,2.28-4.87,2-7-3.87-4-3.87-6.19,3.57-4.08,3.87-6.18-2.58-5-2-7,4.56-2.9,5.45-4.84-1.07-5.49.09-7.29,5.2-1.48,6.6-3.1.52-5.57,2.14-7,5.39,0,7.2-1.12,2-5.2,4-6.1,5.16,1.57,7.23,1,3.42-4.4,5.57-4.71,4.49,3,6.67,3,4.57-3.26,6.67-3,3.53,4.11,5.57,4.71,5.29-1.84,7.23-.95,2.21,4.93,4,6.09,5.58-.28,7.2,1.12.73,5.35,2.14,7,5.43,1.29,6.6,3.1-.81,5.33.09,7.29,4.85,2.76,5.46,4.84-2.29,4.87-2,7S713,256.12,713,258.3Z"/><circle class="cls-4" cx="666.18" cy="258.3" r="39.03"/><path class="cls-3" d="M666.18,220.48a37.66,37.66,0,1,1-14.72,3,37.59,37.59,0,0,1,14.72-3m0-1.21a39,39,0,1,0,39,39,39,39,0,0,0-39-39Z"/><path class="cls-3" d="M665.74,257.57a12.72,12.72,0,0,0-1.66-5.39,10.55,10.55,0,0,0-3.48-3.68,10,10,0,0,0-4.25-1.54,30.32,30.32,0,0,0-5.68.06l-11.1,1,.35,3.95,3.55-.31,1.36,15.51-3.55.31.34,4,11.82-1a29.05,29.05,0,0,0,4.38-.62,12.23,12.23,0,0,0,3-1.31,9.3,9.3,0,0,0,2.73-2.41,11.25,11.25,0,0,0,1.73-3.75A13.31,13.31,0,0,0,665.74,257.57Zm-6.92,5.21a5.33,5.33,0,0,1-2.29,2.65,10.73,10.73,0,0,1-4.16,1.06l-1.46.13-1.36-15.51L651,251a10.5,10.5,0,0,1,4.2.35,5.26,5.26,0,0,1,2.8,2.35,10.07,10.07,0,0,1,1.35,4.46A9.75,9.75,0,0,1,658.82,262.78Z"/><path class="cls-3" d="M692.7,255.74a11.74,11.74,0,0,0-4.43-8.07c-2.48-1.95-5.78-2.83-9.87-2.35s-7.1,2.11-9.06,4.59a11.75,11.75,0,0,0-2.42,8.85,11.87,11.87,0,0,0,4.31,8c2.44,2,5.77,2.93,10,2.44s7.08-2.11,9-4.56A11.69,11.69,0,0,0,692.7,255.74ZM685,262.42a6,6,0,0,1-4.29,2.52,5.87,5.87,0,0,1-4.79-1.51,8.21,8.21,0,0,1-2.48-5.29,8.43,8.43,0,0,1,1.19-6.06,6,6,0,0,1,4.28-2.53,5.88,5.88,0,0,1,4.88,1.58A9.67,9.67,0,0,1,685,262.42Z"/><path class="cls-4" d="M666.18,194.6a96.66,96.66,0,1,1-37.76,7.62,96.5,96.5,0,0,1,37.76-7.62m0-11.45A108.47,108.47,0,1,0,774.64,291.62,108.46,108.46,0,0,0,666.18,183.15Z"/><circle class="cls-3" cx="349.31" cy="291.68" r="108.46"/><g class="cls-32"><path class="cls-4" d="M276,336.28H422.66a5,5,0,0,1,5,5v58.4a0,0,0,0,1,0,0H271a0,0,0,0,1,0,0v-58.4A5,5,0,0,1,276,336.28Z" transform="translate(3.09 -2.91) rotate(0.48)"/><path class="cls-3" d="M400,346.05h0l-101.43-.85a2.42,2.42,0,0,1,0-4.83h0l101.43.85a2.42,2.42,0,0,1,0,4.83Z"/><path class="cls-8" d="M300.29,342.55,313.22,257a1,1,0,0,1,1.08-.85l95.55,8.44a1,1,0,0,1,.9,1.16l-12.19,77.66Z"/></g><path class="cls-4" d="M365.78,326.92l-.27,0-28.11-4.18a1.79,1.79,0,0,1-1.19-.71,1.84,1.84,0,0,1-.33-1.34l4.18-28.12a1.81,1.81,0,0,1,2.05-1.52l28.11,4.18a1.82,1.82,0,0,1,1.53,2.06l-4.18,28.11A1.81,1.81,0,0,1,365.78,326.92Zm0-1.61a.2.2,0,0,0,.23-.17L370.16,297a.21.21,0,0,0,0-.15.18.18,0,0,0-.13-.08l-28.11-4.18a.2.2,0,0,0-.23.17l-4.18,28.11a.21.21,0,0,0,0,.15.24.24,0,0,0,.14.08Z"/><path class="cls-4" d="M352.66,321.82h-.18a2.42,2.42,0,0,1-2-1.44l-6.62-15.16a2.41,2.41,0,0,1,4.42-1.93l4.8,11L375,279.43a2.41,2.41,0,0,1,4.08,2.57L354.7,320.7A2.4,2.4,0,0,1,352.66,321.82Z"/><path class="cls-4" d="M349.31,194.66a96.66,96.66,0,1,1-37.76,7.62,96.36,96.36,0,0,1,37.76-7.62m0-11.45A108.47,108.47,0,1,0,457.77,291.68,108.46,108.46,0,0,0,349.31,183.21Z"/><circle class="cls-3" cx="988.9" cy="291.68" r="108.46"/><path class="cls-4" d="M1044.74,350.4l4,5.67v-6.68l-3.9.84A.11.11,0,0,0,1044.74,350.4Z"/><path class="cls-4" d="M1042.05,352.16l-7.35,11.65a.11.11,0,0,1-.19,0l-11.77-42a.1.1,0,0,1,.16-.11l25.8,18.57V224.57a1,1,0,0,0-1-1H932.46a1,1,0,0,0-1,1V363.14a1,1,0,0,0,1,1H1047.7a1,1,0,0,0,1-1v-1.71l-6.48-9.27A.1.1,0,0,0,1042.05,352.16Z"/><path class="cls-3" d="M1055.52,371.17a.1.1,0,0,0,.14,0l2.34-1.64a.1.1,0,0,0,0-.14l-9.33-13.35v5.36Z"/><path class="cls-3" d="M1058.3,347.14l-9.6-6.9v9.15l9.56-2.06A.1.1,0,0,0,1058.3,347.14Z"/><path class="cls-4" d="M1022.9,321.67a.1.1,0,0,0-.16.11l11.77,42a.11.11,0,0,0,.19,0l7.35-11.65a.1.1,0,0,1,.17,0l6.48,9.27v-5.36l-4-5.67a.11.11,0,0,1,.06-.17l3.9-.84v-9.15Z"/><circle class="cls-3" cx="990.08" cy="286.46" r="36.54"/><ellipse class="cls-4" cx="980.38" cy="274.63" rx="1.49" ry="4.16"/><ellipse class="cls-4" cx="1000.36" cy="274.63" rx="1.49" ry="4.16"/><path class="cls-4" d="M990.08,303.64a22.47,22.47,0,0,1-16.34-7.26,21.9,21.9,0,0,1-4.61-6.68l1.1-.44-.55.22.55-.22a21.67,21.67,0,0,0,4.39,6.32,22.23,22.23,0,0,0,31,0,21.6,21.6,0,0,0,4.44-6.33l1.1.45a22.31,22.31,0,0,1-4.66,6.69A22.65,22.65,0,0,1,990.08,303.64Z"/><path class="cls-4" d="M1007.54,289.41a.7.7,0,0,1,.5-1,4.41,4.41,0,0,1,2.66.51,4.63,4.63,0,0,1,2.19,1.9.71.71,0,0,1-.38,1h0a.72.72,0,0,1-.91-.44,2.82,2.82,0,0,0-1.22-1.66,2.15,2.15,0,0,0-1.83.16.7.7,0,0,1-.93-.31Z"/><path class="cls-4" d="M972.62,289.41a.7.7,0,0,0-.5-1,4.41,4.41,0,0,0-2.66.51,4.72,4.72,0,0,0-2.2,1.9.72.72,0,0,0,.39,1h0a.71.71,0,0,0,.9-.44,2.87,2.87,0,0,1,1.23-1.66,2.15,2.15,0,0,1,1.83.16.7.7,0,0,0,.93-.31Z"/><g class="cls-33"><path class="cls-8" d="M1061.65,340.88l-34.18-24.59a.4.4,0,0,0-.62.43l11.36,40.54a.4.4,0,0,0,.73.11l6.75-10.71a.41.41,0,0,1,.67,0l13,18.66a.1.1,0,0,0,.15,0l2.34-1.63a.11.11,0,0,0,0-.15l-13-18.65a.4.4,0,0,1,.24-.63l12.38-2.66A.4.4,0,0,0,1061.65,340.88Z"/></g><path class="cls-4" d="M988.9,194.66a96.66,96.66,0,1,1-37.76,7.62,96.32,96.32,0,0,1,37.76-7.62m0-11.45a108.47,108.47,0,1,0,108.46,108.47A108.46,108.46,0,0,0,988.9,183.21Z"/><circle class="cls-3" cx="1620.9" cy="291.73" r="108.46"/><polygon class="cls-4" points="1639.99 370.59 1620.78 357.61 1601.15 370.05 1601.82 278.22 1640.65 278.76 1639.99 370.59"/><path class="cls-5" d="M1620.9,243.24a.32.32,0,0,0,0-.63.32.32,0,0,0,0,.63Z"/><g class="cls-34"><rect class="cls-3" x="1603.57" y="290.45" width="1.17" height="82.69"/><rect class="cls-3" x="1636.5" y="290.45" width="1.17" height="82.69"/></g><path class="cls-4" d="M1667.75,258.3c0,2.18-3.56,4.09-3.86,6.19s2.58,5,2,7-4.57,2.89-5.46,4.83,1.07,5.5-.09,7.3-5.2,1.48-6.6,3.1-.51,5.56-2.14,7-5.39,0-7.2,1.13-2.05,5.19-4,6.09-5.15-1.56-7.23-.95-3.42,4.4-5.57,4.7-4.49-3-6.67-3-4.57,3.26-6.67,3-3.52-4.1-5.57-4.7-5.29,1.84-7.23.95-2.21-4.93-4-6.09-5.58.28-7.2-1.13-.73-5.35-2.14-7-5.43-1.29-6.6-3.1.81-5.33-.09-7.3-4.85-2.76-5.45-4.83,2.28-4.87,2-7-3.87-4-3.87-6.19,3.57-4.08,3.87-6.18-2.58-5-2-7,4.57-2.9,5.45-4.84-1.07-5.49.09-7.29,5.2-1.48,6.6-3.1.52-5.57,2.14-7,5.39,0,7.21-1.12,2-5.2,4-6.1,5.16,1.57,7.23,1,3.42-4.4,5.57-4.71,4.49,3,6.67,3,4.57-3.26,6.67-3,3.53,4.11,5.57,4.71,5.29-1.84,7.23-.95,2.21,4.93,4,6.09,5.58-.28,7.2,1.12.73,5.35,2.14,7,5.43,1.29,6.6,3.1-.81,5.33.09,7.29,4.85,2.76,5.46,4.84-2.29,4.87-2,7S1667.75,256.12,1667.75,258.3Z"/><circle class="cls-4" cx="1620.9" cy="258.3" r="39.03"/><path class="cls-3" d="M1620.9,220.48a37.66,37.66,0,1,1-14.72,3,37.59,37.59,0,0,1,14.72-3m0-1.21a39,39,0,1,0,39,39,39,39,0,0,0-39-39Z"/><path class="cls-3" d="M1620.46,257.57a12.58,12.58,0,0,0-1.66-5.39,10.55,10.55,0,0,0-3.48-3.68,10,10,0,0,0-4.25-1.54,30.32,30.32,0,0,0-5.68.06l-11.1,1,.35,3.95,3.55-.31,1.36,15.51-3.55.31.34,4,11.82-1a29.05,29.05,0,0,0,4.38-.62,12.23,12.23,0,0,0,3-1.31,9.18,9.18,0,0,0,2.73-2.41,11.25,11.25,0,0,0,1.73-3.75A13.31,13.31,0,0,0,1620.46,257.57Zm-6.92,5.21a5.33,5.33,0,0,1-2.29,2.65,10.73,10.73,0,0,1-4.16,1.06l-1.46.13-1.36-15.51,1.46-.13a10.5,10.5,0,0,1,4.2.35,5.26,5.26,0,0,1,2.8,2.35,9.94,9.94,0,0,1,1.35,4.46A9.63,9.63,0,0,1,1613.54,262.78Z"/><path class="cls-3" d="M1647.42,255.74a11.74,11.74,0,0,0-4.43-8.07c-2.48-1.95-5.78-2.83-9.87-2.35s-7.1,2.11-9.06,4.59a11.75,11.75,0,0,0-2.42,8.85,11.87,11.87,0,0,0,4.31,8c2.44,2,5.77,2.93,10,2.44s7.08-2.11,9-4.56A11.72,11.72,0,0,0,1647.42,255.74Zm-7.71,6.68a6,6,0,0,1-4.29,2.52,5.87,5.87,0,0,1-4.79-1.51,8.21,8.21,0,0,1-2.48-5.29,8.43,8.43,0,0,1,1.19-6.06,6,6,0,0,1,4.28-2.53,5.88,5.88,0,0,1,4.88,1.58,9.67,9.67,0,0,1,1.21,11.29Z"/><path class="cls-4" d="M1620.9,194.6a96.66,96.66,0,1,1-37.76,7.62,96.5,96.5,0,0,1,37.76-7.62m0-11.45a108.47,108.47,0,1,0,108.46,108.47A108.46,108.46,0,0,0,1620.9,183.15Z"/><circle class="cls-3" cx="1304.03" cy="291.68" r="108.46"/><g class="cls-35"><path class="cls-4" d="M1230.69,336.28h146.69a5,5,0,0,1,5,5v58.4a0,0,0,0,1,0,0H1225.69a0,0,0,0,1,0,0v-58.4A5,5,0,0,1,1230.69,336.28Z" transform="translate(3.13 -10.91) rotate(0.48)"/><path class="cls-3" d="M1354.74,346.05h0l-101.43-.85a2.42,2.42,0,0,1,0-4.83h0l101.43.85a2.42,2.42,0,0,1,0,4.83Z"/><path class="cls-8" d="M1255,342.55,1267.94,257a1,1,0,0,1,1.08-.85l95.55,8.44a1,1,0,0,1,.9,1.16l-12.19,77.66Z"/></g><path class="cls-4" d="M1320.5,326.92l-.27,0-28.11-4.18a1.79,1.79,0,0,1-1.19-.71,1.84,1.84,0,0,1-.33-1.34l4.18-28.12a1.81,1.81,0,0,1,2-1.52l28.12,4.18a1.82,1.82,0,0,1,1.52,2.06l-4.18,28.11A1.81,1.81,0,0,1,1320.5,326.92Zm0-1.61a.2.2,0,0,0,.23-.17l4.18-28.11a.21.21,0,0,0,0-.15.18.18,0,0,0-.13-.08l-28.11-4.18a.21.21,0,0,0-.23.17l-4.18,28.11a.21.21,0,0,0,0,.15.24.24,0,0,0,.14.08Z"/><path class="cls-4" d="M1307.38,321.82h-.18a2.42,2.42,0,0,1-2-1.44l-6.62-15.16a2.41,2.41,0,0,1,4.42-1.93l4.8,11,22-34.85a2.41,2.41,0,0,1,4.08,2.57l-24.38,38.7A2.4,2.4,0,0,1,1307.38,321.82Z"/><path class="cls-4" d="M1304,194.66a96.66,96.66,0,1,1-37.76,7.62,96.32,96.32,0,0,1,37.76-7.62m0-11.45a108.47,108.47,0,1,0,108.46,108.47A108.46,108.46,0,0,0,1304,183.21Z"/><circle class="cls-3" cx="1943.62" cy="291.68" r="108.46"/><path class="cls-4" d="M1996.77,352.16l-7.35,11.65a.11.11,0,0,1-.19,0l-11.77-42a.11.11,0,0,1,.17-.11l25.79,18.57V224.57a1,1,0,0,0-1-1H1887.18a1,1,0,0,0-1,1V363.14a1,1,0,0,0,1,1h115.24a1,1,0,0,0,1-1v-1.71l-6.48-9.27A.1.1,0,0,0,1996.77,352.16Z"/><circle class="cls-3" cx="1944.8" cy="286.46" r="36.54"/><path class="cls-4" d="M1943.62,194.66a96.66,96.66,0,1,1-37.76,7.62,96.32,96.32,0,0,1,37.76-7.62m0-11.45a108.47,108.47,0,1,0,108.46,108.47,108.46,108.46,0,0,0-108.46-108.47Z"/><circle class="cls-3" cx="28.82" cy="291.68" r="108.46"/><path class="cls-4" d="M84.65,350.4l4,5.67v-6.68l-3.9.84A.11.11,0,0,0,84.65,350.4Z"/><path class="cls-4" d="M82,352.16l-7.35,11.65a.11.11,0,0,1-.19,0l-11.77-42a.11.11,0,0,1,.17-.11l25.8,18.57V224.57a1,1,0,0,0-1-1H-27.63a1,1,0,0,0-1,1V363.14a1,1,0,0,0,1,1H87.61a1,1,0,0,0,1-1v-1.71l-6.48-9.27A.11.11,0,0,0,82,352.16Z"/><path class="cls-3" d="M95.43,371.17a.11.11,0,0,0,.15,0l2.34-1.64a.09.09,0,0,0,0-.14l-9.32-13.35v5.36Z"/><path class="cls-3" d="M98.22,347.14l-9.6-6.9v9.15l9.56-2.06A.11.11,0,0,0,98.22,347.14Z"/><path class="cls-4" d="M62.82,321.67a.11.11,0,0,0-.17.11l11.77,42a.11.11,0,0,0,.19,0L82,352.16a.11.11,0,0,1,.18,0l6.48,9.27v-5.36l-4-5.67a.11.11,0,0,1,.07-.17l3.9-.84v-9.15Z"/><circle class="cls-3" cx="29.99" cy="286.46" r="36.54"/><ellipse class="cls-4" cx="20.29" cy="274.63" rx="1.49" ry="4.16"/><ellipse class="cls-4" cx="40.28" cy="274.63" rx="1.49" ry="4.16"/><path class="cls-4" d="M30,303.64a22.49,22.49,0,0,1-16.34-7.26A22.13,22.13,0,0,1,9,289.7l1.11-.44-.56.22.56-.22a21.51,21.51,0,0,0,4.38,6.32A20.94,20.94,0,0,0,30,301.86a21.11,21.11,0,0,0,15.52-6.28,21.44,21.44,0,0,0,4.43-6.33l1.11.45a22.77,22.77,0,0,1-4.66,6.69A22.68,22.68,0,0,1,30,303.64Z"/><path class="cls-4" d="M47.45,289.41a.71.71,0,0,1,.51-1,4.43,4.43,0,0,1,2.66.51,4.68,4.68,0,0,1,2.19,1.9.72.72,0,0,1-.39,1h0a.71.71,0,0,1-.9-.44,2.86,2.86,0,0,0-1.22-1.66,2.17,2.17,0,0,0-1.84.16.7.7,0,0,1-.93-.31Z"/><path class="cls-4" d="M12.53,289.41a.7.7,0,0,0-.5-1,4.42,4.42,0,0,0-2.66.51,4.63,4.63,0,0,0-2.19,1.9.71.71,0,0,0,.38,1h0a.71.71,0,0,0,.9-.44,2.82,2.82,0,0,1,1.22-1.66,2.15,2.15,0,0,1,1.83.16.71.71,0,0,0,.94-.31Z"/><g class="cls-36"><path class="cls-8" d="M101.56,340.88,67.39,316.29a.4.4,0,0,0-.62.43l11.36,40.54a.4.4,0,0,0,.72.11l6.76-10.71a.41.41,0,0,1,.67,0l13,18.66a.09.09,0,0,0,.14,0l2.34-1.63a.11.11,0,0,0,0-.15l-13-18.65a.41.41,0,0,1,.25-.63l12.37-2.66A.4.4,0,0,0,101.56,340.88Z"/></g><path class="cls-4" d="M28.82,194.66a97.17,97.17,0,0,1,89.39,59.26,96.9,96.9,0,0,1-20.8,106.35,96.66,96.66,0,0,1-68.59,28.42,97.17,97.17,0,0,1-89.4-59.26,97.34,97.34,0,0,1,0-75.51,96.93,96.93,0,0,1,89.4-59.26m0-11.45A108.47,108.47,0,1,0,137.28,291.68,108.47,108.47,0,0,0,28.82,183.21Z"/></g></svg>