<svg id="Layer_1" data-name="Layer 1" xmlns="http://www.w3.org/2000/svg" xmlns:xlink="http://www.w3.org/1999/xlink" viewBox="0 0 1920 1080"><defs><style>.cls-1,.cls-4{fill:none;}.cls-2{clip-path:url(#clip-path);}.cls-3,.cls-6{fill:#332baa;}.cls-4,.cls-6,.cls-7{stroke:#141493;stroke-miterlimit:10;}.cls-5,.cls-7{fill:#141493;}</style><clipPath id="clip-path"><rect class="cls-1" width="1920" height="1080"/></clipPath></defs><title>northstar v2</title><g class="cls-2"><rect class="cls-3" x="-17.67" y="-15.86" width="1955.34" height="1116.73"/><circle class="cls-4" cx="1143.46" cy="1035.12" r="108.52"/><path class="cls-5" d="M1203.91,1008a1,1,0,0,0-1.06-.94l-8.73.53-49.78-49.65a6.82,6.82,0,0,0-2.93-1.74,3.31,3.31,0,0,0-2-.68,3.37,3.37,0,0,0-2.1.74,6.79,6.79,0,0,0-3,1.93l-51,56.15-13,.79a1,1,0,0,0-.94,1.07l5.24,86a1,1,0,0,0,1.07,1l132.57-8.08a1,1,0,0,0,.94-1.07Zm-67.56-47.59c.56,1.11.74-2.56,2.06-2.56s2.56,1.09,4,2.47l47.63,47.51-102.46,6.25Zm-61.9,62.88a3.52,3.52,0,0,1,3.53-3.52,2.55,2.55,0,0,1,.39,0l-.27.3a1.51,1.51,0,0,0,2.23,2l-1.13,1.62c.34.55,2.3-1.14,2.3-.45a3.53,3.53,0,1,1-7,0Z"/><path class="cls-6" d="M1207.07,1003l-132.58,8.07a1,1,0,0,0-.94,1.07l5.24,86a1,1,0,0,0,1.07,1l132.57-8.08a1,1,0,0,0,.94-1.07l-5.24-86A1,1,0,0,0,1207.07,1003Zm-124.87,19.76a3.53,3.53,0,1,1,3.52-3.53A3.53,3.53,0,0,1,1082.2,1022.78Zm118.87-9a3.53,3.53,0,1,1,3.53-3.53A3.52,3.52,0,0,1,1201.07,1013.78Z"/><path class="cls-6" d="M1083.44,1018.57a1.5,1.5,0,0,1-1.12-2.52l56.2-61.9a6.95,6.95,0,0,1,10-.25l52.79,52.65a1.51,1.51,0,0,1-2.13,2.13L1146.43,956a3.86,3.86,0,0,0-2.87-1.15,3.93,3.93,0,0,0-2.81,1.29l-56.2,61.9A1.52,1.52,0,0,1,1083.44,1018.57Z"/><circle class="cls-7" cx="1143.6" cy="954.87" r="3.39"/><path class="cls-5" d="M1082.83,1042.69l4.79-.34,2.55,14.75.88-15,3.74-.26,3.06,14.58.5-14.86,4.72-.34-1.26,25.71-4.91.34-3.25-15.23-1,15.53-5,.35Z"/><path class="cls-5" d="M1105.81,1041.07l11.45-.81.27,3.84-5.82.41.44,6.33,4.44-.32.28,3.91-4.44.31.54,7.61,5.88-.41.27,3.81-11.52.81Z"/><path class="cls-5" d="M1119.87,1040.08l5.63-.4,1.53,21.68,5.86-.41.27,3.81-11.49.81Z"/><path class="cls-5" d="M1134.28,1056.52l-.65-9.19c-.37-5.29,1.23-8.66,7-9.07,5.63-.4,7.54,2.51,7.85,6.85l.16,2.2-5.51.39-.18-2.55c-.1-1.48-.25-3.05-2-2.92s-1.84,1.74-1.73,3.28l.85,12c.12,1.73.5,3.1,2.17,3s1.71-1.7,1.6-3.25l-.19-2.67,5.51-.39.16,2.2c.3,4.35-1.11,7.7-6.8,8.1S1134.65,1061.68,1134.28,1056.52Z"/><path class="cls-5" d="M1152,1055.36l-.67-9.47c-.37-5.26,1.33-8.47,7.06-8.88s7.92,2.54,8.29,7.8l.67,9.47c.37,5.25-1.36,8.54-7.12,8.94S1152.38,1060.62,1152,1055.36Zm9.69.74-.86-12.27c-.11-1.51-.4-3-2.16-2.85s-1.79,1.61-1.68,3.12l.86,12.27c.11,1.45.34,3,2.1,2.86S1161.81,1057.55,1161.7,1056.1Z"/><path class="cls-5" d="M1169.91,1036.55l6-.43,3.85,14.63,2-15,5.82-.41,2.24,25.46-4,.28-1.66-16.93-1.77,17.17-3.55.25-4.35-16.86.82,17.11-4.06.29Z"/><path class="cls-5" d="M1191.71,1035l11.46-.81.27,3.84-5.82.41.44,6.33,4.44-.32.28,3.91-4.44.31.54,7.61,5.88-.41.27,3.81-11.52.81Z"/><path class="cls-5" d="M1143.46,938.05a96.77,96.77,0,1,1-37.78,7.63,96.43,96.43,0,0,1,37.78-7.63m0-11.45A108.52,108.52,0,1,0,1252,1035.12,108.53,108.53,0,0,0,1143.46,926.6Z"/><circle class="cls-4" cx="825.5" cy="1035.12" r="108.52"/><path class="cls-5" d="M886,1008a1,1,0,0,0-1.07-.94l-8.73.53-49.77-49.65a6.88,6.88,0,0,0-2.93-1.74,3.36,3.36,0,0,0-4.13.06,6.82,6.82,0,0,0-3,1.93l-51,56.15-13.05.79a1,1,0,0,0-.94,1.07l5.24,86a1,1,0,0,0,1.06,1l132.58-8.08a1,1,0,0,0,.94-1.07Zm-67.56-47.59c.55,1.11.73-2.56,2.06-2.56s2.55,1.09,4,2.47l47.64,47.51-102.46,6.25Zm-61.91,62.88a3.52,3.52,0,0,1,3.53-3.52,2.61,2.61,0,0,1,.4,0l-.27.3a1.5,1.5,0,0,0,1.11,2.52,1.54,1.54,0,0,0,1.12-.49l-1.13,1.62c.34.55,2.3-1.14,2.3-.45a3.53,3.53,0,0,1-7.06,0Z"/><path class="cls-6" d="M889.1,1003l-132.57,8.07a1,1,0,0,0-.94,1.07l5.24,86a1,1,0,0,0,1.06,1l132.58-8.08a1,1,0,0,0,.94-1.07l-5.24-86A1,1,0,0,0,889.1,1003Zm-124.87,19.76a3.53,3.53,0,1,1,3.53-3.53A3.52,3.52,0,0,1,764.23,1022.78Zm118.88-9a3.53,3.53,0,1,1,3.53-3.53A3.53,3.53,0,0,1,883.11,1013.78Z"/><path class="cls-6" d="M765.47,1018.57a1.5,1.5,0,0,1-1.11-2.52l56.19-61.9a7,7,0,0,1,10.05-.25l52.78,52.65a1.51,1.51,0,1,1-2.13,2.13L828.47,956a3.88,3.88,0,0,0-2.87-1.15,3.93,3.93,0,0,0-2.82,1.29l-56.19,61.9A1.54,1.54,0,0,1,765.47,1018.57Z"/><circle class="cls-7" cx="825.64" cy="954.87" r="3.39"/><path class="cls-5" d="M764.87,1042.69l4.78-.34,2.56,14.75.87-15,3.75-.26,3,14.58.5-14.86,4.72-.34L783.85,1067l-4.91.34-3.26-15.23-1,15.53-5,.35Z"/><path class="cls-5" d="M787.84,1041.07l11.46-.81.27,3.84-5.83.41.45,6.33,4.44-.32.27,3.91-4.43.31.53,7.61,5.89-.41.27,3.81-11.52.81Z"/><path class="cls-5" d="M801.91,1040.08l5.63-.4,1.53,21.68,5.85-.41.27,3.81-11.48.81Z"/><path class="cls-5" d="M816.32,1056.52l-.65-9.19c-.37-5.29,1.22-8.66,7.05-9.07,5.63-.4,7.54,2.51,7.85,6.85l.15,2.2-5.5.39-.18-2.55c-.11-1.48-.25-3.05-2-2.92s-1.84,1.74-1.73,3.28l.84,12c.12,1.73.5,3.1,2.17,3s1.72-1.7,1.61-3.25l-.19-2.67,5.51-.39.15,2.2c.31,4.35-1.1,7.7-6.8,8.1S816.68,1061.68,816.32,1056.52Z"/><path class="cls-5" d="M834,1055.36l-.67-9.47c-.37-5.26,1.33-8.47,7.06-8.88s7.93,2.54,8.3,7.8l.67,9.47c.37,5.25-1.36,8.54-7.12,8.94S834.41,1060.62,834,1055.36Zm9.7.74-.87-12.27c-.1-1.51-.4-3-2.16-2.85s-1.78,1.61-1.68,3.12l.87,12.27c.1,1.45.34,3,2.1,2.86S843.84,1057.55,843.74,1056.1Z"/><path class="cls-5" d="M851.94,1036.55l6-.43,3.84,14.63,2-15,5.82-.41,2.24,25.46-4,.28-1.67-16.93-1.76,17.17-3.56.25-4.35-16.86.83,17.11-4.06.29Z"/><path class="cls-5" d="M873.75,1035l11.46-.81.27,3.84-5.83.41.45,6.33,4.44-.32.27,3.91-4.43.31.53,7.61,5.89-.41.27,3.81-11.52.81Z"/><path class="cls-5" d="M825.5,938.05a96.82,96.82,0,1,1-37.78,7.63,96.43,96.43,0,0,1,37.78-7.63m0-11.45A108.52,108.52,0,1,0,934,1035.12,108.52,108.52,0,0,0,825.5,926.6Z"/><circle class="cls-4" cx="508.63" cy="1035.12" r="108.52"/><path class="cls-5" d="M569.08,1008A1,1,0,0,0,568,1007l-8.73.53-49.77-49.65a6.94,6.94,0,0,0-2.93-1.74,3.37,3.37,0,0,0-4.14.06,6.84,6.84,0,0,0-3,1.93l-51,56.15-13,.79a1,1,0,0,0-.94,1.07l5.24,86a1,1,0,0,0,1.06,1l132.58-8.08a1,1,0,0,0,.94-1.07Zm-67.56-47.59c.55,1.11.73-2.56,2.06-2.56s2.55,1.09,4,2.47l47.64,47.51-102.47,6.25Zm-61.91,62.88a3.52,3.52,0,0,1,3.53-3.52,2.68,2.68,0,0,1,.4,0l-.28.3a1.51,1.51,0,0,0,1.12,2.52,1.54,1.54,0,0,0,1.12-.49l-1.13,1.62c.34.55,2.3-1.14,2.3-.45a3.53,3.53,0,0,1-7.06,0Z"/><path class="cls-6" d="M572.23,1003l-132.57,8.07a1,1,0,0,0-.94,1.07l5.24,86a1,1,0,0,0,1.06,1l132.58-8.08a1,1,0,0,0,.94-1.07l-5.24-86A1,1,0,0,0,572.23,1003Zm-124.87,19.76a3.53,3.53,0,1,1,3.53-3.53A3.53,3.53,0,0,1,447.36,1022.78Zm118.88-9a3.53,3.53,0,1,1,3.52-3.53A3.53,3.53,0,0,1,566.24,1013.78Z"/><path class="cls-6" d="M448.6,1018.57a1.51,1.51,0,0,1-1.12-2.52l56.2-61.9a7,7,0,0,1,10.05-.25l52.78,52.65a1.51,1.51,0,0,1-2.13,2.13L511.6,956a3.89,3.89,0,0,0-2.87-1.15,3.93,3.93,0,0,0-2.82,1.29l-56.19,61.9A1.54,1.54,0,0,1,448.6,1018.57Z"/><circle class="cls-7" cx="508.77" cy="954.87" r="3.39"/><path class="cls-5" d="M448,1042.69l4.78-.34,2.56,14.75.87-15,3.75-.26,3.05,14.58.5-14.86,4.72-.34L467,1067l-4.91.34-3.26-15.23-1,15.53-5,.35Z"/><path class="cls-5" d="M471,1041.07l11.45-.81.27,3.84-5.82.41.45,6.33,4.44-.32.27,3.91-4.44.31.54,7.61,5.89-.41.26,3.81-11.51.81Z"/><path class="cls-5" d="M485,1040.08l5.63-.4,1.53,21.68,5.85-.41.27,3.81-11.49.81Z"/><path class="cls-5" d="M499.45,1056.52l-.65-9.19c-.37-5.29,1.22-8.66,7-9.07,5.64-.4,7.55,2.51,7.86,6.85l.15,2.2-5.51.39-.18-2.55c-.1-1.48-.24-3.05-2-2.92s-1.83,1.74-1.73,3.28l.85,12c.12,1.73.5,3.1,2.17,3s1.72-1.7,1.61-3.25l-.19-2.67,5.5-.39.16,2.2c.31,4.35-1.1,7.7-6.8,8.1S499.81,1061.68,499.45,1056.52Z"/><path class="cls-5" d="M517.17,1055.36l-.67-9.47c-.37-5.26,1.33-8.47,7.06-8.88s7.93,2.54,8.3,7.8l.67,9.47c.37,5.25-1.36,8.54-7.12,8.94S517.54,1060.62,517.17,1055.36Zm9.7.74-.87-12.27c-.1-1.51-.4-3-2.16-2.85s-1.78,1.61-1.68,3.12l.87,12.27c.1,1.45.33,3,2.1,2.86S527,1057.55,526.87,1056.1Z"/><path class="cls-5" d="M535.07,1036.55l6-.43,3.85,14.63,2-15,5.83-.41,2.23,25.46-4,.28-1.67-16.93-1.76,17.17-3.56.25-4.35-16.86.83,17.11-4.06.29Z"/><path class="cls-5" d="M556.88,1035l11.45-.81.27,3.84-5.82.41.45,6.33,4.44-.32.27,3.91-4.44.31.54,7.61,5.89-.41.26,3.81-11.51.81Z"/><path class="cls-5" d="M508.63,938.05a96.82,96.82,0,1,1-37.78,7.63,96.43,96.43,0,0,1,37.78-7.63m0-11.45a108.52,108.52,0,1,0,108.52,108.52A108.52,108.52,0,0,0,508.63,926.6Z"/><circle class="cls-4" cx="185.91" cy="1035.12" r="108.52"/><path class="cls-5" d="M246.36,1008a1,1,0,0,0-1.07-.94l-8.73.53-49.77-49.65a6.94,6.94,0,0,0-2.93-1.74,3.37,3.37,0,0,0-4.14.06,6.84,6.84,0,0,0-3,1.93l-51,56.15-13,.79a1,1,0,0,0-.94,1.07l5.24,86a1,1,0,0,0,1.06,1l132.58-8.08a1,1,0,0,0,.94-1.07ZM178.8,960.39c.55,1.11.73-2.56,2.06-2.56s2.55,1.09,4,2.47l47.64,47.51-102.47,6.25Zm-61.91,62.88a3.52,3.52,0,0,1,3.53-3.52,2.68,2.68,0,0,1,.4,0l-.28.3a1.51,1.51,0,0,0,1.12,2.52,1.54,1.54,0,0,0,1.12-.49l-1.13,1.62c.34.55,2.3-1.14,2.3-.45a3.53,3.53,0,0,1-7.06,0Z"/><path class="cls-6" d="M249.51,1003l-132.57,8.07a1,1,0,0,0-.94,1.07l5.24,86a1,1,0,0,0,1.06,1l132.58-8.08a1,1,0,0,0,.94-1.07l-5.24-86A1,1,0,0,0,249.51,1003Zm-124.87,19.76a3.53,3.53,0,1,1,3.53-3.53A3.53,3.53,0,0,1,124.64,1022.78Zm118.88-9a3.53,3.53,0,1,1,3.52-3.53A3.53,3.53,0,0,1,243.52,1013.78Z"/><path class="cls-6" d="M125.88,1018.57a1.51,1.51,0,0,1-1.12-2.52l56.2-61.9a7,7,0,0,1,10-.25l52.78,52.65a1.51,1.51,0,1,1-2.13,2.13L188.88,956a3.88,3.88,0,0,0-2.87-1.15,3.93,3.93,0,0,0-2.82,1.29L127,1018.08A1.54,1.54,0,0,1,125.88,1018.57Z"/><circle class="cls-7" cx="186.05" cy="954.87" r="3.39"/><path class="cls-5" d="M125.28,1042.69l4.78-.34,2.56,14.75.87-15,3.75-.26,3,14.58.5-14.86,4.72-.34L144.26,1067l-4.91.34-3.26-15.23-1,15.53-5,.35Z"/><path class="cls-5" d="M148.25,1041.07l11.45-.81.27,3.84-5.82.41.45,6.33,4.44-.32.27,3.91-4.44.31.54,7.61,5.89-.41.26,3.81-11.51.81Z"/><path class="cls-5" d="M162.32,1040.08l5.63-.4,1.53,21.68,5.85-.41.27,3.81-11.49.81Z"/><path class="cls-5" d="M176.73,1056.52l-.65-9.19c-.37-5.29,1.22-8.66,7-9.07,5.64-.4,7.55,2.51,7.86,6.85l.15,2.2-5.51.39-.18-2.55c-.1-1.48-.24-3.05-2-2.92s-1.83,1.74-1.73,3.28l.85,12c.12,1.73.5,3.1,2.17,3s1.72-1.7,1.61-3.25l-.19-2.67,5.5-.39.16,2.2c.31,4.35-1.1,7.7-6.8,8.1S177.09,1061.68,176.73,1056.52Z"/><path class="cls-5" d="M194.45,1055.36l-.67-9.47c-.37-5.26,1.33-8.47,7.06-8.88s7.93,2.54,8.3,7.8l.67,9.47c.37,5.25-1.36,8.54-7.12,8.94S194.82,1060.62,194.45,1055.36Zm9.7.74-.87-12.27c-.1-1.51-.4-3-2.16-2.85s-1.78,1.61-1.68,3.12l.87,12.27c.1,1.45.33,3,2.1,2.86S204.25,1057.55,204.15,1056.1Z"/><path class="cls-5" d="M212.35,1036.55l6-.43,3.85,14.63,2-15,5.83-.41,2.23,25.46-4,.28-1.67-16.93-1.76,17.17-3.56.25-4.35-16.86.83,17.11-4.06.29Z"/><path class="cls-5" d="M234.16,1035l11.45-.81.27,3.84-5.82.41.45,6.33,4.44-.32.27,3.91-4.44.31.54,7.61,5.89-.41.26,3.81-11.51.81Z"/><path class="cls-5" d="M185.91,938.05a96.82,96.82,0,1,1-37.78,7.63,96.43,96.43,0,0,1,37.78-7.63m0-11.45a108.52,108.52,0,1,0,108.52,108.52A108.52,108.52,0,0,0,185.91,926.6Z"/><circle class="cls-4" cx="1459.76" cy="1035.12" r="108.52"/><path class="cls-5" d="M1520.21,1008a1,1,0,0,0-1.06-.94l-8.74.53-49.77-49.65a6.88,6.88,0,0,0-2.93-1.74,3.36,3.36,0,0,0-4.13.06,6.82,6.82,0,0,0-3,1.93l-51,56.15-13,.79a1,1,0,0,0-.94,1.07l5.24,86a1,1,0,0,0,1.07,1l132.57-8.08a1,1,0,0,0,.94-1.07Zm-67.56-47.59c.56,1.11.73-2.56,2.06-2.56s2.55,1.09,4,2.47l47.63,47.51-102.46,6.25Zm-61.9,62.88a3.52,3.52,0,0,1,3.52-3.52,2.61,2.61,0,0,1,.4,0l-.27.3a1.5,1.5,0,0,0,1.11,2.52,1.54,1.54,0,0,0,1.12-.49l-1.13,1.62c.34.55,2.3-1.14,2.3-.45a3.53,3.53,0,1,1-7,0Z"/><path class="cls-6" d="M1523.37,1003l-132.58,8.07a1,1,0,0,0-.94,1.07l5.24,86a1,1,0,0,0,1.07,1l132.57-8.08a1,1,0,0,0,.94-1.07l-5.24-86A1,1,0,0,0,1523.37,1003Zm-124.88,19.76a3.53,3.53,0,1,1,3.53-3.53A3.53,3.53,0,0,1,1398.49,1022.78Zm118.88-9a3.53,3.53,0,1,1,3.53-3.53A3.53,3.53,0,0,1,1517.37,1013.78Z"/><path class="cls-6" d="M1399.73,1018.57a1.5,1.5,0,0,1-1.11-2.52l56.19-61.9a7,7,0,0,1,10-.25l52.78,52.65a1.51,1.51,0,1,1-2.13,2.13L1462.73,956a3.92,3.92,0,0,0-5.68.14l-56.2,61.9A1.54,1.54,0,0,1,1399.73,1018.57Z"/><circle class="cls-7" cx="1459.9" cy="954.87" r="3.39"/><path class="cls-5" d="M1399.13,1042.69l4.79-.34,2.55,14.75.88-15,3.74-.26,3.05,14.58.51-14.86,4.72-.34-1.26,25.71-4.91.34-3.25-15.23-1,15.53-5,.35Z"/><path class="cls-5" d="M1422.1,1041.07l11.46-.81.27,3.84-5.82.41.44,6.33,4.44-.32.28,3.91-4.44.31.54,7.61,5.88-.41.27,3.81-11.52.81Z"/><path class="cls-5" d="M1436.17,1040.08l5.63-.4,1.53,21.68,5.86-.41.26,3.81-11.48.81Z"/><path class="cls-5" d="M1450.58,1056.52l-.65-9.19c-.37-5.29,1.23-8.66,7-9.07,5.63-.4,7.54,2.51,7.85,6.85l.15,2.2-5.5.39-.18-2.55c-.11-1.48-.25-3.05-2-2.92s-1.84,1.74-1.73,3.28l.84,12c.13,1.73.51,3.1,2.18,3s1.71-1.7,1.6-3.25l-.19-2.67,5.51-.39.15,2.2c.31,4.35-1.1,7.7-6.79,8.1S1451,1061.68,1450.58,1056.52Z"/><path class="cls-5" d="M1468.3,1055.36l-.66-9.47c-.37-5.26,1.33-8.47,7-8.88s7.93,2.54,8.3,7.8l.67,9.47c.37,5.25-1.36,8.54-7.12,8.94S1468.68,1060.62,1468.3,1055.36Zm9.7.74-.86-12.27c-.11-1.51-.4-3-2.17-2.85s-1.78,1.61-1.67,3.12l.86,12.27c.1,1.45.34,3,2.1,2.86S1478.1,1057.55,1478,1056.1Z"/><path class="cls-5" d="M1486.21,1036.55l6-.43,3.84,14.63,2-15,5.82-.41,2.24,25.46-4,.28-1.67-16.93-1.76,17.17-3.55.25-4.36-16.86.83,17.11-4.06.29Z"/><path class="cls-5" d="M1508,1035l11.46-.81.27,3.84-5.82.41.44,6.33,4.44-.32.28,3.91-4.44.31.53,7.61,5.89-.41.27,3.81-11.52.81Z"/><path class="cls-5" d="M1459.76,938.05a96.77,96.77,0,1,1-37.78,7.63,96.43,96.43,0,0,1,37.78-7.63m0-11.45a108.52,108.52,0,1,0,108.52,108.52A108.53,108.53,0,0,0,1459.76,926.6Z"/><circle class="cls-4" cx="1775.7" cy="1035.12" r="108.52"/><path class="cls-5" d="M1836.15,1008a1,1,0,0,0-1.06-.94l-8.73.53-49.78-49.65a6.82,6.82,0,0,0-2.93-1.74,3.31,3.31,0,0,0-2-.68,3.37,3.37,0,0,0-2.1.74,6.79,6.79,0,0,0-3,1.93l-51,56.15-13,.79a1,1,0,0,0-.94,1.07l5.24,86a1,1,0,0,0,1.07,1l132.57-8.08a1,1,0,0,0,1-1.07Zm-67.56-47.59c.56,1.11.74-2.56,2.07-2.56s2.55,1.09,4,2.47l47.63,47.51-102.46,6.25Zm-61.9,62.88a3.52,3.52,0,0,1,3.53-3.52,2.55,2.55,0,0,1,.39,0l-.27.3a1.51,1.51,0,0,0,2.23,2l-1.13,1.62c.35.55,2.3-1.14,2.3-.45a3.53,3.53,0,1,1-7,0Z"/><path class="cls-6" d="M1839.31,1003l-132.58,8.07a1,1,0,0,0-.94,1.07l5.25,86a1,1,0,0,0,1.06,1l132.57-8.08a1,1,0,0,0,.95-1.07l-5.25-86A1,1,0,0,0,1839.31,1003Zm-124.87,19.76a3.53,3.53,0,1,1,3.52-3.53A3.53,3.53,0,0,1,1714.44,1022.78Zm118.87-9a3.53,3.53,0,1,1,3.53-3.53A3.53,3.53,0,0,1,1833.31,1013.78Z"/><path class="cls-6" d="M1715.68,1018.57a1.53,1.53,0,0,1-1-.39,1.51,1.51,0,0,1-.1-2.13l56.2-61.9a6.95,6.95,0,0,1,10-.25l52.79,52.65a1.51,1.51,0,1,1-2.13,2.13L1778.68,956a3.93,3.93,0,0,0-5.69.14l-56.2,61.9A1.5,1.5,0,0,1,1715.68,1018.57Z"/><circle class="cls-7" cx="1775.85" cy="954.87" r="3.39"/><path class="cls-5" d="M1715.07,1042.69l4.79-.34,2.56,14.75.87-15,3.74-.26,3.06,14.58.5-14.86,4.72-.34-1.26,25.71-4.91.34-3.25-15.23-1,15.53-5,.35Z"/><path class="cls-5" d="M1738.05,1041.07l11.45-.81.27,3.84-5.82.41.45,6.33,4.43-.32.28,3.91-4.44.31.54,7.61,5.88-.41.27,3.81-11.52.81Z"/><path class="cls-5" d="M1752.11,1040.08l5.64-.4,1.52,21.68,5.86-.41.27,3.81-11.49.81Z"/><path class="cls-5" d="M1766.52,1056.52l-.64-9.19c-.38-5.29,1.22-8.66,7-9.07,5.63-.4,7.55,2.51,7.85,6.85l.16,2.2-5.51.39-.18-2.55c-.1-1.48-.25-3.05-2-2.92s-1.84,1.74-1.73,3.28l.85,12c.12,1.73.5,3.1,2.17,3s1.71-1.7,1.6-3.25l-.19-2.67,5.51-.39.16,2.2c.3,4.35-1.1,7.7-6.8,8.1S1766.89,1061.68,1766.52,1056.52Z"/><path class="cls-5" d="M1784.25,1055.36l-.67-9.47c-.37-5.26,1.33-8.47,7.06-8.88s7.92,2.54,8.3,7.8l.66,9.47c.37,5.25-1.36,8.54-7.11,8.94S1784.62,1060.62,1784.25,1055.36Zm9.69.74-.86-12.27c-.11-1.51-.4-3-2.16-2.85s-1.79,1.61-1.68,3.12l.86,12.27c.11,1.45.34,3,2.1,2.86S1794.05,1057.55,1793.94,1056.1Z"/><path class="cls-5" d="M1802.15,1036.55l6-.43,3.85,14.63,2-15,5.82-.41,2.24,25.46-4,.28-1.66-16.93-1.77,17.17-3.55.25-4.35-16.86.82,17.11-4,.29Z"/><path class="cls-5" d="M1824,1035l11.45-.81.27,3.84-5.82.41.44,6.33,4.44-.32.28,3.91-4.44.31.54,7.61,5.88-.41.27,3.81-11.52.81Z"/><path class="cls-5" d="M1775.7,938.05a96.77,96.77,0,1,1-37.78,7.63,96.43,96.43,0,0,1,37.78-7.63m0-11.45a108.52,108.52,0,1,0,108.53,108.52A108.53,108.53,0,0,0,1775.7,926.6Z"/><rect class="cls-1" width="1920" height="1080"/><circle class="cls-4" cx="985.1" cy="292.62" r="108.52"/><path class="cls-5" d="M1045.55,265.48a1,1,0,0,0-1.07-.94l-8.73.53L986,215.42a6.94,6.94,0,0,0-2.93-1.74,3.37,3.37,0,0,0-4.14.06,6.84,6.84,0,0,0-3,1.93l-51,56.15-13,.79a1,1,0,0,0-.94,1.07l5.24,86a1,1,0,0,0,1.06.94l132.58-8.07a1,1,0,0,0,.94-1.07ZM978,217.89c.55,1.11.73-2.56,2.06-2.56s2.55,1.09,4,2.47l47.64,47.51-102.47,6.25Zm-61.91,62.88a3.53,3.53,0,0,1,3.53-3.53,2.69,2.69,0,0,1,.4,0l-.28.3a1.51,1.51,0,1,0,2.24,2l-1.13,1.63c.34.54,2.3-1.14,2.3-.45a3.53,3.53,0,0,1-7.06,0Z"/><path class="cls-6" d="M1048.7,260.52l-132.57,8.07a1,1,0,0,0-.94,1.07l5.24,86a1,1,0,0,0,1.06.95l132.58-8.08a1,1,0,0,0,.94-1.07l-5.24-86A1,1,0,0,0,1048.7,260.52ZM923.83,280.28a3.53,3.53,0,1,1,3.53-3.53A3.53,3.53,0,0,1,923.83,280.28Zm118.88-9a3.53,3.53,0,1,1,3.52-3.53A3.53,3.53,0,0,1,1042.71,271.28Z"/><path class="cls-6" d="M925.07,276.07a1.51,1.51,0,0,1-1.12-2.52l56.2-61.9a7,7,0,0,1,10.05-.25L1043,264.05a1.51,1.51,0,0,1-2.13,2.13l-52.78-52.64a3.88,3.88,0,0,0-2.87-1.15,3.93,3.93,0,0,0-2.82,1.29l-56.19,61.89A1.51,1.51,0,0,1,925.07,276.07Z"/><circle class="cls-7" cx="985.24" cy="212.37" r="3.39"/><path class="cls-5" d="M924.47,300.19l4.78-.34,2.56,14.75.87-15,3.75-.26L939.48,314l.5-14.87,4.72-.33-1.25,25.71-4.91.34-3.26-15.23-1,15.53-5,.35Z"/><path class="cls-5" d="M947.44,298.57l11.45-.81.28,3.84-5.83.41.45,6.33,4.44-.32.27,3.9-4.44.32.54,7.61,5.89-.41.26,3.81-11.51.81Z"/><path class="cls-5" d="M961.51,297.58l5.63-.4,1.53,21.68,5.85-.41.27,3.81-11.49.81Z"/><path class="cls-5" d="M975.92,314l-.65-9.19c-.37-5.29,1.22-8.66,7-9.07,5.64-.4,7.55,2.5,7.86,6.85l.15,2.2-5.51.39-.18-2.55c-.1-1.48-.24-3-2-2.92s-1.83,1.74-1.73,3.28l.85,12c.12,1.73.5,3.09,2.17,3s1.72-1.7,1.61-3.25l-.19-2.67,5.5-.39.16,2.2c.31,4.35-1.1,7.7-6.8,8.1S976.28,319.18,975.92,314Z"/><path class="cls-5" d="M993.64,312.86l-.67-9.47c-.37-5.26,1.33-8.48,7.06-8.88s7.93,2.54,8.3,7.8l.67,9.47c.37,5.25-1.36,8.54-7.12,8.94S994,318.12,993.64,312.86Zm9.7.74-.87-12.27c-.1-1.51-.4-3-2.16-2.85s-1.78,1.61-1.68,3.12l.87,12.27c.1,1.45.34,3,2.1,2.86S1003.44,315.05,1003.34,313.6Z"/><path class="cls-5" d="M1011.54,294.05l6-.43,3.85,14.62,2-15,5.82-.41,2.24,25.46-4,.28-1.67-16.93L1024,318.78l-3.56.25-4.35-16.86.83,17.11-4.06.29Z"/><path class="cls-5" d="M1033.35,292.51l11.45-.81.27,3.84-5.82.41.45,6.33,4.44-.32.27,3.91-4.44.31.54,7.61,5.89-.41.26,3.81-11.51.81Z"/><path class="cls-5" d="M985.1,195.55a96.82,96.82,0,1,1-37.78,7.63,96.43,96.43,0,0,1,37.78-7.63m0-11.45a108.52,108.52,0,1,0,108.52,108.52A108.52,108.52,0,0,0,985.1,184.1Z"/><circle class="cls-4" cx="667.13" cy="292.62" r="108.52"/><path class="cls-5" d="M727.58,265.48a1,1,0,0,0-1.06-.94l-8.73.53L668,215.42a6.82,6.82,0,0,0-2.93-1.74,3.31,3.31,0,0,0-2-.68,3.37,3.37,0,0,0-2.1.74,6.79,6.79,0,0,0-3,1.93l-51,56.15-13,.79a1,1,0,0,0-.94,1.07l5.24,86a1,1,0,0,0,1.07.94l132.57-8.07a1,1,0,0,0,1-1.07ZM660,217.89c.56,1.11.74-2.56,2.07-2.56s2.55,1.09,4,2.47l47.63,47.51L611.3,271.56Zm-61.9,62.88a3.53,3.53,0,0,1,3.53-3.53l.39,0-.27.3a1.5,1.5,0,0,0,1.12,2.52,1.48,1.48,0,0,0,1.11-.5l-1.13,1.63c.35.54,2.3-1.14,2.3-.45a3.53,3.53,0,1,1-7,0Z"/><path class="cls-6" d="M730.74,260.52l-132.58,8.07a1,1,0,0,0-.94,1.07l5.25,86a1,1,0,0,0,1.06.95l132.57-8.08a1,1,0,0,0,.95-1.07l-5.25-86A1,1,0,0,0,730.74,260.52ZM605.87,280.28a3.53,3.53,0,1,1,3.52-3.53A3.53,3.53,0,0,1,605.87,280.28Zm118.87-9a3.53,3.53,0,1,1,3.53-3.53A3.53,3.53,0,0,1,724.74,271.28Z"/><path class="cls-6" d="M607.11,276.07a1.53,1.53,0,0,1-1-.39,1.51,1.51,0,0,1-.1-2.13l56.2-61.9a6.95,6.95,0,0,1,10-.25L725,264.05a1.51,1.51,0,0,1-2.13,2.13l-52.78-52.64a3.93,3.93,0,0,0-5.69.14l-56.2,61.89A1.48,1.48,0,0,1,607.11,276.07Z"/><circle class="cls-7" cx="667.28" cy="212.37" r="3.39"/><path class="cls-5" d="M606.5,300.19l4.79-.34,2.56,14.75.87-15,3.74-.26L621.52,314l.5-14.87,4.72-.33-1.26,25.71-4.91.34-3.25-15.23-1,15.53-5,.35Z"/><path class="cls-5" d="M629.48,298.57l11.45-.81.27,3.84-5.82.41.45,6.33,4.43-.32.28,3.9-4.44.32.54,7.61,5.88-.41.27,3.81-11.52.81Z"/><path class="cls-5" d="M643.54,297.58l5.64-.4,1.52,21.68,5.86-.41.27,3.81-11.49.81Z"/><path class="cls-5" d="M658,314l-.64-9.19c-.38-5.29,1.22-8.66,7-9.07,5.63-.4,7.55,2.5,7.85,6.85l.16,2.2-5.51.39-.18-2.55c-.1-1.48-.25-3-2-2.92s-1.84,1.74-1.73,3.28l.85,12c.12,1.73.5,3.09,2.17,3s1.71-1.7,1.6-3.25l-.19-2.67,5.51-.39.16,2.2c.3,4.35-1.1,7.7-6.8,8.1S658.32,319.18,658,314Z"/><path class="cls-5" d="M675.68,312.86l-.67-9.47c-.37-5.26,1.33-8.48,7.06-8.88s7.92,2.54,8.29,7.8l.67,9.47c.37,5.25-1.36,8.54-7.11,8.94S676.05,318.12,675.68,312.86Zm9.69.74-.86-12.27c-.11-1.51-.4-3-2.16-2.85s-1.79,1.61-1.68,3.12l.86,12.27c.11,1.45.34,3,2.1,2.86S685.48,315.05,685.37,313.6Z"/><path class="cls-5" d="M693.58,294.05l6-.43,3.85,14.62,2-15,5.82-.41,2.24,25.46-4,.28-1.66-16.93-1.77,17.17-3.55.25-4.35-16.86.82,17.11-4,.29Z"/><path class="cls-5" d="M715.39,292.51l11.45-.81.27,3.84-5.82.41.44,6.33,4.44-.32.28,3.91-4.44.31.54,7.61,5.88-.41.27,3.81-11.52.81Z"/><path class="cls-5" d="M667.13,195.55a96.77,96.77,0,1,1-37.78,7.63,96.43,96.43,0,0,1,37.78-7.63m0-11.45A108.52,108.52,0,1,0,775.66,292.62,108.53,108.53,0,0,0,667.13,184.1Z"/><circle class="cls-4" cx="350.26" cy="292.62" r="108.52"/><path class="cls-5" d="M410.71,265.48a1,1,0,0,0-1.06-.94l-8.74.53-49.77-49.65a6.88,6.88,0,0,0-2.93-1.74,3.36,3.36,0,0,0-4.13.06,6.82,6.82,0,0,0-3,1.93l-51,56.15-13.05.79a1,1,0,0,0-.94,1.07l5.24,86a1,1,0,0,0,1.07.94L415,352.59a1,1,0,0,0,.94-1.07Zm-67.56-47.59c.56,1.11.73-2.56,2.06-2.56s2.55,1.09,4.05,2.47l47.63,47.51-102.46,6.25Zm-61.9,62.88a3.53,3.53,0,0,1,3.52-3.53,2.6,2.6,0,0,1,.4,0l-.27.3a1.5,1.5,0,1,0,2.23,2L286,281.22c.34.54,2.3-1.14,2.3-.45a3.53,3.53,0,1,1-7.05,0Z"/><path class="cls-6" d="M413.87,260.52l-132.58,8.07a1,1,0,0,0-.94,1.07l5.24,86a1,1,0,0,0,1.07.95l132.57-8.08a1,1,0,0,0,.94-1.07l-5.24-86A1,1,0,0,0,413.87,260.52ZM289,280.28a3.53,3.53,0,1,1,3.53-3.53A3.53,3.53,0,0,1,289,280.28Zm118.88-9a3.53,3.53,0,1,1,3.53-3.53A3.53,3.53,0,0,1,407.87,271.28Z"/><path class="cls-6" d="M290.23,276.07a1.5,1.5,0,0,1-1.11-2.52l56.19-61.9a7,7,0,0,1,10.05-.25l52.78,52.65a1.51,1.51,0,1,1-2.13,2.13l-52.78-52.64a3.92,3.92,0,0,0-5.68.14l-56.2,61.89A1.51,1.51,0,0,1,290.23,276.07Z"/><circle class="cls-7" cx="350.4" cy="212.37" r="3.39"/><path class="cls-5" d="M289.63,300.19l4.79-.34L297,314.6l.88-15,3.74-.26L304.64,314l.51-14.87,4.72-.33-1.26,25.71-4.91.34-3.25-15.23-1,15.53-5,.35Z"/><path class="cls-5" d="M312.6,298.57l11.46-.81.27,3.84-5.82.41.44,6.33,4.44-.32.28,3.9-4.44.32.54,7.61,5.88-.41.27,3.81-11.52.81Z"/><path class="cls-5" d="M326.67,297.58l5.63-.4,1.53,21.68,5.86-.41.26,3.81-11.48.81Z"/><path class="cls-5" d="M341.08,314l-.65-9.19c-.37-5.29,1.23-8.66,7.05-9.07,5.63-.4,7.54,2.5,7.85,6.85l.15,2.2-5.5.39-.18-2.55c-.11-1.48-.25-3-2-2.92s-1.84,1.74-1.73,3.28l.84,12c.13,1.73.51,3.09,2.18,3s1.71-1.7,1.6-3.25l-.19-2.67,5.51-.39.15,2.2c.31,4.35-1.1,7.7-6.79,8.1S341.45,319.18,341.08,314Z"/><path class="cls-5" d="M358.8,312.86l-.66-9.47c-.37-5.26,1.33-8.48,7.05-8.88s7.93,2.54,8.3,7.8l.67,9.47c.37,5.25-1.36,8.54-7.12,8.94S359.18,318.12,358.8,312.86Zm9.7.74-.86-12.27c-.11-1.51-.4-3-2.17-2.85s-1.78,1.61-1.67,3.12l.86,12.27c.1,1.45.34,3,2.1,2.86S368.6,315.05,368.5,313.6Z"/><path class="cls-5" d="M376.71,294.05l6-.43,3.84,14.62,2-15,5.82-.41,2.24,25.46-4,.28L391,301.61l-1.76,17.17-3.55.25-4.36-16.86.83,17.11-4.06.29Z"/><path class="cls-5" d="M398.51,292.51,410,291.7l.27,3.84-5.82.41.44,6.33,4.44-.32.28,3.91-4.44.31.53,7.61,5.89-.41.27,3.81-11.52.81Z"/><path class="cls-5" d="M350.26,195.55a96.77,96.77,0,1,1-37.78,7.63,96.43,96.43,0,0,1,37.78-7.63m0-11.45A108.52,108.52,0,1,0,458.78,292.62,108.53,108.53,0,0,0,350.26,184.1Z"/><circle class="cls-4" cx="27.54" cy="292.62" r="108.52"/><path class="cls-5" d="M88,265.48a1,1,0,0,0-1.06-.94l-8.74.53L28.42,215.42a6.88,6.88,0,0,0-2.93-1.74,3.36,3.36,0,0,0-4.13.06,6.82,6.82,0,0,0-3,1.93l-51,56.15-13,.79a1,1,0,0,0-.94,1.07l5.24,86a1,1,0,0,0,1.07.94l132.57-8.07a1,1,0,0,0,.94-1.07ZM20.43,217.89c.56,1.11.73-2.56,2.06-2.56s2.55,1.09,4.05,2.47l47.63,47.51-102.46,6.25Zm-61.9,62.88a3.53,3.53,0,0,1,3.52-3.53,2.6,2.6,0,0,1,.4,0l-.27.3a1.51,1.51,0,0,0,.1,2.13,1.51,1.51,0,0,0,1,.39,1.51,1.51,0,0,0,1.12-.5l-1.13,1.63c.34.54,2.3-1.14,2.3-.45a3.53,3.53,0,0,1-3.53,3.53A3.53,3.53,0,0,1-41.47,280.77Z"/><path class="cls-6" d="M91.15,260.52l-132.58,8.07a1,1,0,0,0-.94,1.07l5.24,86a1,1,0,0,0,1.07.95l132.57-8.08a1,1,0,0,0,.94-1.07l-5.24-86A1,1,0,0,0,91.15,260.52ZM-33.73,280.28a3.53,3.53,0,0,1-3.52-3.53,3.52,3.52,0,0,1,3.52-3.52,3.52,3.52,0,0,1,3.53,3.52A3.53,3.53,0,0,1-33.73,280.28Zm118.88-9a3.53,3.53,0,1,1,3.53-3.53A3.53,3.53,0,0,1,85.15,271.28Z"/><path class="cls-6" d="M-32.49,276.07a1.51,1.51,0,0,1-1-.39,1.51,1.51,0,0,1-.1-2.13l56.19-61.9a7,7,0,0,1,10.05-.25l52.78,52.65a1.5,1.5,0,1,1-2.12,2.13L30.51,213.54a3.92,3.92,0,0,0-5.68.14l-56.2,61.89A1.51,1.51,0,0,1-32.49,276.07Z"/><circle class="cls-7" cx="27.68" cy="212.37" r="3.39"/><path class="cls-5" d="M-10.12,298.57l11.46-.81.27,3.84-5.82.41.44,6.33L.67,308l.28,3.9-4.44.32.54,7.61,5.88-.41.27,3.81-11.52.81Z"/><path class="cls-5" d="M4,297.58l5.63-.4,1.53,21.68,5.86-.41.26,3.81-11.48.81Z"/><path class="cls-5" d="M18.36,314l-.65-9.19c-.37-5.29,1.23-8.66,7.05-9.07,5.63-.4,7.54,2.5,7.85,6.85l.16,2.2-5.51.39-.18-2.55c-.11-1.48-.25-3-2-2.92s-1.84,1.74-1.73,3.28l.84,12c.13,1.73.51,3.09,2.18,3s1.71-1.7,1.6-3.25l-.19-2.67,5.51-.39.15,2.2c.31,4.35-1.1,7.7-6.79,8.1S18.73,319.18,18.36,314Z"/><path class="cls-5" d="M36.08,312.86l-.66-9.47c-.37-5.26,1.33-8.48,7-8.88s7.93,2.54,8.3,7.8l.67,9.47c.37,5.25-1.36,8.54-7.12,8.94S36.46,318.12,36.08,312.86Zm9.7.74-.86-12.27c-.11-1.51-.4-3-2.17-2.85s-1.78,1.61-1.67,3.12l.86,12.27c.1,1.45.34,3,2.1,2.86S45.88,315.05,45.78,313.6Z"/><path class="cls-5" d="M54,294.05l6-.43,3.84,14.62,2-15,5.82-.41,2.24,25.46-4,.28-1.67-16.93-1.76,17.17-3.55.25-4.36-16.86.83,17.11-4.06.29Z"/><path class="cls-5" d="M75.79,292.51l11.46-.81.27,3.84L81.7,296l.44,6.33,4.44-.32.28,3.91-4.44.31.54,7.61,5.88-.41.27,3.81L77.59,318Z"/><path class="cls-5" d="M27.54,195.55A97.16,97.16,0,0,1,117,254.84a97,97,0,0,1-20.8,106.42,97,97,0,0,1-137.27,0A96.77,96.77,0,0,1-61.9,330.4a97.47,97.47,0,0,1,0-75.56,97,97,0,0,1,89.44-59.29m0-11.45A108.52,108.52,0,1,0,136.06,292.62,108.53,108.53,0,0,0,27.54,184.1Z"/><circle class="cls-4" cx="1301.4" cy="292.62" r="108.52"/><path class="cls-5" d="M1361.84,265.48a1,1,0,0,0-1.06-.94l-8.73.53-49.77-49.65a6.92,6.92,0,0,0-2.94-1.74,3.3,3.3,0,0,0-2-.68,3.38,3.38,0,0,0-2.11.74,6.84,6.84,0,0,0-3,1.93l-51,56.15-13,.79a1,1,0,0,0-1,1.07l5.25,86a1,1,0,0,0,1.06.94l132.58-8.07a1,1,0,0,0,.94-1.07Zm-67.55-47.59c.55,1.11.73-2.56,2.06-2.56s2.55,1.09,4,2.47L1348,265.31l-102.47,6.25Zm-61.91,62.88a3.53,3.53,0,0,1,3.53-3.53l.4,0-.28.3a1.51,1.51,0,0,0,1.12,2.52,1.48,1.48,0,0,0,1.11-.5l-1.12,1.63c.34.54,2.3-1.14,2.3-.45a3.53,3.53,0,1,1-7.06,0Z"/><path class="cls-6" d="M1365,260.52l-132.57,8.07a1,1,0,0,0-1,1.07l5.25,86a1,1,0,0,0,1.06.95l132.58-8.08a1,1,0,0,0,.94-1.07l-5.25-86A1,1,0,0,0,1365,260.52Zm-124.87,19.76a3.53,3.53,0,1,1,3.53-3.53A3.53,3.53,0,0,1,1240.13,280.28Zm118.88-9a3.53,3.53,0,1,1,3.52-3.53A3.53,3.53,0,0,1,1359,271.28Z"/><path class="cls-6" d="M1241.37,276.07a1.51,1.51,0,0,1-1.12-2.52l56.2-61.9a7,7,0,0,1,10-.25l52.78,52.65a1.51,1.51,0,1,1-2.13,2.13l-52.78-52.64a3.93,3.93,0,0,0-5.69.14l-56.19,61.89A1.51,1.51,0,0,1,1241.37,276.07Z"/><circle class="cls-7" cx="1301.54" cy="212.37" r="3.39"/><path class="cls-5" d="M1240.77,300.19l4.78-.34,2.56,14.75.87-15,3.75-.26,3,14.58.5-14.87,4.72-.33-1.25,25.71-4.91.34-3.26-15.23-1,15.53-5,.35Z"/><path class="cls-5" d="M1263.74,298.57l11.45-.81.27,3.84-5.82.41.45,6.33,4.44-.32.27,3.9-4.44.32.54,7.61,5.88-.41.27,3.81-11.51.81Z"/><path class="cls-5" d="M1277.8,297.58l5.64-.4,1.53,21.68,5.85-.41.27,3.81-11.49.81Z"/><path class="cls-5" d="M1292.22,314l-.65-9.19c-.37-5.29,1.22-8.66,7-9.07,5.64-.4,7.55,2.5,7.85,6.85l.16,2.2-5.51.39-.18-2.55c-.1-1.48-.24-3-2-2.92s-1.84,1.74-1.73,3.28l.85,12c.12,1.73.5,3.09,2.17,3s1.71-1.7,1.61-3.25l-.19-2.67,5.5-.39.16,2.2c.3,4.35-1.1,7.7-6.8,8.1S1292.58,319.18,1292.22,314Z"/><path class="cls-5" d="M1309.94,312.86l-.67-9.47c-.37-5.26,1.33-8.48,7.06-8.88s7.93,2.54,8.3,7.8l.67,9.47c.37,5.25-1.36,8.54-7.12,8.94S1310.31,318.12,1309.94,312.86Zm9.7.74-.87-12.27c-.11-1.51-.4-3-2.16-2.85s-1.79,1.61-1.68,3.12l.87,12.27c.1,1.45.33,3,2.1,2.86S1319.74,315.05,1319.64,313.6Z"/><path class="cls-5" d="M1327.84,294.05l6-.43,3.85,14.62,2-15,5.83-.41,2.23,25.46-4,.28-1.67-16.93-1.76,17.17-3.56.25-4.35-16.86.83,17.11-4.06.29Z"/><path class="cls-5" d="M1349.65,292.51l11.45-.81.27,3.84-5.82.41.45,6.33,4.43-.32.28,3.91-4.44.31.54,7.61,5.88-.41.27,3.81-11.51.81Z"/><path class="cls-5" d="M1301.4,195.55a96.82,96.82,0,1,1-37.78,7.63,96.43,96.43,0,0,1,37.78-7.63m0-11.45a108.52,108.52,0,1,0,108.52,108.52A108.53,108.53,0,0,0,1301.4,184.1Z"/><circle class="cls-4" cx="1617.34" cy="292.62" r="108.52"/><path class="cls-5" d="M1677.79,265.48a1,1,0,0,0-1.07-.94l-8.73.53-49.77-49.65a6.94,6.94,0,0,0-2.93-1.74,3.37,3.37,0,0,0-4.14.06,6.84,6.84,0,0,0-3,1.93l-51,56.15-13,.79a1,1,0,0,0-.94,1.07l5.24,86a1,1,0,0,0,1.06.94l132.58-8.07a1,1,0,0,0,.94-1.07Zm-67.56-47.59c.55,1.11.73-2.56,2.06-2.56s2.55,1.09,4,2.47L1664,265.31l-102.46,6.25Zm-61.91,62.88a3.53,3.53,0,0,1,3.53-3.53,2.6,2.6,0,0,1,.4,0l-.27.3a1.5,1.5,0,1,0,2.23,2l-1.13,1.63c.34.54,2.3-1.14,2.3-.45a3.53,3.53,0,0,1-7.06,0Z"/><path class="cls-6" d="M1680.94,260.52l-132.57,8.07a1,1,0,0,0-.94,1.07l5.24,86a1,1,0,0,0,1.06.95l132.58-8.08a1,1,0,0,0,.94-1.07l-5.24-86A1,1,0,0,0,1680.94,260.52Zm-124.87,19.76a3.53,3.53,0,1,1,3.53-3.53A3.53,3.53,0,0,1,1556.07,280.28Zm118.88-9a3.53,3.53,0,1,1,3.52-3.53A3.53,3.53,0,0,1,1675,271.28Z"/><path class="cls-6" d="M1557.31,276.07a1.5,1.5,0,0,1-1.11-2.52l56.19-61.9a7,7,0,0,1,10-.25l52.78,52.65a1.51,1.51,0,0,1-2.13,2.13l-52.78-52.64a3.88,3.88,0,0,0-2.87-1.15,3.93,3.93,0,0,0-2.82,1.29l-56.19,61.89A1.51,1.51,0,0,1,1557.31,276.07Z"/><circle class="cls-7" cx="1617.48" cy="212.37" r="3.39"/><path class="cls-5" d="M1556.71,300.19l4.78-.34,2.56,14.75.87-15,3.75-.26,3,14.58.5-14.87,4.72-.33-1.25,25.71-4.91.34-3.26-15.23-1,15.53-5,.35Z"/><path class="cls-5" d="M1579.68,298.57l11.46-.81.27,3.84-5.83.41.45,6.33,4.44-.32.27,3.9-4.43.32.53,7.61,5.89-.41.27,3.81-11.52.81Z"/><path class="cls-5" d="M1593.75,297.58l5.63-.4,1.53,21.68,5.85-.41.27,3.81-11.49.81Z"/><path class="cls-5" d="M1608.16,314l-.65-9.19c-.37-5.29,1.22-8.66,7-9.07,5.63-.4,7.54,2.5,7.85,6.85l.15,2.2-5.5.39-.18-2.55c-.11-1.48-.25-3-2.05-2.92s-1.83,1.74-1.72,3.28l.84,12c.12,1.73.5,3.09,2.17,3s1.72-1.7,1.61-3.25l-.19-2.67,5.51-.39.15,2.2c.31,4.35-1.1,7.7-6.8,8.1S1608.52,319.18,1608.16,314Z"/><path class="cls-5" d="M1625.88,312.86l-.67-9.47c-.37-5.26,1.33-8.48,7.06-8.88s7.93,2.54,8.3,7.8l.67,9.47c.37,5.25-1.36,8.54-7.12,8.94S1626.25,318.12,1625.88,312.86Zm9.7.74-.87-12.27c-.1-1.51-.4-3-2.16-2.85s-1.78,1.61-1.68,3.12l.87,12.27c.1,1.45.34,3,2.1,2.86S1635.68,315.05,1635.58,313.6Z"/><path class="cls-5" d="M1643.78,294.05l6-.43,3.85,14.62,2-15,5.82-.41,2.24,25.46-4,.28L1658,301.61l-1.76,17.17-3.56.25-4.35-16.86.83,17.11-4.06.29Z"/><path class="cls-5" d="M1665.59,292.51l11.45-.81.28,3.84-5.83.41.45,6.33,4.44-.32.27,3.91-4.44.31.54,7.61,5.89-.41.26,3.81-11.51.81Z"/><path class="cls-5" d="M1617.34,195.55a96.82,96.82,0,1,1-37.78,7.63,96.43,96.43,0,0,1,37.78-7.63m0-11.45a108.52,108.52,0,1,0,108.52,108.52A108.52,108.52,0,0,0,1617.34,184.1Z"/><circle class="cls-4" cx="1934.21" cy="292.62" r="108.52"/><path class="cls-5" d="M1994.66,265.48a1,1,0,0,0-1.07-.94l-8.73.53-49.77-49.65a6.88,6.88,0,0,0-2.93-1.74,3.36,3.36,0,0,0-4.13.06,6.82,6.82,0,0,0-3,1.93l-51,56.15-13,.79a1,1,0,0,0-.94,1.07l5.24,86a1,1,0,0,0,1.07.94L1999,352.59a1,1,0,0,0,.94-1.07Zm-67.56-47.59c.56,1.11.73-2.56,2.06-2.56s2.55,1.09,4,2.47l47.64,47.51-102.46,6.25Zm-61.9,62.88a3.53,3.53,0,0,1,3.52-3.53,2.6,2.6,0,0,1,.4,0l-.27.3a1.5,1.5,0,1,0,2.23,2l-1.13,1.63c.34.54,2.3-1.14,2.3-.45a3.53,3.53,0,1,1-7,0Z"/><path class="cls-6" d="M1997.82,260.52l-132.58,8.07a1,1,0,0,0-.94,1.07l5.24,86a1,1,0,0,0,1.07.95l132.57-8.08a1,1,0,0,0,.94-1.07l-5.24-86A1,1,0,0,0,1997.82,260.52Zm-124.88,19.76a3.53,3.53,0,1,1,3.53-3.53A3.53,3.53,0,0,1,1872.94,280.28Zm118.88-9a3.53,3.53,0,1,1,3.53-3.53A3.53,3.53,0,0,1,1991.82,271.28Z"/><path class="cls-6" d="M1874.18,276.07a1.5,1.5,0,0,1-1.11-2.52l56.19-61.9a7,7,0,0,1,10-.25l52.78,52.65a1.51,1.51,0,1,1-2.13,2.13l-52.78-52.64a3.92,3.92,0,0,0-5.68.14l-56.2,61.89A1.51,1.51,0,0,1,1874.18,276.07Z"/><path class="cls-5" d="M1873.58,300.19l4.78-.34,2.56,14.75.88-15,3.74-.26,3,14.58.5-14.87,4.72-.33-1.25,25.71-4.91.34-3.26-15.23-1,15.53-5,.35Z"/><path class="cls-5" d="M1896.55,298.57l11.46-.81.27,3.84-5.82.41.44,6.33,4.44-.32.27,3.9-4.43.32.53,7.61,5.89-.41.27,3.81-11.52.81Z"/><path class="cls-5" d="M1910.62,297.58l5.63-.4,1.53,21.68,5.85-.41.27,3.81-11.48.81Z"/><path class="cls-5" d="M1934.21,195.55a96.82,96.82,0,1,1-37.78,7.63,96.43,96.43,0,0,1,37.78-7.63m0-11.45a108.52,108.52,0,1,0,108.52,108.52A108.53,108.53,0,0,0,1934.21,184.1Z"/><circle class="cls-4" cx="1143.46" cy="44.88" r="108.52"/><path class="cls-5" d="M1203.91,17.74a1,1,0,0,0-1.06-.95l-8.73.54-49.78-49.65a6.82,6.82,0,0,0-2.93-1.74,3.31,3.31,0,0,0-2-.68,3.43,3.43,0,0,0-2.1.73,6.9,6.9,0,0,0-3,1.94l-51,56.15-13,.79a1,1,0,0,0-.94,1.07l5.24,86a1,1,0,0,0,1.07.94l132.57-8.07a1,1,0,0,0,.94-1.07Zm-67.56-47.59c.56,1.11.74-2.56,2.06-2.56s2.56,1.09,4,2.47l47.63,47.51-102.46,6.25ZM1074.45,33A3.53,3.53,0,0,1,1078,29.5a2.56,2.56,0,0,1,.39,0l-.27.3a1.5,1.5,0,0,0,1.12,2.52,1.49,1.49,0,0,0,1.11-.5l-1.13,1.63c.34.54,2.3-1.14,2.3-.45a3.53,3.53,0,1,1-7,0Z"/><path class="cls-6" d="M1207.07,12.78l-132.58,8.07a1,1,0,0,0-.94,1.07l5.24,86a1,1,0,0,0,1.07.94l132.57-8.07a1,1,0,0,0,.94-1.07l-5.24-86A1,1,0,0,0,1207.07,12.78ZM1082.2,32.54a3.53,3.53,0,1,1,3.52-3.53A3.53,3.53,0,0,1,1082.2,32.54Zm118.87-9A3.53,3.53,0,1,1,1204.6,20,3.52,3.52,0,0,1,1201.07,23.54Z"/><path class="cls-6" d="M1083.44,28.33a1.5,1.5,0,0,1-1.12-2.52l56.2-61.9a6.83,6.83,0,0,1,5-2.27,6.85,6.85,0,0,1,5.07,2l52.79,52.65a1.51,1.51,0,0,1-2.13,2.13L1146.43-34.2a3.86,3.86,0,0,0-2.87-1.15,3.89,3.89,0,0,0-2.81,1.29l-56.2,61.89A1.49,1.49,0,0,1,1083.44,28.33Z"/><path class="cls-5" d="M1082.83,52.45l4.79-.34,2.55,14.75.88-15,3.74-.26,3.06,14.58.5-14.87,4.72-.33-1.26,25.71-4.91.34-3.25-15.23-1,15.53-5,.35Z"/><path class="cls-5" d="M1105.81,50.83l11.45-.81.27,3.84-5.82.41.44,6.32,4.44-.31.28,3.9-4.44.32.54,7.61,5.88-.41.27,3.8-11.52.82Z"/><path class="cls-5" d="M1119.87,49.84l5.63-.4L1127,71.12l5.86-.41.27,3.8-11.49.81Z"/><path class="cls-5" d="M1134.28,66.28l-.65-9.19c-.37-5.29,1.23-8.66,7-9.07,5.63-.4,7.54,2.5,7.85,6.85l.16,2.2-5.51.39-.18-2.55c-.1-1.48-.25-3-2-2.93s-1.84,1.75-1.73,3.29l.85,12c.12,1.73.5,3.09,2.17,3s1.71-1.71,1.6-3.25l-.19-2.67,5.51-.39.16,2.2c.3,4.34-1.11,7.7-6.8,8.1S1134.65,71.44,1134.28,66.28Z"/><path class="cls-5" d="M1152,65.12l-.67-9.47c-.37-5.26,1.33-8.48,7.06-8.88s7.92,2.54,8.29,7.8l.67,9.47c.37,5.25-1.36,8.54-7.12,8.94S1152.38,70.38,1152,65.12Zm9.69.74-.86-12.27c-.11-1.51-.4-3-2.16-2.85s-1.79,1.61-1.68,3.12l.86,12.27c.11,1.45.34,3,2.1,2.86S1161.81,67.31,1161.7,65.86Z"/><path class="cls-5" d="M1169.91,46.31l6-.43,3.85,14.62,2-15,5.82-.41,2.24,25.46-4,.28-1.66-16.93L1182.4,71l-3.55.25-4.35-16.86.82,17.11-4.06.29Z"/><path class="cls-5" d="M1191.71,44.77l11.46-.81.27,3.84-5.82.41.44,6.33,4.44-.32.28,3.9-4.44.32.54,7.61,5.88-.41.27,3.81-11.52.81Z"/><path class="cls-5" d="M1143.46-52.19a96.82,96.82,0,0,1,68.64,28.43,97.12,97.12,0,0,1-30.86,158.08,97.35,97.35,0,0,1-75.56,0,97,97,0,0,1-30.85-158.08,96.77,96.77,0,0,1,68.63-28.43m0-11.45A108.52,108.52,0,1,0,1252,44.88,108.52,108.52,0,0,0,1143.46-63.64Z"/><circle class="cls-4" cx="825.5" cy="44.88" r="108.52"/><path class="cls-5" d="M886,17.74a1,1,0,0,0-1.07-.95l-8.73.54L826.38-32.32a6.88,6.88,0,0,0-2.93-1.74,3.35,3.35,0,0,0-2-.68,3.38,3.38,0,0,0-2.1.73,6.93,6.93,0,0,0-3,1.94l-51,56.15-13.05.79a1,1,0,0,0-.94,1.07l5.24,86a1,1,0,0,0,1.06.94l132.58-8.07a1,1,0,0,0,.94-1.07ZM818.39-29.85c.55,1.11.73-2.56,2.06-2.56s2.55,1.09,4,2.47l47.64,47.51L769.67,23.82ZM756.48,33A3.53,3.53,0,0,1,760,29.5a2.6,2.6,0,0,1,.4,0l-.27.3a1.5,1.5,0,1,0,2.23,2l-1.13,1.63c.34.54,2.3-1.14,2.3-.45a3.53,3.53,0,0,1-7.06,0Z"/><path class="cls-6" d="M889.1,12.78,756.53,20.85a1,1,0,0,0-.94,1.07l5.24,86a1,1,0,0,0,1.06.94l132.58-8.07a1,1,0,0,0,.94-1.07l-5.24-86A1,1,0,0,0,889.1,12.78ZM764.23,32.54A3.53,3.53,0,1,1,767.76,29,3.52,3.52,0,0,1,764.23,32.54Zm118.88-9A3.53,3.53,0,1,1,886.64,20,3.53,3.53,0,0,1,883.11,23.54Z"/><path class="cls-6" d="M765.47,28.33a1.5,1.5,0,0,1-1.11-2.52l56.19-61.9a6.86,6.86,0,0,1,5-2.27,6.89,6.89,0,0,1,5.08,2l52.78,52.65a1.51,1.51,0,1,1-2.13,2.13L828.47-34.2a3.88,3.88,0,0,0-2.87-1.15,3.89,3.89,0,0,0-2.82,1.29L766.59,27.83A1.51,1.51,0,0,1,765.47,28.33Z"/><path class="cls-5" d="M764.87,52.45l4.78-.34,2.56,14.75.87-15,3.75-.26,3,14.58.5-14.87L785.1,51l-1.25,25.71-4.91.34-3.26-15.23-1,15.53-5,.35Z"/><path class="cls-5" d="M787.84,50.83,799.3,50l.27,3.84-5.83.41.45,6.32,4.44-.31.27,3.9-4.43.32.53,7.61,5.89-.41.27,3.8-11.52.82Z"/><path class="cls-5" d="M801.91,49.84l5.63-.4,1.53,21.68,5.85-.41.27,3.8-11.48.81Z"/><path class="cls-5" d="M816.32,66.28l-.65-9.19c-.37-5.29,1.22-8.66,7.05-9.07,5.63-.4,7.54,2.5,7.85,6.85l.15,2.2-5.5.39L825,54.91c-.11-1.48-.25-3-2-2.93s-1.84,1.75-1.73,3.29l.84,12c.12,1.73.5,3.09,2.17,3S826,68.53,825.89,67l-.19-2.67,5.51-.39.15,2.2c.31,4.34-1.1,7.7-6.8,8.1S816.68,71.44,816.32,66.28Z"/><path class="cls-5" d="M834,65.12l-.67-9.47c-.37-5.26,1.33-8.48,7.06-8.88s7.93,2.54,8.3,7.8L849.4,64c.37,5.25-1.36,8.54-7.12,8.94S834.41,70.38,834,65.12Zm9.7.74-.87-12.27c-.1-1.51-.4-3-2.16-2.85s-1.78,1.61-1.68,3.12l.87,12.27c.1,1.45.34,3,2.1,2.86S843.84,67.31,843.74,65.86Z"/><path class="cls-5" d="M851.94,46.31l6-.43,3.84,14.62,2-15,5.82-.41,2.24,25.46-4,.28L866.2,53.87,864.44,71l-3.56.25-4.35-16.86.83,17.11-4.06.29Z"/><path class="cls-5" d="M873.75,44.77,885.21,44l.27,3.84-5.83.41.45,6.33,4.44-.32.27,3.9-4.43.32.53,7.61,5.89-.41.27,3.81-11.52.81Z"/><path class="cls-5" d="M825.5-52.19a96.82,96.82,0,0,1,68.64,28.43,97.12,97.12,0,0,1-30.86,158.08,97.35,97.35,0,0,1-75.56,0A97,97,0,0,1,756.86-23.76,96.82,96.82,0,0,1,825.5-52.19m0-11.45A108.52,108.52,0,1,0,934,44.88,108.51,108.51,0,0,0,825.5-63.64Z"/><circle class="cls-4" cx="508.63" cy="44.88" r="108.52"/><path class="cls-5" d="M569.08,17.74a1,1,0,0,0-1.07-.95l-8.73.54L509.51-32.32a6.94,6.94,0,0,0-2.93-1.74,3.35,3.35,0,0,0-2-.68,3.43,3.43,0,0,0-2.11.73,7,7,0,0,0-3,1.94l-51,56.15-13,.79a1,1,0,0,0-.94,1.07l5.24,86a1,1,0,0,0,1.06.94l132.58-8.07a1,1,0,0,0,.94-1.07ZM501.52-29.85c.55,1.11.73-2.56,2.06-2.56s2.55,1.09,4,2.47l47.64,47.51L452.79,23.82ZM439.61,33a3.53,3.53,0,0,1,3.53-3.53,2.69,2.69,0,0,1,.4,0l-.28.3a1.51,1.51,0,1,0,2.24,2l-1.13,1.63c.34.54,2.3-1.14,2.3-.45a3.53,3.53,0,0,1-7.06,0Z"/><path class="cls-6" d="M572.23,12.78,439.66,20.85a1,1,0,0,0-.94,1.07L444,108a1,1,0,0,0,1.06.94l132.58-8.07a1,1,0,0,0,.94-1.07l-5.24-86A1,1,0,0,0,572.23,12.78ZM447.36,32.54A3.53,3.53,0,1,1,450.89,29,3.53,3.53,0,0,1,447.36,32.54Zm118.88-9A3.53,3.53,0,1,1,569.76,20,3.53,3.53,0,0,1,566.24,23.54Z"/><path class="cls-6" d="M448.6,28.33a1.51,1.51,0,0,1-1.12-2.52l56.2-61.9a6.84,6.84,0,0,1,5-2.27,6.89,6.89,0,0,1,5.08,2l52.78,52.65a1.51,1.51,0,0,1-2.13,2.13L511.6-34.2a3.89,3.89,0,0,0-2.87-1.15,3.89,3.89,0,0,0-2.82,1.29L449.72,27.83A1.51,1.51,0,0,1,448.6,28.33Z"/><path class="cls-5" d="M448,52.45l4.78-.34,2.56,14.75.87-15,3.75-.26L463,66.22l.5-14.87,4.72-.33L467,76.73l-4.91.34-3.26-15.23-1,15.53-5,.35Z"/><path class="cls-5" d="M471,50.83,482.42,50l.27,3.84-5.82.41.45,6.32,4.44-.31.27,3.9-4.44.32.54,7.61L484,71.7l.26,3.8-11.51.82Z"/><path class="cls-5" d="M485,49.84l5.63-.4,1.53,21.68,5.85-.41.27,3.8-11.49.81Z"/><path class="cls-5" d="M499.45,66.28l-.65-9.19c-.37-5.29,1.22-8.66,7-9.07,5.64-.4,7.55,2.5,7.86,6.85l.15,2.2-5.51.39-.18-2.55c-.1-1.48-.24-3-2-2.93s-1.83,1.75-1.73,3.29l.85,12c.12,1.73.5,3.09,2.17,3S509.13,68.53,509,67l-.19-2.67,5.5-.39.16,2.2c.31,4.34-1.1,7.7-6.8,8.1S499.81,71.44,499.45,66.28Z"/><path class="cls-5" d="M517.17,65.12l-.67-9.47c-.37-5.26,1.33-8.48,7.06-8.88s7.93,2.54,8.3,7.8l.67,9.47c.37,5.25-1.36,8.54-7.12,8.94S517.54,70.38,517.17,65.12Zm9.7.74L526,53.59c-.1-1.51-.4-3-2.16-2.85s-1.78,1.61-1.68,3.12L523,66.13c.1,1.45.33,3,2.1,2.86S527,67.31,526.87,65.86Z"/><path class="cls-5" d="M535.07,46.31l6-.43L545,60.5l2-15,5.83-.41L555,70.52l-4,.28-1.67-16.93L547.57,71l-3.56.25-4.35-16.86.83,17.11-4.06.29Z"/><path class="cls-5" d="M556.88,44.77,568.33,44l.27,3.84-5.82.41.45,6.33,4.44-.32.27,3.9-4.44.32.54,7.61,5.89-.41.26,3.81-11.51.81Z"/><path class="cls-5" d="M508.63-52.19a96.77,96.77,0,0,1,68.63,28.43,97.13,97.13,0,0,1-30.85,158.08,97.35,97.35,0,0,1-75.56,0A97,97,0,0,1,440-23.76a96.82,96.82,0,0,1,68.64-28.43m0-11.45A108.52,108.52,0,1,0,617.15,44.88,108.51,108.51,0,0,0,508.63-63.64Z"/><circle class="cls-4" cx="185.91" cy="44.88" r="108.52"/><path class="cls-5" d="M246.36,17.74a1,1,0,0,0-1.07-.95l-8.73.54L186.79-32.32a6.94,6.94,0,0,0-2.93-1.74,3.35,3.35,0,0,0-2-.68,3.43,3.43,0,0,0-2.11.73,7,7,0,0,0-3,1.94l-51,56.15-13,.79a1,1,0,0,0-.94,1.07L117,112a1,1,0,0,0,1.06.94l132.58-8.07a1,1,0,0,0,.94-1.07ZM178.8-29.85c.55,1.11.73-2.56,2.06-2.56s2.55,1.09,4,2.47l47.64,47.51L130.07,23.82ZM116.89,33a3.53,3.53,0,0,1,3.53-3.53,2.69,2.69,0,0,1,.4,0l-.28.3a1.51,1.51,0,1,0,2.24,2l-1.13,1.63C122,34,124,32.34,124,33a3.53,3.53,0,0,1-7.06,0Z"/><path class="cls-6" d="M249.51,12.78,116.94,20.85a1,1,0,0,0-.94,1.07l5.24,86a1,1,0,0,0,1.06.94l132.58-8.07a1,1,0,0,0,.94-1.07l-5.24-86A1,1,0,0,0,249.51,12.78ZM124.64,32.54A3.53,3.53,0,1,1,128.17,29,3.53,3.53,0,0,1,124.64,32.54Zm118.88-9A3.53,3.53,0,1,1,247,20,3.53,3.53,0,0,1,243.52,23.54Z"/><path class="cls-6" d="M125.88,28.33a1.51,1.51,0,0,1-1.12-2.52L181-36.09a6.84,6.84,0,0,1,5-2.27,6.89,6.89,0,0,1,5.08,2l52.78,52.65a1.51,1.51,0,1,1-2.13,2.13L188.88-34.2A3.88,3.88,0,0,0,186-35.35a3.89,3.89,0,0,0-2.82,1.29L127,27.83A1.51,1.51,0,0,1,125.88,28.33Z"/><path class="cls-5" d="M125.28,52.45l4.78-.34,2.56,14.75.87-15,3.75-.26,3,14.58.5-14.87,4.72-.33-1.25,25.71-4.91.34-3.26-15.23-1,15.53-5,.35Z"/><path class="cls-5" d="M148.25,50.83,159.7,50l.27,3.84-5.82.41.45,6.32,4.44-.31.27,3.9-4.44.32.54,7.61,5.89-.41.26,3.8-11.51.82Z"/><path class="cls-5" d="M162.32,49.84l5.63-.4,1.53,21.68,5.85-.41.27,3.8-11.49.81Z"/><path class="cls-5" d="M176.73,66.28l-.65-9.19c-.37-5.29,1.22-8.66,7-9.07,5.64-.4,7.55,2.5,7.86,6.85l.15,2.2-5.51.39-.18-2.55c-.1-1.48-.24-3-2-2.93s-1.83,1.75-1.73,3.29l.85,12c.12,1.73.5,3.09,2.17,3s1.72-1.71,1.61-3.25l-.19-2.67,5.5-.39.16,2.2c.31,4.34-1.1,7.7-6.8,8.1S177.09,71.44,176.73,66.28Z"/><path class="cls-5" d="M194.45,65.12l-.67-9.47c-.37-5.26,1.33-8.48,7.06-8.88s7.93,2.54,8.3,7.8l.67,9.47c.37,5.25-1.36,8.54-7.12,8.94S194.82,70.38,194.45,65.12Zm9.7.74-.87-12.27c-.1-1.51-.4-3-2.16-2.85s-1.78,1.61-1.68,3.12l.87,12.27c.1,1.45.33,3,2.1,2.86S204.25,67.31,204.15,65.86Z"/><path class="cls-5" d="M212.35,46.31l6-.43,3.85,14.62,2-15,5.83-.41,2.23,25.46-4,.28-1.67-16.93L224.85,71l-3.56.25-4.35-16.86.83,17.11-4.06.29Z"/><path class="cls-5" d="M234.16,44.77,245.61,44l.27,3.84-5.82.41.45,6.33,4.44-.32.27,3.9-4.44.32.54,7.61,5.89-.41.26,3.81L236,70.26Z"/><path class="cls-5" d="M185.91-52.19a96.77,96.77,0,0,1,68.63,28.43,97.13,97.13,0,0,1-30.85,158.08,97.35,97.35,0,0,1-75.56,0A97,97,0,0,1,117.27-23.76a96.82,96.82,0,0,1,68.64-28.43m0-11.45A108.52,108.52,0,1,0,294.43,44.88,108.51,108.51,0,0,0,185.91-63.64Z"/><circle class="cls-4" cx="1459.76" cy="44.88" r="108.52"/><path class="cls-5" d="M1520.21,17.74a1,1,0,0,0-1.06-.95l-8.74.54-49.77-49.65a6.88,6.88,0,0,0-2.93-1.74,3.35,3.35,0,0,0-2-.68,3.43,3.43,0,0,0-2.1.73,6.93,6.93,0,0,0-3,1.94l-51,56.15-13,.79a1,1,0,0,0-.94,1.07l5.24,86a1,1,0,0,0,1.07.94l132.57-8.07a1,1,0,0,0,.94-1.07Zm-67.56-47.59c.56,1.11.73-2.56,2.06-2.56s2.55,1.09,4,2.47l47.63,47.51-102.46,6.25ZM1390.75,33a3.53,3.53,0,0,1,3.52-3.53,2.6,2.6,0,0,1,.4,0l-.27.3a1.5,1.5,0,1,0,2.23,2l-1.13,1.63c.34.54,2.3-1.14,2.3-.45a3.53,3.53,0,1,1-7,0Z"/><path class="cls-6" d="M1523.37,12.78l-132.58,8.07a1,1,0,0,0-.94,1.07l5.24,86a1,1,0,0,0,1.07.94l132.57-8.07a1,1,0,0,0,.94-1.07l-5.24-86A1,1,0,0,0,1523.37,12.78ZM1398.49,32.54A3.53,3.53,0,1,1,1402,29,3.53,3.53,0,0,1,1398.49,32.54Zm118.88-9A3.53,3.53,0,1,1,1520.9,20,3.53,3.53,0,0,1,1517.37,23.54Z"/><path class="cls-6" d="M1399.73,28.33a1.5,1.5,0,0,1-1.11-2.52l56.19-61.9a6.86,6.86,0,0,1,5-2.27,6.87,6.87,0,0,1,5.08,2l52.78,52.65a1.51,1.51,0,1,1-2.13,2.13L1462.73-34.2a3.88,3.88,0,0,0-2.87-1.15,3.87,3.87,0,0,0-2.81,1.29l-56.2,61.89A1.51,1.51,0,0,1,1399.73,28.33Z"/><path class="cls-5" d="M1399.13,52.45l4.79-.34,2.55,14.75.88-15,3.74-.26,3.05,14.58.51-14.87,4.72-.33-1.26,25.71-4.91.34L1410,61.84l-1,15.53-5,.35Z"/><path class="cls-5" d="M1422.1,50.83l11.46-.81.27,3.84-5.82.41.44,6.32,4.44-.31.28,3.9-4.44.32.54,7.61,5.88-.41.27,3.8-11.52.82Z"/><path class="cls-5" d="M1436.17,49.84l5.63-.4,1.53,21.68,5.86-.41.26,3.8-11.48.81Z"/><path class="cls-5" d="M1450.58,66.28l-.65-9.19c-.37-5.29,1.23-8.66,7-9.07,5.63-.4,7.54,2.5,7.85,6.85l.15,2.2-5.5.39-.18-2.55c-.11-1.48-.25-3-2-2.93s-1.84,1.75-1.73,3.29l.84,12c.13,1.73.51,3.09,2.18,3s1.71-1.71,1.6-3.25l-.19-2.67,5.51-.39.15,2.2c.31,4.34-1.1,7.7-6.79,8.1S1451,71.44,1450.58,66.28Z"/><path class="cls-5" d="M1468.3,65.12l-.66-9.47c-.37-5.26,1.33-8.48,7-8.88s7.93,2.54,8.3,7.8l.67,9.47c.37,5.25-1.36,8.54-7.12,8.94S1468.68,70.38,1468.3,65.12Zm9.7.74-.86-12.27c-.11-1.51-.4-3-2.17-2.85s-1.78,1.61-1.67,3.12l.86,12.27c.1,1.45.34,3,2.1,2.86S1478.1,67.31,1478,65.86Z"/><path class="cls-5" d="M1486.21,46.31l6-.43,3.84,14.62,2-15,5.82-.41,2.24,25.46-4,.28-1.67-16.93L1498.7,71l-3.55.25-4.36-16.86.83,17.11-4.06.29Z"/><path class="cls-5" d="M1508,44.77l11.46-.81.27,3.84-5.82.41.44,6.33,4.44-.32.28,3.9-4.44.32.53,7.61,5.89-.41.27,3.81-11.52.81Z"/><path class="cls-5" d="M1459.76-52.19A97.16,97.16,0,0,1,1549.2,7.1a97.16,97.16,0,0,1-51.66,127.22,97,97,0,0,1-106.41-20.8,97,97,0,0,1,0-137.28,96.77,96.77,0,0,1,68.63-28.43m0-11.45A108.52,108.52,0,1,0,1568.28,44.88,108.52,108.52,0,0,0,1459.76-63.64Z"/><circle class="cls-4" cx="1775.7" cy="44.88" r="108.52"/><path class="cls-5" d="M1836.15,17.74a1,1,0,0,0-1.06-.95l-8.73.54-49.78-49.65a6.82,6.82,0,0,0-2.93-1.74,3.31,3.31,0,0,0-2-.68,3.43,3.43,0,0,0-2.1.73,6.9,6.9,0,0,0-3,1.94l-51,56.15-13,.79a1,1,0,0,0-.94,1.07l5.24,86a1,1,0,0,0,1.07.94l132.57-8.07a1,1,0,0,0,1-1.07Zm-67.56-47.59c.56,1.11.74-2.56,2.07-2.56s2.55,1.09,4,2.47l47.63,47.51-102.46,6.25ZM1706.69,33a3.53,3.53,0,0,1,3.53-3.53,2.56,2.56,0,0,1,.39,0l-.27.3a1.5,1.5,0,0,0,1.12,2.52,1.48,1.48,0,0,0,1.11-.5l-1.13,1.63c.35.54,2.3-1.14,2.3-.45a3.53,3.53,0,1,1-7,0Z"/><path class="cls-6" d="M1839.31,12.78l-132.58,8.07a1,1,0,0,0-.94,1.07l5.25,86a1,1,0,0,0,1.06.94l132.57-8.07a1,1,0,0,0,.95-1.07l-5.25-86A1,1,0,0,0,1839.31,12.78ZM1714.44,32.54A3.53,3.53,0,1,1,1718,29,3.53,3.53,0,0,1,1714.44,32.54Zm118.87-9a3.53,3.53,0,1,1,3.53-3.53A3.53,3.53,0,0,1,1833.31,23.54Z"/><path class="cls-6" d="M1715.68,28.33a1.53,1.53,0,0,1-1-.39,1.51,1.51,0,0,1-.1-2.13l56.2-61.9a6.84,6.84,0,0,1,5-2.27,6.85,6.85,0,0,1,5.07,2l52.79,52.65a1.51,1.51,0,1,1-2.13,2.13L1778.68-34.2a3.9,3.9,0,0,0-2.88-1.15,3.89,3.89,0,0,0-2.81,1.29l-56.2,61.89A1.48,1.48,0,0,1,1715.68,28.33Z"/><path class="cls-5" d="M1715.07,52.45l4.79-.34,2.56,14.75.87-15,3.74-.26,3.06,14.58.5-14.87,4.72-.33-1.26,25.71-4.91.34-3.25-15.23-1,15.53-5,.35Z"/><path class="cls-5" d="M1738.05,50.83,1749.5,50l.27,3.84-5.82.41.45,6.32,4.43-.31.28,3.9-4.44.32.54,7.61,5.88-.41.27,3.8-11.52.82Z"/><path class="cls-5" d="M1752.11,49.84l5.64-.4,1.52,21.68,5.86-.41.27,3.8-11.49.81Z"/><path class="cls-5" d="M1766.52,66.28l-.64-9.19c-.38-5.29,1.22-8.66,7-9.07,5.63-.4,7.55,2.5,7.85,6.85l.16,2.2-5.51.39-.18-2.55c-.1-1.48-.25-3-2-2.93s-1.84,1.75-1.73,3.29l.85,12c.12,1.73.5,3.09,2.17,3s1.71-1.71,1.6-3.25l-.19-2.67,5.51-.39.16,2.2c.3,4.34-1.1,7.7-6.8,8.1S1766.89,71.44,1766.52,66.28Z"/><path class="cls-5" d="M1784.25,65.12l-.67-9.47c-.37-5.26,1.33-8.48,7.06-8.88s7.92,2.54,8.3,7.8l.66,9.47c.37,5.25-1.36,8.54-7.11,8.94S1784.62,70.38,1784.25,65.12Zm9.69.74-.86-12.27c-.11-1.51-.4-3-2.16-2.85s-1.79,1.61-1.68,3.12l.86,12.27c.11,1.45.34,3,2.1,2.86S1794.05,67.31,1793.94,65.86Z"/><path class="cls-5" d="M1802.15,46.31l6-.43L1812,60.5l2-15,5.82-.41,2.24,25.46-4,.28-1.66-16.93L1814.64,71l-3.55.25-4.35-16.86.82,17.11-4,.29Z"/><path class="cls-5" d="M1824,44.77l11.45-.81.27,3.84-5.82.41.44,6.33,4.44-.32.28,3.9-4.44.32.54,7.61,5.88-.41.27,3.81-11.52.81Z"/><path class="cls-5" d="M1775.7-52.19a96.82,96.82,0,0,1,68.64,28.43,97.12,97.12,0,0,1-30.86,158.08,97.35,97.35,0,0,1-75.56,0,97,97,0,0,1-30.85-158.08,96.77,96.77,0,0,1,68.63-28.43m0-11.45A108.52,108.52,0,1,0,1884.23,44.88,108.52,108.52,0,0,0,1775.7-63.64Z"/><circle class="cls-4" cx="985.1" cy="787.74" r="108.52"/><path class="cls-5" d="M1045.55,760.6a1,1,0,0,0-1.07-.94l-8.73.53L986,710.54a6.94,6.94,0,0,0-2.93-1.74,3.37,3.37,0,0,0-4.14.06,6.84,6.84,0,0,0-3,1.93l-51,56.15-13,.79a1,1,0,0,0-.94,1.07l5.24,86a1,1,0,0,0,1.06.95l132.58-8.08a1,1,0,0,0,.94-1.07ZM978,713c.55,1.11.73-2.56,2.06-2.56s2.55,1.09,4,2.47l47.64,47.51-102.47,6.25Zm-61.91,62.88a3.52,3.52,0,0,1,3.53-3.52,2.68,2.68,0,0,1,.4,0l-.28.3a1.51,1.51,0,1,0,2.24,2l-1.13,1.63c.34.55,2.3-1.14,2.3-.45a3.53,3.53,0,0,1-7.06,0Z"/><path class="cls-6" d="M1048.7,755.64l-132.57,8.07a1,1,0,0,0-.94,1.07l5.24,86a1,1,0,0,0,1.06.95l132.58-8.08a1,1,0,0,0,.94-1.07l-5.24-86A1,1,0,0,0,1048.7,755.64ZM923.83,775.4a3.53,3.53,0,1,1,3.53-3.53A3.53,3.53,0,0,1,923.83,775.4Zm118.88-9a3.53,3.53,0,1,1,3.52-3.53A3.53,3.53,0,0,1,1042.71,766.4Z"/><path class="cls-6" d="M925.07,771.19a1.51,1.51,0,0,1-1.12-2.52l56.2-61.9a7,7,0,0,1,10.05-.25L1043,759.17a1.51,1.51,0,0,1-2.13,2.13l-52.78-52.64a3.88,3.88,0,0,0-2.87-1.15,3.93,3.93,0,0,0-2.82,1.29l-56.19,61.9A1.54,1.54,0,0,1,925.07,771.19Z"/><circle class="cls-7" cx="985.24" cy="707.49" r="3.39"/><path class="cls-5" d="M924.47,795.31l4.78-.34,2.56,14.75.87-15,3.75-.26,3.05,14.58.5-14.87,4.72-.33-1.25,25.71-4.91.34-3.26-15.23-1,15.53-5,.35Z"/><path class="cls-5" d="M947.44,793.69l11.45-.81.28,3.84-5.83.41.45,6.33,4.44-.32.27,3.91-4.44.31.54,7.61,5.89-.41.26,3.81-11.51.81Z"/><path class="cls-5" d="M961.51,792.7l5.63-.4L968.67,814l5.85-.41.27,3.81-11.49.81Z"/><path class="cls-5" d="M975.92,809.14l-.65-9.19c-.37-5.29,1.22-8.66,7-9.07,5.64-.4,7.55,2.5,7.86,6.85l.15,2.2-5.51.39-.18-2.55c-.1-1.48-.24-3-2-2.92s-1.83,1.74-1.73,3.28l.85,12c.12,1.73.5,3.1,2.17,3s1.72-1.7,1.61-3.25l-.19-2.67,5.5-.39L991,809c.31,4.35-1.1,7.7-6.8,8.1S976.28,814.3,975.92,809.14Z"/><path class="cls-5" d="M993.64,808l-.67-9.47c-.37-5.26,1.33-8.47,7.06-8.88s7.93,2.54,8.3,7.8l.67,9.47c.37,5.25-1.36,8.54-7.12,8.94S994,813.24,993.64,808Zm9.7.74-.87-12.27c-.1-1.51-.4-3-2.16-2.85s-1.78,1.61-1.68,3.12L999.5,809c.1,1.45.34,3,2.1,2.86S1003.44,810.17,1003.34,808.72Z"/><path class="cls-5" d="M1011.54,789.17l6-.43,3.85,14.63,2-15,5.82-.41,2.24,25.46-4,.28-1.67-16.93L1024,813.9l-3.56.25-4.35-16.86.83,17.11-4.06.29Z"/><path class="cls-5" d="M1033.35,787.63l11.45-.81.27,3.84-5.82.41.45,6.33,4.44-.32.27,3.91-4.44.31.54,7.61,5.89-.41.26,3.81-11.51.81Z"/><path class="cls-5" d="M985.1,690.67a96.82,96.82,0,1,1-37.78,7.63,96.43,96.43,0,0,1,37.78-7.63m0-11.45a108.52,108.52,0,1,0,108.52,108.52A108.52,108.52,0,0,0,985.1,679.22Z"/><circle class="cls-4" cx="667.13" cy="787.74" r="108.52"/><path class="cls-5" d="M727.58,760.6a1,1,0,0,0-1.06-.94l-8.73.53L668,710.54a6.82,6.82,0,0,0-2.93-1.74,3.31,3.31,0,0,0-2-.68,3.37,3.37,0,0,0-2.1.74,6.79,6.79,0,0,0-3,1.93l-51,56.15-13,.79a1,1,0,0,0-.94,1.07l5.24,86a1,1,0,0,0,1.07.95l132.57-8.08a1,1,0,0,0,1-1.07ZM660,713c.56,1.11.74-2.56,2.07-2.56s2.55,1.09,4,2.47l47.63,47.51L611.3,766.68Zm-61.9,62.88a3.52,3.52,0,0,1,3.53-3.52,2.55,2.55,0,0,1,.39,0l-.27.3a1.5,1.5,0,0,0,1.12,2.52,1.48,1.48,0,0,0,1.11-.5l-1.13,1.63c.35.55,2.3-1.14,2.3-.45a3.53,3.53,0,1,1-7,0Z"/><path class="cls-6" d="M730.74,755.64l-132.58,8.07a1,1,0,0,0-.94,1.07l5.25,86a1,1,0,0,0,1.06.95l132.57-8.08a1,1,0,0,0,.95-1.07l-5.25-86A1,1,0,0,0,730.74,755.64ZM605.87,775.4a3.53,3.53,0,1,1,3.52-3.53A3.53,3.53,0,0,1,605.87,775.4Zm118.87-9a3.53,3.53,0,1,1,3.53-3.53A3.53,3.53,0,0,1,724.74,766.4Z"/><path class="cls-6" d="M607.11,771.19a1.53,1.53,0,0,1-1-.39,1.51,1.51,0,0,1-.1-2.13l56.2-61.9a6.95,6.95,0,0,1,10-.25L725,759.17a1.51,1.51,0,0,1-2.13,2.13l-52.78-52.64a3.93,3.93,0,0,0-5.69.14l-56.2,61.9A1.5,1.5,0,0,1,607.11,771.19Z"/><circle class="cls-7" cx="667.28" cy="707.49" r="3.39"/><path class="cls-5" d="M606.5,795.31l4.79-.34,2.56,14.75.87-15,3.74-.26,3.06,14.58.5-14.87,4.72-.33-1.26,25.71-4.91.34-3.25-15.23-1,15.53-5,.35Z"/><path class="cls-5" d="M629.48,793.69l11.45-.81.27,3.84-5.82.41.45,6.33,4.43-.32.28,3.91-4.44.31.54,7.61,5.88-.41.27,3.81-11.52.81Z"/><path class="cls-5" d="M643.54,792.7l5.64-.4L650.7,814l5.86-.41.27,3.81-11.49.81Z"/><path class="cls-5" d="M658,809.14l-.64-9.19c-.38-5.29,1.22-8.66,7-9.07,5.63-.4,7.55,2.5,7.85,6.85l.16,2.2-5.51.39-.18-2.55c-.1-1.48-.25-3-2-2.92s-1.84,1.74-1.73,3.28l.85,12c.12,1.73.5,3.1,2.17,3s1.71-1.7,1.6-3.25l-.19-2.67,5.51-.39L673,809c.3,4.35-1.1,7.7-6.8,8.1S658.32,814.3,658,809.14Z"/><path class="cls-5" d="M675.68,808l-.67-9.47c-.37-5.26,1.33-8.47,7.06-8.88s7.92,2.54,8.29,7.8l.67,9.47c.37,5.25-1.36,8.54-7.11,8.94S676.05,813.24,675.68,808Zm9.69.74-.86-12.27c-.11-1.51-.4-3-2.16-2.85s-1.79,1.61-1.68,3.12l.86,12.27c.11,1.45.34,3,2.1,2.86S685.48,810.17,685.37,808.72Z"/><path class="cls-5" d="M693.58,789.17l6-.43,3.85,14.63,2-15,5.82-.41,2.24,25.46-4,.28-1.66-16.93-1.77,17.17-3.55.25-4.35-16.86L699,814.4l-4,.29Z"/><path class="cls-5" d="M715.39,787.63l11.45-.81.27,3.84-5.82.41.44,6.33,4.44-.32.28,3.91-4.44.31.54,7.61,5.88-.41.27,3.81-11.52.81Z"/><path class="cls-5" d="M667.13,690.67a96.77,96.77,0,1,1-37.78,7.63,96.43,96.43,0,0,1,37.78-7.63m0-11.45A108.52,108.52,0,1,0,775.66,787.74,108.53,108.53,0,0,0,667.13,679.22Z"/><circle class="cls-4" cx="350.26" cy="787.74" r="108.52"/><path class="cls-5" d="M410.71,760.6a1,1,0,0,0-1.06-.94l-8.74.53-49.77-49.65a6.88,6.88,0,0,0-2.93-1.74,3.36,3.36,0,0,0-4.13.06,6.82,6.82,0,0,0-3,1.93l-51,56.15-13.05.79a1,1,0,0,0-.94,1.07l5.24,86a1,1,0,0,0,1.07.95L415,847.71a1,1,0,0,0,.94-1.07ZM343.15,713c.56,1.11.73-2.56,2.06-2.56s2.55,1.09,4.05,2.47l47.63,47.51-102.46,6.25Zm-61.9,62.88a3.52,3.52,0,0,1,3.52-3.52,2.61,2.61,0,0,1,.4,0l-.27.3a1.5,1.5,0,1,0,2.23,2L286,776.34c.34.55,2.3-1.14,2.3-.45a3.53,3.53,0,1,1-7.05,0Z"/><path class="cls-6" d="M413.87,755.64l-132.58,8.07a1,1,0,0,0-.94,1.07l5.24,86a1,1,0,0,0,1.07.95l132.57-8.08a1,1,0,0,0,.94-1.07l-5.24-86A1,1,0,0,0,413.87,755.64ZM289,775.4a3.53,3.53,0,1,1,3.53-3.53A3.53,3.53,0,0,1,289,775.4Zm118.88-9a3.53,3.53,0,1,1,3.53-3.53A3.53,3.53,0,0,1,407.87,766.4Z"/><path class="cls-6" d="M290.23,771.19a1.5,1.5,0,0,1-1.11-2.52l56.19-61.9a7,7,0,0,1,10.05-.25l52.78,52.65A1.51,1.51,0,1,1,406,761.3l-52.78-52.64a3.92,3.92,0,0,0-5.68.14l-56.2,61.9A1.54,1.54,0,0,1,290.23,771.19Z"/><circle class="cls-7" cx="350.4" cy="707.49" r="3.39"/><path class="cls-5" d="M289.63,795.31l4.79-.34L297,809.72l.88-15,3.74-.26,3.05,14.58.51-14.87,4.72-.33-1.26,25.71-4.91.34-3.25-15.23-1,15.53-5,.35Z"/><path class="cls-5" d="M312.6,793.69l11.46-.81.27,3.84-5.82.41.44,6.33,4.44-.32.28,3.91-4.44.31.54,7.61,5.88-.41.27,3.81-11.52.81Z"/><path class="cls-5" d="M326.67,792.7l5.63-.4L333.83,814l5.86-.41.26,3.81-11.48.81Z"/><path class="cls-5" d="M341.08,809.14l-.65-9.19c-.37-5.29,1.23-8.66,7.05-9.07,5.63-.4,7.54,2.5,7.85,6.85l.15,2.2-5.5.39-.18-2.55c-.11-1.48-.25-3-2-2.92s-1.84,1.74-1.73,3.28l.84,12c.13,1.73.51,3.1,2.18,3s1.71-1.7,1.6-3.25l-.19-2.67,5.51-.39.15,2.2c.31,4.35-1.1,7.7-6.79,8.1S341.45,814.3,341.08,809.14Z"/><path class="cls-5" d="M358.8,808l-.66-9.47c-.37-5.26,1.33-8.47,7.05-8.88s7.93,2.54,8.3,7.8l.67,9.47c.37,5.25-1.36,8.54-7.12,8.94S359.18,813.24,358.8,808Zm9.7.74-.86-12.27c-.11-1.51-.4-3-2.17-2.85s-1.78,1.61-1.67,3.12l.86,12.27c.1,1.45.34,3,2.1,2.86S368.6,810.17,368.5,808.72Z"/><path class="cls-5" d="M376.71,789.17l6-.43,3.84,14.63,2-15,5.82-.41,2.24,25.46-4,.28L391,796.73,389.2,813.9l-3.55.25-4.36-16.86.83,17.11-4.06.29Z"/><path class="cls-5" d="M398.51,787.63l11.46-.81.27,3.84-5.82.41.44,6.33,4.44-.32.28,3.91-4.44.31.53,7.61,5.89-.41.27,3.81-11.52.81Z"/><path class="cls-5" d="M350.26,690.67a96.77,96.77,0,1,1-37.78,7.63,96.43,96.43,0,0,1,37.78-7.63m0-11.45A108.52,108.52,0,1,0,458.78,787.74,108.53,108.53,0,0,0,350.26,679.22Z"/><circle class="cls-4" cx="27.54" cy="787.74" r="108.52"/><path class="cls-5" d="M88,760.6a1,1,0,0,0-1.06-.94l-8.74.53L28.42,710.54a6.88,6.88,0,0,0-2.93-1.74,3.36,3.36,0,0,0-4.13.06,6.82,6.82,0,0,0-3,1.93l-51,56.15-13,.79a1,1,0,0,0-.94,1.07l5.24,86a1,1,0,0,0,1.07.95l132.57-8.08a1,1,0,0,0,.94-1.07ZM20.43,713c.56,1.11.73-2.56,2.06-2.56s2.55,1.09,4.05,2.47l47.63,47.51-102.46,6.25Zm-61.9,62.88a3.52,3.52,0,0,1,3.52-3.52,2.61,2.61,0,0,1,.4,0l-.27.3a1.51,1.51,0,0,0,.1,2.13,1.51,1.51,0,0,0,1,.39,1.51,1.51,0,0,0,1.12-.5l-1.13,1.63c.34.55,2.3-1.14,2.3-.45a3.53,3.53,0,0,1-3.53,3.53A3.53,3.53,0,0,1-41.47,775.89Z"/><path class="cls-6" d="M91.15,755.64l-132.58,8.07a1,1,0,0,0-.94,1.07l5.24,86a1,1,0,0,0,1.07.95l132.57-8.08a1,1,0,0,0,.94-1.07l-5.24-86A1,1,0,0,0,91.15,755.64ZM-33.73,775.4a3.53,3.53,0,0,1-3.52-3.53,3.52,3.52,0,0,1,3.52-3.52,3.52,3.52,0,0,1,3.53,3.52A3.53,3.53,0,0,1-33.73,775.4Zm118.88-9a3.53,3.53,0,1,1,3.53-3.53A3.53,3.53,0,0,1,85.15,766.4Z"/><path class="cls-6" d="M-32.49,771.19a1.51,1.51,0,0,1-1-.39,1.51,1.51,0,0,1-.1-2.13l56.19-61.9a7,7,0,0,1,10.05-.25l52.78,52.65a1.5,1.5,0,1,1-2.12,2.13L30.51,708.66a3.92,3.92,0,0,0-5.68.14l-56.2,61.9A1.54,1.54,0,0,1-32.49,771.19Z"/><circle class="cls-7" cx="27.68" cy="707.49" r="3.39"/><path class="cls-5" d="M-10.12,793.69l11.46-.81.27,3.84-5.82.41.44,6.33,4.44-.32L1,807.05l-4.44.31.54,7.61,5.88-.41.27,3.81-11.52.81Z"/><path class="cls-5" d="M4,792.7l5.63-.4L11.11,814l5.86-.41.26,3.81-11.48.81Z"/><path class="cls-5" d="M18.36,809.14,17.71,800c-.37-5.29,1.23-8.66,7.05-9.07,5.63-.4,7.54,2.5,7.85,6.85l.16,2.2-5.51.39-.18-2.55c-.11-1.48-.25-3-2-2.92s-1.84,1.74-1.73,3.28l.84,12c.13,1.73.51,3.1,2.18,3s1.71-1.7,1.6-3.25l-.19-2.67,5.51-.39.15,2.2c.31,4.35-1.1,7.7-6.79,8.1S18.73,814.3,18.36,809.14Z"/><path class="cls-5" d="M36.08,808l-.66-9.47c-.37-5.26,1.33-8.47,7-8.88s7.93,2.54,8.3,7.8l.67,9.47c.37,5.25-1.36,8.54-7.12,8.94S36.46,813.24,36.08,808Zm9.7.74-.86-12.27c-.11-1.51-.4-3-2.17-2.85s-1.78,1.61-1.67,3.12L41.94,809c.1,1.45.34,3,2.1,2.86S45.88,810.17,45.78,808.72Z"/><path class="cls-5" d="M54,789.17l6-.43,3.84,14.63,2-15,5.82-.41,2.24,25.46-4,.28-1.67-16.93L66.48,813.9l-3.55.25-4.36-16.86.83,17.11-4.06.29Z"/><path class="cls-5" d="M75.79,787.63l11.46-.81.27,3.84-5.82.41.44,6.33,4.44-.32.28,3.91-4.44.31.54,7.61,5.88-.41.27,3.81-11.52.81Z"/><path class="cls-5" d="M27.54,690.67A97.16,97.16,0,0,1,117,750a97,97,0,0,1-20.8,106.42,96.82,96.82,0,0,1-68.64,28.43A97.2,97.2,0,0,1-61.9,825.52a97.47,97.47,0,0,1,0-75.56,97,97,0,0,1,89.44-59.29m0-11.45A108.52,108.52,0,1,0,136.06,787.74,108.53,108.53,0,0,0,27.54,679.22Z"/><circle class="cls-4" cx="1301.4" cy="787.74" r="108.52"/><path class="cls-5" d="M1361.84,760.6a1,1,0,0,0-1.06-.94l-8.73.53-49.77-49.65a6.92,6.92,0,0,0-2.94-1.74,3.3,3.3,0,0,0-2-.68,3.38,3.38,0,0,0-2.11.74,6.84,6.84,0,0,0-3,1.93l-51,56.15-13,.79a1,1,0,0,0-1,1.07l5.25,86a1,1,0,0,0,1.06.95l132.58-8.08a1,1,0,0,0,.94-1.07ZM1294.29,713c.55,1.11.73-2.56,2.06-2.56s2.55,1.09,4,2.47L1348,760.43l-102.47,6.25Zm-61.91,62.88a3.52,3.52,0,0,1,3.53-3.52,2.75,2.75,0,0,1,.4,0l-.28.3a1.51,1.51,0,0,0,1.12,2.52,1.48,1.48,0,0,0,1.11-.5l-1.12,1.63c.34.55,2.3-1.14,2.3-.45a3.53,3.53,0,0,1-7.06,0Z"/><path class="cls-6" d="M1365,755.64l-132.57,8.07a1,1,0,0,0-1,1.07l5.25,86a1,1,0,0,0,1.06.95l132.58-8.08a1,1,0,0,0,.94-1.07l-5.25-86A1,1,0,0,0,1365,755.64ZM1240.13,775.4a3.53,3.53,0,1,1,3.53-3.53A3.53,3.53,0,0,1,1240.13,775.4Zm118.88-9a3.53,3.53,0,1,1,3.52-3.53A3.53,3.53,0,0,1,1359,766.4Z"/><path class="cls-6" d="M1241.37,771.19a1.51,1.51,0,0,1-1.12-2.52l56.2-61.9a7,7,0,0,1,10-.25l52.78,52.65a1.51,1.51,0,1,1-2.13,2.13l-52.78-52.64a3.93,3.93,0,0,0-5.69.14l-56.19,61.9A1.54,1.54,0,0,1,1241.37,771.19Z"/><circle class="cls-7" cx="1301.54" cy="707.49" r="3.39"/><path class="cls-5" d="M1240.77,795.31l4.78-.34,2.56,14.75.87-15,3.75-.26,3,14.58.5-14.87,4.72-.33-1.25,25.71-4.91.34-3.26-15.23-1,15.53-5,.35Z"/><path class="cls-5" d="M1263.74,793.69l11.45-.81.27,3.84-5.82.41.45,6.33,4.44-.32.27,3.91-4.44.31.54,7.61,5.88-.41.27,3.81-11.51.81Z"/><path class="cls-5" d="M1277.8,792.7l5.64-.4L1285,814l5.85-.41.27,3.81-11.49.81Z"/><path class="cls-5" d="M1292.22,809.14l-.65-9.19c-.37-5.29,1.22-8.66,7-9.07,5.64-.4,7.55,2.5,7.85,6.85l.16,2.2-5.51.39-.18-2.55c-.1-1.48-.24-3-2-2.92s-1.84,1.74-1.73,3.28l.85,12c.12,1.73.5,3.1,2.17,3s1.71-1.7,1.61-3.25l-.19-2.67,5.5-.39.16,2.2c.3,4.35-1.1,7.7-6.8,8.1S1292.58,814.3,1292.22,809.14Z"/><path class="cls-5" d="M1309.94,808l-.67-9.47c-.37-5.26,1.33-8.47,7.06-8.88s7.93,2.54,8.3,7.8l.67,9.47c.37,5.25-1.36,8.54-7.12,8.94S1310.31,813.24,1309.94,808Zm9.7.74-.87-12.27c-.11-1.51-.4-3-2.16-2.85s-1.79,1.61-1.68,3.12l.87,12.27c.1,1.45.33,3,2.1,2.86S1319.74,810.17,1319.64,808.72Z"/><path class="cls-5" d="M1327.84,789.17l6-.43,3.85,14.63,2-15,5.83-.41,2.23,25.46-4,.28-1.67-16.93-1.76,17.17-3.56.25-4.35-16.86.83,17.11-4.06.29Z"/><path class="cls-5" d="M1349.65,787.63l11.45-.81.27,3.84-5.82.41.45,6.33,4.43-.32.28,3.91-4.44.31.54,7.61,5.88-.41.27,3.81-11.51.81Z"/><path class="cls-5" d="M1301.4,690.67a96.82,96.82,0,1,1-37.78,7.63,96.43,96.43,0,0,1,37.78-7.63m0-11.45a108.52,108.52,0,1,0,108.52,108.52A108.53,108.53,0,0,0,1301.4,679.22Z"/><circle class="cls-4" cx="1617.34" cy="787.74" r="108.52"/><path class="cls-5" d="M1677.79,760.6a1,1,0,0,0-1.07-.94l-8.73.53-49.77-49.65a6.94,6.94,0,0,0-2.93-1.74,3.37,3.37,0,0,0-4.14.06,6.84,6.84,0,0,0-3,1.93l-51,56.15-13,.79a1,1,0,0,0-.94,1.07l5.24,86a1,1,0,0,0,1.06.95l132.58-8.08a1,1,0,0,0,.94-1.07ZM1610.23,713c.55,1.11.73-2.56,2.06-2.56s2.55,1.09,4,2.47L1664,760.43l-102.46,6.25Zm-61.91,62.88a3.52,3.52,0,0,1,3.53-3.52,2.61,2.61,0,0,1,.4,0l-.27.3a1.5,1.5,0,1,0,2.23,2l-1.13,1.63c.34.55,2.3-1.14,2.3-.45a3.53,3.53,0,1,1-7.06,0Z"/><path class="cls-6" d="M1680.94,755.64l-132.57,8.07a1,1,0,0,0-.94,1.07l5.24,86a1,1,0,0,0,1.06.95l132.58-8.08a1,1,0,0,0,.94-1.07l-5.24-86A1,1,0,0,0,1680.94,755.64ZM1556.07,775.4a3.53,3.53,0,1,1,3.53-3.53A3.53,3.53,0,0,1,1556.07,775.4Zm118.88-9a3.53,3.53,0,1,1,3.52-3.53A3.53,3.53,0,0,1,1675,766.4Z"/><path class="cls-6" d="M1557.31,771.19a1.5,1.5,0,0,1-1.11-2.52l56.19-61.9a7,7,0,0,1,10-.25l52.78,52.65a1.51,1.51,0,0,1-2.13,2.13l-52.78-52.64a3.88,3.88,0,0,0-2.87-1.15,3.93,3.93,0,0,0-2.82,1.29l-56.19,61.9A1.54,1.54,0,0,1,1557.31,771.19Z"/><circle class="cls-7" cx="1617.48" cy="707.49" r="3.39"/><path class="cls-5" d="M1556.71,795.31l4.78-.34,2.56,14.75.87-15,3.75-.26,3,14.58.5-14.87,4.72-.33-1.25,25.71-4.91.34-3.26-15.23-1,15.53-5,.35Z"/><path class="cls-5" d="M1579.68,793.69l11.46-.81.27,3.84-5.83.41.45,6.33,4.44-.32.27,3.91-4.43.31.53,7.61,5.89-.41.27,3.81-11.52.81Z"/><path class="cls-5" d="M1593.75,792.7l5.63-.4,1.53,21.68,5.85-.41.27,3.81-11.49.81Z"/><path class="cls-5" d="M1608.16,809.14l-.65-9.19c-.37-5.29,1.22-8.66,7-9.07,5.63-.4,7.54,2.5,7.85,6.85l.15,2.2-5.5.39-.18-2.55c-.11-1.48-.25-3-2.05-2.92s-1.83,1.74-1.72,3.28l.84,12c.12,1.73.5,3.1,2.17,3s1.72-1.7,1.61-3.25l-.19-2.67,5.51-.39.15,2.2c.31,4.35-1.1,7.7-6.8,8.1S1608.52,814.3,1608.16,809.14Z"/><path class="cls-5" d="M1625.88,808l-.67-9.47c-.37-5.26,1.33-8.47,7.06-8.88s7.93,2.54,8.3,7.8l.67,9.47c.37,5.25-1.36,8.54-7.12,8.94S1626.25,813.24,1625.88,808Zm9.7.74-.87-12.27c-.1-1.51-.4-3-2.16-2.85s-1.78,1.61-1.68,3.12l.87,12.27c.1,1.45.34,3,2.1,2.86S1635.68,810.17,1635.58,808.72Z"/><path class="cls-5" d="M1643.78,789.17l6-.43,3.85,14.63,2-15,5.82-.41,2.24,25.46-4,.28L1658,796.73l-1.76,17.17-3.56.25-4.35-16.86.83,17.11-4.06.29Z"/><path class="cls-5" d="M1665.59,787.63l11.45-.81.28,3.84-5.83.41.45,6.33,4.44-.32.27,3.91-4.44.31.54,7.61,5.89-.41.26,3.81-11.51.81Z"/><path class="cls-5" d="M1617.34,690.67a96.82,96.82,0,1,1-37.78,7.63,96.43,96.43,0,0,1,37.78-7.63m0-11.45a108.52,108.52,0,1,0,108.52,108.52,108.52,108.52,0,0,0-108.52-108.52Z"/><circle class="cls-4" cx="1934.21" cy="787.74" r="108.52"/><path class="cls-5" d="M1994.66,760.6a1,1,0,0,0-1.07-.94l-8.73.53-49.77-49.65a6.88,6.88,0,0,0-2.93-1.74,3.36,3.36,0,0,0-4.13.06,6.82,6.82,0,0,0-3,1.93l-51,56.15-13,.79a1,1,0,0,0-.94,1.07l5.24,86a1,1,0,0,0,1.07.95L1999,847.71a1,1,0,0,0,.94-1.07ZM1927.1,713c.56,1.11.73-2.56,2.06-2.56s2.55,1.09,4,2.47l47.64,47.51-102.46,6.25Zm-61.9,62.88a3.52,3.52,0,0,1,3.52-3.52,2.61,2.61,0,0,1,.4,0l-.27.3a1.5,1.5,0,1,0,2.23,2l-1.13,1.63c.34.55,2.3-1.14,2.3-.45a3.53,3.53,0,1,1-7,0Z"/><path class="cls-6" d="M1997.82,755.64l-132.58,8.07a1,1,0,0,0-.94,1.07l5.24,86a1,1,0,0,0,1.07.95l132.57-8.08a1,1,0,0,0,.94-1.07l-5.24-86A1,1,0,0,0,1997.82,755.64ZM1872.94,775.4a3.53,3.53,0,1,1,3.53-3.53A3.53,3.53,0,0,1,1872.94,775.4Zm118.88-9a3.53,3.53,0,1,1,3.53-3.53A3.53,3.53,0,0,1,1991.82,766.4Z"/><path class="cls-6" d="M1874.18,771.19a1.5,1.5,0,0,1-1.11-2.52l56.19-61.9a7,7,0,0,1,10-.25l52.78,52.65a1.51,1.51,0,1,1-2.13,2.13l-52.78-52.64a3.92,3.92,0,0,0-5.68.14l-56.2,61.9A1.54,1.54,0,0,1,1874.18,771.19Z"/><path class="cls-5" d="M1873.58,795.31l4.78-.34,2.56,14.75.88-15,3.74-.26,3,14.58.5-14.87,4.72-.33-1.25,25.71-4.91.34-3.26-15.23-1,15.53-5,.35Z"/><path class="cls-5" d="M1896.55,793.69l11.46-.81.27,3.84-5.82.41.44,6.33,4.44-.32.27,3.91-4.43.31.53,7.61,5.89-.41.27,3.81-11.52.81Z"/><path class="cls-5" d="M1910.62,792.7l5.63-.4,1.53,21.68,5.85-.41.27,3.81-11.48.81Z"/><path class="cls-5" d="M1934.21,690.67a96.82,96.82,0,1,1-37.78,7.63,96.43,96.43,0,0,1,37.78-7.63m0-11.45a108.52,108.52,0,1,0,108.52,108.52,108.53,108.53,0,0,0-108.52-108.52Z"/><circle class="cls-4" cx="1143.46" cy="540" r="108.52"/><path class="cls-5" d="M1203.91,512.86a1,1,0,0,0-1.06-.94l-8.73.53-49.78-49.65a6.82,6.82,0,0,0-2.93-1.74,3.31,3.31,0,0,0-2-.68,3.37,3.37,0,0,0-2.1.74,6.79,6.79,0,0,0-3,1.93l-51,56.15-13,.79a1,1,0,0,0-.94,1.07l5.24,86a1,1,0,0,0,1.07.94L1208.21,600a1,1,0,0,0,.94-1.07Zm-67.56-47.59c.56,1.11.74-2.56,2.06-2.56s2.56,1.09,4,2.47l47.63,47.51-102.46,6.25Zm-61.9,62.88a3.53,3.53,0,0,1,3.53-3.53l.39,0-.27.3a1.5,1.5,0,0,0,1.12,2.52,1.49,1.49,0,0,0,1.11-.5l-1.13,1.63c.34.55,2.3-1.14,2.3-.45a3.53,3.53,0,1,1-7,0Z"/><path class="cls-6" d="M1207.07,507.9,1074.49,516a1,1,0,0,0-.94,1.07l5.24,86a1,1,0,0,0,1.07.95L1212.43,596a1,1,0,0,0,.94-1.07l-5.24-86A1,1,0,0,0,1207.07,507.9ZM1082.2,527.66a3.53,3.53,0,1,1,3.52-3.53A3.53,3.53,0,0,1,1082.2,527.66Zm118.87-9a3.53,3.53,0,1,1,3.53-3.53A3.52,3.52,0,0,1,1201.07,518.66Z"/><path class="cls-6" d="M1083.44,523.45a1.5,1.5,0,0,1-1.12-2.52l56.2-61.9a6.95,6.95,0,0,1,10-.25l52.79,52.65a1.51,1.51,0,0,1-2.13,2.13l-52.79-52.64a3.86,3.86,0,0,0-2.87-1.15,3.93,3.93,0,0,0-2.81,1.29l-56.2,61.9A1.52,1.52,0,0,1,1083.44,523.45Z"/><circle class="cls-7" cx="1143.6" cy="459.75" r="3.39"/><path class="cls-5" d="M1082.83,547.57l4.79-.34,2.55,14.75.88-15,3.74-.26,3.06,14.58.5-14.87,4.72-.33-1.26,25.71-4.91.34L1093.65,557l-1,15.53-5,.35Z"/><path class="cls-5" d="M1105.81,546l11.45-.81.27,3.84-5.82.41.44,6.33,4.44-.32.28,3.9-4.44.32.54,7.61,5.88-.41.27,3.81-11.52.81Z"/><path class="cls-5" d="M1119.87,545l5.63-.4,1.53,21.68,5.86-.41.27,3.81-11.49.81Z"/><path class="cls-5" d="M1134.28,561.4l-.65-9.19c-.37-5.29,1.23-8.66,7-9.07,5.63-.4,7.54,2.5,7.85,6.85l.16,2.2-5.51.39L1143,550c-.1-1.48-.25-3-2-2.92s-1.84,1.74-1.73,3.28l.85,12c.12,1.73.5,3.09,2.17,3s1.71-1.7,1.6-3.25l-.19-2.67,5.51-.39.16,2.2c.3,4.35-1.11,7.7-6.8,8.1S1134.65,566.56,1134.28,561.4Z"/><path class="cls-5" d="M1152,560.24l-.67-9.47c-.37-5.26,1.33-8.48,7.06-8.88s7.92,2.54,8.29,7.8l.67,9.47c.37,5.25-1.36,8.54-7.12,8.94S1152.38,565.5,1152,560.24Zm9.69.74-.86-12.27c-.11-1.51-.4-3-2.16-2.85s-1.79,1.61-1.68,3.12l.86,12.27c.11,1.45.34,3,2.1,2.86S1161.81,562.43,1161.7,561Z"/><path class="cls-5" d="M1169.91,541.43l6-.43,3.85,14.62,2-15,5.82-.41,2.24,25.46-4,.28L1184.17,549l-1.77,17.17-3.55.25-4.35-16.86.82,17.11-4.06.29Z"/><path class="cls-5" d="M1191.71,539.89l11.46-.81.27,3.84-5.82.41.44,6.33,4.44-.32.28,3.91-4.44.31.54,7.61,5.88-.41.27,3.81-11.52.81Z"/><path class="cls-5" d="M1143.46,442.93a96.77,96.77,0,1,1-37.78,7.63,96.43,96.43,0,0,1,37.78-7.63m0-11.45A108.52,108.52,0,1,0,1252,540a108.53,108.53,0,0,0-108.52-108.52Z"/><circle class="cls-4" cx="825.5" cy="540" r="108.52"/><path class="cls-5" d="M886,512.86a1,1,0,0,0-1.07-.94l-8.73.53L826.38,462.8a6.88,6.88,0,0,0-2.93-1.74,3.36,3.36,0,0,0-4.13.06,6.82,6.82,0,0,0-3,1.93l-51,56.15-13.05.79a1,1,0,0,0-.94,1.07l5.24,86a1,1,0,0,0,1.06.94L890.25,600a1,1,0,0,0,.94-1.07Zm-67.56-47.59c.55,1.11.73-2.56,2.06-2.56s2.55,1.09,4,2.47l47.64,47.51-102.46,6.25Zm-61.91,62.88a3.53,3.53,0,0,1,3.53-3.53,2.6,2.6,0,0,1,.4,0l-.27.3a1.5,1.5,0,1,0,2.23,2l-1.13,1.63c.34.55,2.3-1.14,2.3-.45a3.53,3.53,0,0,1-7.06,0Z"/><path class="cls-6" d="M889.1,507.9,756.53,516a1,1,0,0,0-.94,1.07l5.24,86a1,1,0,0,0,1.06.95L894.47,596a1,1,0,0,0,.94-1.07l-5.24-86A1,1,0,0,0,889.1,507.9ZM764.23,527.66a3.53,3.53,0,1,1,3.53-3.53A3.52,3.52,0,0,1,764.23,527.66Zm118.88-9a3.53,3.53,0,1,1,3.53-3.53A3.53,3.53,0,0,1,883.11,518.66Z"/><path class="cls-6" d="M765.47,523.45a1.5,1.5,0,0,1-1.11-2.52L820.55,459a7,7,0,0,1,10.05-.25l52.78,52.65a1.51,1.51,0,1,1-2.13,2.13l-52.78-52.64a3.88,3.88,0,0,0-2.87-1.15,3.93,3.93,0,0,0-2.82,1.29L766.59,523A1.54,1.54,0,0,1,765.47,523.45Z"/><circle class="cls-7" cx="825.64" cy="459.75" r="3.39"/><path class="cls-5" d="M764.87,547.57l4.78-.34L772.21,562l.87-15,3.75-.26,3,14.58.5-14.87,4.72-.33-1.25,25.71-4.91.34L775.68,557l-1,15.53-5,.35Z"/><path class="cls-5" d="M787.84,546l11.46-.81.27,3.84-5.83.41.45,6.33,4.44-.32.27,3.9-4.43.32.53,7.61,5.89-.41.27,3.81-11.52.81Z"/><path class="cls-5" d="M801.91,545l5.63-.4,1.53,21.68,5.85-.41.27,3.81-11.48.81Z"/><path class="cls-5" d="M816.32,561.4l-.65-9.19c-.37-5.29,1.22-8.66,7.05-9.07,5.63-.4,7.54,2.5,7.85,6.85l.15,2.2-5.5.39L825,550c-.11-1.48-.25-3-2-2.92s-1.84,1.74-1.73,3.28l.84,12c.12,1.73.5,3.09,2.17,3s1.72-1.7,1.61-3.25l-.19-2.67,5.51-.39.15,2.2c.31,4.35-1.1,7.7-6.8,8.1S816.68,566.56,816.32,561.4Z"/><path class="cls-5" d="M834,560.24l-.67-9.47c-.37-5.26,1.33-8.48,7.06-8.88s7.93,2.54,8.3,7.8l.67,9.47c.37,5.25-1.36,8.54-7.12,8.94S834.41,565.5,834,560.24Zm9.7.74-.87-12.27c-.1-1.51-.4-3-2.16-2.85s-1.78,1.61-1.68,3.12l.87,12.27c.1,1.45.34,3,2.1,2.86S843.84,562.43,843.74,561Z"/><path class="cls-5" d="M851.94,541.43l6-.43,3.84,14.62,2-15,5.82-.41,2.24,25.46-4,.28L866.2,549l-1.76,17.17-3.56.25-4.35-16.86.83,17.11-4.06.29Z"/><path class="cls-5" d="M873.75,539.89l11.46-.81.27,3.84-5.83.41.45,6.33,4.44-.32.27,3.91-4.43.31.53,7.61,5.89-.41.27,3.81-11.52.81Z"/><path class="cls-5" d="M825.5,442.93a96.82,96.82,0,1,1-37.78,7.63,96.43,96.43,0,0,1,37.78-7.63m0-11.45A108.52,108.52,0,1,0,934,540,108.52,108.52,0,0,0,825.5,431.48Z"/><circle class="cls-4" cx="508.63" cy="540" r="108.52"/><path class="cls-5" d="M569.08,512.86a1,1,0,0,0-1.07-.94l-8.73.53L509.51,462.8a6.94,6.94,0,0,0-2.93-1.74,3.37,3.37,0,0,0-4.14.06,6.84,6.84,0,0,0-3,1.93l-51,56.15-13,.79a1,1,0,0,0-.94,1.07l5.24,86a1,1,0,0,0,1.06.94L573.38,600a1,1,0,0,0,.94-1.07Zm-67.56-47.59c.55,1.11.73-2.56,2.06-2.56s2.55,1.09,4,2.47l47.64,47.51-102.47,6.25Zm-61.91,62.88a3.53,3.53,0,0,1,3.53-3.53,2.69,2.69,0,0,1,.4,0l-.28.3a1.51,1.51,0,1,0,2.24,2l-1.13,1.63c.34.55,2.3-1.14,2.3-.45a3.53,3.53,0,0,1-7.06,0Z"/><path class="cls-6" d="M572.23,507.9,439.66,516a1,1,0,0,0-.94,1.07l5.24,86A1,1,0,0,0,445,604L577.6,596a1,1,0,0,0,.94-1.07l-5.24-86A1,1,0,0,0,572.23,507.9ZM447.36,527.66a3.53,3.53,0,1,1,3.53-3.53A3.53,3.53,0,0,1,447.36,527.66Zm118.88-9a3.53,3.53,0,1,1,3.52-3.53A3.53,3.53,0,0,1,566.24,518.66Z"/><path class="cls-6" d="M448.6,523.45a1.51,1.51,0,0,1-1.12-2.52l56.2-61.9a7,7,0,0,1,10.05-.25l52.78,52.65a1.51,1.51,0,0,1-2.13,2.13L511.6,460.92a3.89,3.89,0,0,0-2.87-1.15,3.93,3.93,0,0,0-2.82,1.29L449.72,523A1.54,1.54,0,0,1,448.6,523.45Z"/><circle class="cls-7" cx="508.77" cy="459.75" r="3.39"/><path class="cls-5" d="M448,547.57l4.78-.34L455.34,562l.87-15,3.75-.26L463,561.34l.5-14.87,4.72-.33L467,571.85l-4.91.34L458.81,557l-1,15.53-5,.35Z"/><path class="cls-5" d="M471,546l11.45-.81.27,3.84-5.82.41.45,6.33,4.44-.32.27,3.9-4.44.32.54,7.61,5.89-.41.26,3.81-11.51.81Z"/><path class="cls-5" d="M485,545l5.63-.4,1.53,21.68,5.85-.41.27,3.81-11.49.81Z"/><path class="cls-5" d="M499.45,561.4l-.65-9.19c-.37-5.29,1.22-8.66,7-9.07,5.64-.4,7.55,2.5,7.86,6.85l.15,2.2-5.51.39-.18-2.55c-.1-1.48-.24-3-2-2.92s-1.83,1.74-1.73,3.28l.85,12c.12,1.73.5,3.09,2.17,3s1.72-1.7,1.61-3.25l-.19-2.67,5.5-.39.16,2.2c.31,4.35-1.1,7.7-6.8,8.1S499.81,566.56,499.45,561.4Z"/><path class="cls-5" d="M517.17,560.24l-.67-9.47c-.37-5.26,1.33-8.48,7.06-8.88s7.93,2.54,8.3,7.8l.67,9.47c.37,5.25-1.36,8.54-7.12,8.94S517.54,565.5,517.17,560.24Zm9.7.74L526,548.71c-.1-1.51-.4-3-2.16-2.85s-1.78,1.61-1.68,3.12l.87,12.27c.1,1.45.33,3,2.1,2.86S527,562.43,526.87,561Z"/><path class="cls-5" d="M535.07,541.43l6-.43L545,555.62l2-15,5.83-.41L555,565.64l-4,.28L549.33,549l-1.76,17.17-3.56.25-4.35-16.86.83,17.11-4.06.29Z"/><path class="cls-5" d="M556.88,539.89l11.45-.81.27,3.84-5.82.41.45,6.33,4.44-.32.27,3.91-4.44.31.54,7.61,5.89-.41.26,3.81-11.51.81Z"/><path class="cls-5" d="M508.63,442.93a96.82,96.82,0,1,1-37.78,7.63,96.43,96.43,0,0,1,37.78-7.63m0-11.45A108.52,108.52,0,1,0,617.15,540,108.52,108.52,0,0,0,508.63,431.48Z"/><circle class="cls-4" cx="185.91" cy="540" r="108.52"/><path class="cls-5" d="M246.36,512.86a1,1,0,0,0-1.07-.94l-8.73.53L186.79,462.8a6.94,6.94,0,0,0-2.93-1.74,3.37,3.37,0,0,0-4.14.06,6.84,6.84,0,0,0-3,1.93l-51,56.15-13,.79a1,1,0,0,0-.94,1.07l5.24,86a1,1,0,0,0,1.06.94L250.66,600a1,1,0,0,0,.94-1.07ZM178.8,465.27c.55,1.11.73-2.56,2.06-2.56s2.55,1.09,4,2.47l47.64,47.51-102.47,6.25Zm-61.91,62.88a3.53,3.53,0,0,1,3.53-3.53,2.69,2.69,0,0,1,.4,0l-.28.3a1.51,1.51,0,1,0,2.24,2l-1.13,1.63c.34.55,2.3-1.14,2.3-.45a3.53,3.53,0,0,1-7.06,0Z"/><path class="cls-6" d="M249.51,507.9,116.94,516A1,1,0,0,0,116,517l5.24,86a1,1,0,0,0,1.06.95L254.88,596a1,1,0,0,0,.94-1.07l-5.24-86A1,1,0,0,0,249.51,507.9ZM124.64,527.66a3.53,3.53,0,1,1,3.53-3.53A3.53,3.53,0,0,1,124.64,527.66Zm118.88-9a3.53,3.53,0,1,1,3.52-3.53A3.53,3.53,0,0,1,243.52,518.66Z"/><path class="cls-6" d="M125.88,523.45a1.51,1.51,0,0,1-1.12-2.52L181,459a7,7,0,0,1,10-.25l52.78,52.65a1.51,1.51,0,1,1-2.13,2.13l-52.78-52.64a3.88,3.88,0,0,0-2.87-1.15,3.93,3.93,0,0,0-2.82,1.29L127,523A1.54,1.54,0,0,1,125.88,523.45Z"/><circle class="cls-7" cx="186.05" cy="459.75" r="3.39"/><path class="cls-5" d="M125.28,547.57l4.78-.34L132.62,562l.87-15,3.75-.26,3,14.58.5-14.87,4.72-.33-1.25,25.71-4.91.34L136.09,557l-1,15.53-5,.35Z"/><path class="cls-5" d="M148.25,546l11.45-.81L160,549l-5.82.41.45,6.33,4.44-.32.27,3.9-4.44.32.54,7.61,5.89-.41.26,3.81-11.51.81Z"/><path class="cls-5" d="M162.32,545l5.63-.4,1.53,21.68,5.85-.41.27,3.81-11.49.81Z"/><path class="cls-5" d="M176.73,561.4l-.65-9.19c-.37-5.29,1.22-8.66,7-9.07,5.64-.4,7.55,2.5,7.86,6.85l.15,2.2-5.51.39-.18-2.55c-.1-1.48-.24-3-2-2.92s-1.83,1.74-1.73,3.28l.85,12c.12,1.73.5,3.09,2.17,3s1.72-1.7,1.61-3.25l-.19-2.67,5.5-.39.16,2.2c.31,4.35-1.1,7.7-6.8,8.1S177.09,566.56,176.73,561.4Z"/><path class="cls-5" d="M194.45,560.24l-.67-9.47c-.37-5.26,1.33-8.48,7.06-8.88s7.93,2.54,8.3,7.8l.67,9.47c.37,5.25-1.36,8.54-7.12,8.94S194.82,565.5,194.45,560.24Zm9.7.74-.87-12.27c-.1-1.51-.4-3-2.16-2.85s-1.78,1.61-1.68,3.12l.87,12.27c.1,1.45.33,3,2.1,2.86S204.25,562.43,204.15,561Z"/><path class="cls-5" d="M212.35,541.43l6-.43,3.85,14.62,2-15,5.83-.41,2.23,25.46-4,.28L226.61,549l-1.76,17.17-3.56.25-4.35-16.86.83,17.11-4.06.29Z"/><path class="cls-5" d="M234.16,539.89l11.45-.81.27,3.84-5.82.41.45,6.33,4.44-.32.27,3.91-4.44.31.54,7.61,5.89-.41.26,3.81-11.51.81Z"/><path class="cls-5" d="M185.91,442.93a96.82,96.82,0,1,1-37.78,7.63,96.43,96.43,0,0,1,37.78-7.63m0-11.45A108.52,108.52,0,1,0,294.43,540,108.52,108.52,0,0,0,185.91,431.48Z"/><circle class="cls-4" cx="1459.76" cy="540" r="108.52"/><path class="cls-5" d="M1520.21,512.86a1,1,0,0,0-1.06-.94l-8.74.53-49.77-49.65a6.88,6.88,0,0,0-2.93-1.74,3.36,3.36,0,0,0-4.13.06,6.82,6.82,0,0,0-3,1.93l-51,56.15-13,.79a1,1,0,0,0-.94,1.07l5.24,86a1,1,0,0,0,1.07.94L1524.51,600a1,1,0,0,0,.94-1.07Zm-67.56-47.59c.56,1.11.73-2.56,2.06-2.56s2.55,1.09,4,2.47l47.63,47.51-102.46,6.25Zm-61.9,62.88a3.53,3.53,0,0,1,3.52-3.53,2.6,2.6,0,0,1,.4,0l-.27.3a1.5,1.5,0,1,0,2.23,2l-1.13,1.63c.34.55,2.3-1.14,2.3-.45a3.53,3.53,0,1,1-7,0Z"/><path class="cls-6" d="M1523.37,507.9,1390.79,516a1,1,0,0,0-.94,1.07l5.24,86a1,1,0,0,0,1.07.95L1528.73,596a1,1,0,0,0,.94-1.07l-5.24-86A1,1,0,0,0,1523.37,507.9Zm-124.88,19.76a3.53,3.53,0,1,1,3.53-3.53A3.53,3.53,0,0,1,1398.49,527.66Zm118.88-9a3.53,3.53,0,1,1,3.53-3.53A3.53,3.53,0,0,1,1517.37,518.66Z"/><path class="cls-6" d="M1399.73,523.45a1.5,1.5,0,0,1-1.11-2.52l56.19-61.9a7,7,0,0,1,10-.25l52.78,52.65a1.51,1.51,0,1,1-2.13,2.13l-52.78-52.64a3.92,3.92,0,0,0-5.68.14l-56.2,61.9A1.54,1.54,0,0,1,1399.73,523.45Z"/><circle class="cls-7" cx="1459.9" cy="459.75" r="3.39"/><path class="cls-5" d="M1399.13,547.57l4.79-.34,2.55,14.75.88-15,3.74-.26,3.05,14.58.51-14.87,4.72-.33-1.26,25.71-4.91.34L1410,557l-1,15.53-5,.35Z"/><path class="cls-5" d="M1422.1,546l11.46-.81.27,3.84-5.82.41.44,6.33,4.44-.32.28,3.9-4.44.32.54,7.61,5.88-.41.27,3.81-11.52.81Z"/><path class="cls-5" d="M1436.17,545l5.63-.4,1.53,21.68,5.86-.41.26,3.81-11.48.81Z"/><path class="cls-5" d="M1450.58,561.4l-.65-9.19c-.37-5.29,1.23-8.66,7-9.07,5.63-.4,7.54,2.5,7.85,6.85l.15,2.2-5.5.39-.18-2.55c-.11-1.48-.25-3-2-2.92s-1.84,1.74-1.73,3.28l.84,12c.13,1.73.51,3.09,2.18,3s1.71-1.7,1.6-3.25l-.19-2.67,5.51-.39.15,2.2c.31,4.35-1.1,7.7-6.79,8.1S1451,566.56,1450.58,561.4Z"/><path class="cls-5" d="M1468.3,560.24l-.66-9.47c-.37-5.26,1.33-8.48,7-8.88s7.93,2.54,8.3,7.8l.67,9.47c.37,5.25-1.36,8.54-7.12,8.94S1468.68,565.5,1468.3,560.24Zm9.7.74-.86-12.27c-.11-1.51-.4-3-2.17-2.85s-1.78,1.61-1.67,3.12l.86,12.27c.1,1.45.34,3,2.1,2.86S1478.1,562.43,1478,561Z"/><path class="cls-5" d="M1486.21,541.43l6-.43,3.84,14.62,2-15,5.82-.41,2.24,25.46-4,.28L1500.46,549l-1.76,17.17-3.55.25-4.36-16.86.83,17.11-4.06.29Z"/><path class="cls-5" d="M1508,539.89l11.46-.81.27,3.84-5.82.41.44,6.33,4.44-.32.28,3.91-4.44.31.53,7.61,5.89-.41.27,3.81-11.52.81Z"/><path class="cls-5" d="M1459.76,442.93a96.77,96.77,0,1,1-37.78,7.63,96.43,96.43,0,0,1,37.78-7.63m0-11.45A108.52,108.52,0,1,0,1568.28,540a108.53,108.53,0,0,0-108.52-108.52Z"/><circle class="cls-4" cx="1775.7" cy="540" r="108.52"/><path class="cls-5" d="M1836.15,512.86a1,1,0,0,0-1.06-.94l-8.73.53-49.78-49.65a6.82,6.82,0,0,0-2.93-1.74,3.31,3.31,0,0,0-2-.68,3.37,3.37,0,0,0-2.1.74,6.79,6.79,0,0,0-3,1.93l-51,56.15-13,.79a1,1,0,0,0-.94,1.07l5.24,86a1,1,0,0,0,1.07.94L1840.45,600a1,1,0,0,0,1-1.07Zm-67.56-47.59c.56,1.11.74-2.56,2.07-2.56s2.55,1.09,4,2.47l47.63,47.51-102.46,6.25Zm-61.9,62.88a3.53,3.53,0,0,1,3.53-3.53l.39,0-.27.3a1.5,1.5,0,0,0,1.12,2.52,1.48,1.48,0,0,0,1.11-.5l-1.13,1.63c.35.55,2.3-1.14,2.3-.45a3.53,3.53,0,1,1-7,0Z"/><path class="cls-6" d="M1839.31,507.9,1706.73,516a1,1,0,0,0-.94,1.07l5.25,86a1,1,0,0,0,1.06.95L1844.67,596a1,1,0,0,0,.95-1.07l-5.25-86A1,1,0,0,0,1839.31,507.9Zm-124.87,19.76a3.53,3.53,0,1,1,3.52-3.53A3.53,3.53,0,0,1,1714.44,527.66Zm118.87-9a3.53,3.53,0,1,1,3.53-3.53A3.53,3.53,0,0,1,1833.31,518.66Z"/><path class="cls-6" d="M1715.68,523.45a1.53,1.53,0,0,1-1-.39,1.51,1.51,0,0,1-.1-2.13l56.2-61.9a6.95,6.95,0,0,1,10-.25l52.79,52.65a1.51,1.51,0,1,1-2.13,2.13l-52.78-52.64a3.93,3.93,0,0,0-5.69.14l-56.2,61.9A1.5,1.5,0,0,1,1715.68,523.45Z"/><circle class="cls-7" cx="1775.85" cy="459.75" r="3.39"/><path class="cls-5" d="M1715.07,547.57l4.79-.34,2.56,14.75.87-15,3.74-.26,3.06,14.58.5-14.87,4.72-.33-1.26,25.71-4.91.34L1725.89,557l-1,15.53-5,.35Z"/><path class="cls-5" d="M1738.05,546l11.45-.81.27,3.84-5.82.41.45,6.33,4.43-.32.28,3.9-4.44.32.54,7.61,5.88-.41.27,3.81-11.52.81Z"/><path class="cls-5" d="M1752.11,545l5.64-.4,1.52,21.68,5.86-.41.27,3.81-11.49.81Z"/><path class="cls-5" d="M1766.52,561.4l-.64-9.19c-.38-5.29,1.22-8.66,7-9.07,5.63-.4,7.55,2.5,7.85,6.85l.16,2.2-5.51.39-.18-2.55c-.1-1.48-.25-3-2-2.92s-1.84,1.74-1.73,3.28l.85,12c.12,1.73.5,3.09,2.17,3s1.71-1.7,1.6-3.25l-.19-2.67,5.51-.39.16,2.2c.3,4.35-1.1,7.7-6.8,8.1S1766.89,566.56,1766.52,561.4Z"/><path class="cls-5" d="M1784.25,560.24l-.67-9.47c-.37-5.26,1.33-8.48,7.06-8.88s7.92,2.54,8.3,7.8l.66,9.47c.37,5.25-1.36,8.54-7.11,8.94S1784.62,565.5,1784.25,560.24Zm9.69.74-.86-12.27c-.11-1.51-.4-3-2.16-2.85s-1.79,1.61-1.68,3.12l.86,12.27c.11,1.45.34,3,2.1,2.86S1794.05,562.43,1793.94,561Z"/><path class="cls-5" d="M1802.15,541.43l6-.43,3.85,14.62,2-15,5.82-.41,2.24,25.46-4,.28L1816.41,549l-1.77,17.17-3.55.25-4.35-16.86.82,17.11-4,.29Z"/><path class="cls-5" d="M1824,539.89l11.45-.81.27,3.84-5.82.41.44,6.33,4.44-.32.28,3.91-4.44.31.54,7.61,5.88-.41.27,3.81-11.52.81Z"/><path class="cls-5" d="M1775.7,442.93a96.77,96.77,0,1,1-37.78,7.63,96.43,96.43,0,0,1,37.78-7.63m0-11.45A108.52,108.52,0,1,0,1884.23,540,108.53,108.53,0,0,0,1775.7,431.48Z"/></g></svg>