<?xml version="1.0" encoding="utf-8"?>
<!-- Generator: Adobe Illustrator 21.1.0, SVG Export Plug-In . SVG Version: 6.00 Build 0)  -->
<svg version="1.1" id="Layer_1" xmlns="http://www.w3.org/2000/svg" xmlns:xlink="http://www.w3.org/1999/xlink" x="0px" y="0px"
	 viewBox="0 0 691.8 549.5" style="enable-background:new 0 0 691.8 549.5;" xml:space="preserve">
<style type="text/css">
	.st0{fill:#010101;}
	.st1{fill:#FFFFFF;}
	.st2{fill:#231F20;}
</style>
<g>
	<polygon class="st0" points="616,285.3 599.1,13.1 430.6,33.7 237.5,46.4 18.8,59.1 36,175.1 51.9,349 56.7,533.7 307.9,513.9 
		531.3,499 642.3,498 	"/>
	<g>
		<path class="st1" d="M164.1,400.3c-1.7-13-9-19.2-20.8-27.6c-9.7-6.8-17.3-11.7-18.4-20.2c-0.7-5.3,2.4-9.1,7.2-9.7
			c5.6-0.7,8.7,2.5,10.4,10.5l14.1-3.9c-3.1-14.5-13.3-21.9-25.9-20.3c-12.9,1.7-22.1,13.1-20.3,26.6c1.6,12.4,10.2,19.1,22.7,28.1
			c9.1,6.6,15.6,10.7,16.6,18.5c0.7,5.5-2.8,9.6-8.4,10.3c-6.4,0.8-10.5-3.2-12.3-12.6l-13.8,4c2.9,16.4,13.8,24.6,28.6,22.6
			C157.4,425,165.9,414.1,164.1,400.3z"/>
		<path class="st1" d="M295.2,404.7l-12.4-93.9l-20.1,2.7l-2.6,53.4c-0.2,4.6,0,11,0.7,15.8c-0.7-5-1.9-11.4-3.3-15.5l-16.8-50.7
			l-19.8,2.6l12.4,93.9l13.7-1.8l-5.5-41.4l-2.6-17.9c-0.5-3.9-1.3-9.3-2.9-16.2c0.4,1.2,2,5.5,4.4,12.9l19.9,60.8l7.5-1l4-64
			c0.2-2.6,0.6-7.1,0.9-13.6c0.3,8.4,0.9,13.8,1.3,16.5l2.1,17.6l5.5,41.7L295.2,404.7z"/>
		<polygon class="st1" points="342.3,398.3 340.4,384.2 321.2,386.8 318,363.2 337.2,360.5 335.4,347.3 316.3,350.1 312.5,320.4 
			335.1,317.2 333.3,303.8 295.9,309 308.3,402.9 		"/>
		<polygon class="st1" points="361.2,335.9 377.1,334 375.3,320.9 325.7,327.3 327.5,340.4 346.4,337.9 357,418.7 371.8,416.7 		"/>
		<polygon class="st1" points="394.8,413.8 409.5,411.8 403.9,369.8 419.1,367.8 424.7,409.8 439.5,407.9 427.1,313.9 412.3,315.9 
			417.3,354.2 402.1,356.2 397.1,317.9 382.4,319.9 		"/>
		<polygon class="st1" points="413.5,468.5 411.9,455.8 399,457.4 400.6,470.1 		"/>
		
			<rect x="446.1" y="310.8" transform="matrix(0.9914 -0.131 0.131 0.9914 -42.9998 62.5113)" class="st1" width="15.2" height="94.7"/>
		<path class="st1" d="M468.2,308.5l12.4,93.9l13.7-1.8l-4.9-37.4l-1.8-11.7c-0.3-2-1.2-6.3-3.2-12.8c1.7,4.4,3.4,7.5,4.6,9.8
			l25.5,49.4l13.8-1.8l-12.4-93.9l-13.8,1.8l5.9,44.7l1.4,8.7c0.2,1.6,1,6,3.1,12.5c-2.3-5.7-3.9-8.8-4.3-9.6l-26.7-53.6
			L468.2,308.5z"/>
		<path class="st1" d="M567,443.6l-2.5-20.6l-21,2.6l1.1,9.3l9-1.1l0.7,5.5c-1.7,1.5-4,2.4-7.1,2.8c-7.2,0.9-13.1-3.8-14-11.1l0-0.1
			c-0.9-7,3.5-13.2,10.1-14c4.5-0.6,8,0.6,11.6,2.9l6.3-9.8c-5.3-3.6-11.3-5.4-19.4-4.4c-14.2,1.8-23.3,13.5-21.7,26.8l0,0.1
			c1.7,13.8,13.6,22.3,27.8,20.6C556.3,452.1,562.7,448.2,567,443.6z"/>
		<path class="st1" d="M585.4,388.5l-6.3-47.3l-23.7,3.1l1.6,12l9.5-1.2l1.9,14.6c0.8,6.5-1.6,10.2-6.8,10.9
			c-5.2,0.7-8.5-2.3-9.4-8.8l-6.9-52.4c-0.9-6.5,1.6-10.1,6.8-10.8c5.2-0.7,8.5,2.1,9.3,8.6l1.3,10l14.2-1.9l-1.1-8.7
			c-2.1-16-10.6-23.1-24.9-21.2c-15.1,2-22.5,12.2-20.6,26.8l6.3,48.1c2.3,17,10.7,25.1,24.2,23.3c6.7-0.9,11-4.1,13.6-10.4l3.8,6.1
			L585.4,388.5z"/>
		<path class="st1" d="M218.4,390.7l-6.4-48.2c-2-15.2-12.1-22.9-25.9-21.1c-15.1,2-22.5,12.2-20.6,26.8l6.4,48.2
			c2.3,17.2,11.5,25,26.6,23C213.4,417.5,220.6,407.3,218.4,390.7z M196.7,405.4c-5.2,0.7-8.5-2.3-9.3-8.8l-6.9-52.4
			c-0.9-6.5,1.6-10.1,6.7-10.8c5.2-0.7,8.5,2.1,9.3,8.6l6.9,52.4C204.3,401,201.8,404.7,196.7,405.4z"/>
		<path class="st1" d="M465.2,439.1l0-0.1c-1.6-13.1-13.4-22.4-27.5-20.6c-14.1,1.8-23.3,13.7-21.7,26.8l0,0.1
			c1.6,13.1,13.4,22.3,27.4,20.6C457.6,464.1,466.8,452.2,465.2,439.1z M442.7,454.2c-6.9,0.9-12.4-4.3-13.2-10.9l0-0.1
			c-0.8-6.6,3.1-12.8,10-13.6c7-0.9,12.5,4.3,13.3,10.9l0,0.1C453.6,447.1,449.7,453.3,442.7,454.2z"/>
		<path class="st1" d="M504.8,441.3c5.4-3.1,8.5-8.2,7.7-15.2l0-0.1c-0.6-4.5-2.4-7.9-5.4-10.1c-3.5-2.8-8.5-4-15.5-3.1l-21.6,2.7
			l5.6,45.7l12.7-1.6l-1.7-13.8l5.4-0.7l0.1,0l10.9,12.7l14.6-1.8L504.8,441.3z M494.1,433.4l-8.3,1l-1.4-11l8.3-1
			c4.2-0.5,7.1,1,7.5,4.6l0,0.1C500.6,430.5,498.4,432.9,494.1,433.4z"/>
	</g>
	
		<image style="display:none;overflow:visible;" width="693" height="551" xlink:href="BooSomething_Logo.png"  transform="matrix(1 0 0 1 -0.6236 -0.7576)">
	</image>
	<g>
		<path class="st1" d="M236.1,212.8c-6.9-46.7,23.1-86.1,71-93.6c47.9-7.5,88,20.8,94.9,67.5c6.9,46.7-23.1,86.1-71,93.6
			S243,259.5,236.1,212.8z M352.1,195.7c-3.4-21.8-20.2-32.8-38.5-30.1c-18.3,2.7-30.9,18.1-27.5,39.9c3.4,21.8,20.2,32.8,38.5,30.1
			C342.9,232.9,355.5,217.5,352.1,195.7z"/>
	</g>
	<path class="st1" d="M416.7,205.7c-4.3-46.8,28-84.3,76.2-89.1c48.2-4.8,86.7,25.7,90.9,72.6s-28,84.3-76.2,89.1
		C459.4,283.1,420.9,252.6,416.7,205.7z M533.5,193.5c-2.2-21.7-18.1-33.5-36.4-31.9c-18.2,1.6-31.6,16.1-29.4,37.8
		c2.2,21.7,18.2,33.5,36.4,31.9S535.7,215.2,533.5,193.5z"/>
	<path class="st1" d="M234,253.8c2.4,27-18.4,44.8-60,48.7l-85,8.1L75,155.9l80.7-7.7c41.7-4,62.6,11.2,64.7,34.6
		c1.3,14.4-4.7,27-17.9,35.4C220.8,223.2,232.4,235.5,234,253.8z M128.3,187.6l2.1,23l23.7-2.3c11.4-1.1,16.3-5.6,15.6-13.1
		c-0.7-7.5-6.2-11-17.7-9.9L128.3,187.6z M182.1,252.7c-0.7-8-6.7-11.6-17.9-10.6l-30.6,2.9l2.2,24.3l30.6-2.9
		C177.6,265.4,182.8,260.7,182.1,252.7z"/>
	<g>
		<path class="st2" d="M681,477.6c0,8.3-6.7,14.9-15.1,14.9c-8.5,0-15.2-6.6-15.2-14.9c0-8.3,6.8-14.8,15.3-14.8
			C674.4,462.8,681,469.3,681,477.6z M654.4,477.6c0,6.6,5,11.8,11.5,11.8c6.4,0.1,11.3-5.2,11.3-11.7c0-6.6-4.9-11.9-11.4-11.9
			C659.4,465.8,654.4,471.1,654.4,477.6z M663.5,485.2h-3.4v-14.8c1.4-0.2,3.2-0.5,5.7-0.5c2.8,0,4.1,0.5,5,1.2
			c0.9,0.6,1.5,1.7,1.5,3.2c0,1.8-1.4,3-3.1,3.5v0.2c1.4,0.5,2.2,1.6,2.6,3.6c0.5,2.3,0.8,3.1,1.1,3.6h-3.6
			c-0.5-0.5-0.7-1.8-1.2-3.6c-0.3-1.5-1.2-2.3-3.1-2.3h-1.6V485.2z M663.6,476.9h1.6c1.9,0,3.4-0.6,3.4-2.2c0-1.4-1-2.3-3.2-2.3
			c-0.9,0-1.5,0.1-1.9,0.2V476.9z"/>
	</g>
</g>
</svg>
